<svg xmlns="http://www.w3.org/2000/svg" width="298" height="220" viewBox="0 0 298 220">
  <g fill="none" fill-rule="evenodd" transform="translate(.16 .676)">
    <path stroke="#7DACBC" stroke-width=".25" d="M90.244763,98.9013764 L196.254111,114.920832"/>
    <path stroke="#557F8D" stroke-width=".5" d="M32.2928111,19.2764571 L115.215996,58.8532223"/>
    <path stroke="#7DACBC" stroke-width=".25" d="M32.2928111,19.2764571 L208.033252,3.25700131"/>
    <path stroke="#557F8D" stroke-width=".5" d="M169.398536 67.8054853L208.033252 3.25724404M169.398536 67.8054853L115.215996 58.8532223M90.244763 98.9013764L115.215511 58.8532223M196.254354 114.920589L158.122098 142.335909"/>
    <path stroke="#7DACBC" d="M196.254354,114.920589 L289.071609,37.6514011"/>
    <path stroke="#7DACBC" stroke-width=".25" d="M169.398536,67.8054853 L289.071609,37.6516439"/>
    <path stroke="#557F8D" stroke-width=".5" d="M169.398536 67.8054853L196.254597 114.920347M208.033009 3.25748677L289.071609 37.6518866"/>
    <polygon fill="#7DACBC" points="158.122 142.336 169.651 67.805 90.497 98.901" opacity=".4"/>
    <path stroke="#557F8D" stroke-width=".5" d="M96.8408096 178.997442L158.12234 142.335666M201.908108 214.805135L158.122098 142.335909M201.908108 214.805135L196.254354 114.920589M96.8408096 178.997442L31.8219077 158.737913"/>
    <path stroke="#7DACBC" stroke-width=".25" d="M295.802616 110.585365L196.254597 114.920832M31.9233704 158.823598L1.79550146 173.418692M90.244763 98.9013764L31.8221504 158.73767"/>
    <path stroke="#7DACBC" stroke-width=".5" d="M90.244763,98.9013764 L96.8412951,178.997442"/>
    <path fill="#002E3A" d="M113.206161 58.853465C113.206161 57.7436864 114.105732 56.8433869 115.216239 56.8433869 116.325775 56.8433869 117.225589 57.7436864 117.225589 58.853465 117.225589 59.9630009 116.325775 60.8635431 115.216239 60.8635431 114.105732 60.8635431 113.206161 59.9630009 113.206161 58.853465M204.775522 3.25748677C204.775522 1.45810157 206.234352 0 208.032766 0 209.832151 0 211.290981 1.45810157 211.290981 3.25748677 211.290981 5.05662924 209.832151 6.51473081 208.032766 6.51473081 206.234352 6.51473081 204.775522 5.05662924 204.775522 3.25748677M294.523409 110.585365C294.523409 109.971006 295.021013 109.472673 295.63513 109.472673 296.249246 109.472673 296.74685 109.971006 296.74685 110.585365 296.74685 111.199481 296.249246 111.697814 295.63513 111.697814 295.021013 111.697814 294.523409 111.199481 294.523409 110.585365M193.581856 114.920589C193.581856 113.444768 194.77829 112.248334 196.254354 112.248334 197.730418 112.248334 198.926853 113.444768 198.926853 114.920589 198.926853 116.396653 197.730418 117.593088 196.254354 117.593088 194.77829 117.593088 193.581856 116.396653 193.581856 114.920589M29.8819796 19.2764571C29.8819796 17.9445771 30.9614166 16.8658684 32.2928111 16.8658684 33.6246911 16.8658684 34.7041281 17.9445771 34.7041281 19.2764571 34.7041281 20.6078517 33.6246911 21.6872886 32.2928111 21.6872886 30.9614166 21.6872886 29.8819796 20.6078517 29.8819796 19.2764571M0 173.50462C0 172.456496.849470992 171.60717 1.89749818 171.60717 2.94482144 171.60717 3.79429244 172.456496 3.79429244 173.50462 3.79429244 174.552502 2.94482144 175.40207 1.89749818 175.40207.849470992 175.40207 0 174.552502 0 173.50462"/>
    <path stroke="#7DACBC" d="M90.244763 98.9013764L169.398779 67.8052426M158.12234 142.335909L169.398536 67.8054853"/>
    <path stroke="#7DACBC" stroke-width=".5" d="M158.12234,142.335909 L90.2445203,98.9011336"/>
    <path stroke="#7DACBC" stroke-width=".25" d="M90.244763 98.9013764L201.907866 214.804795M169.650979 67.8054853L96.8410524 178.997685M90.244763 98.9013764L289.071609 37.6516439"/>
    <polygon fill="#7DACBC" points="158.122 142.336 31.822 158.738 90.497 98.901" opacity=".2"/>
    <polygon fill="#7DACBC" points="158.122 142.336 31.822 158.738 96.841 178.998" opacity=".05"/>
    <path fill="#002E3A" d="M30.0259207 158.823598C30.0259207 157.775474 30.8754888 156.926148 31.9236131 156.926148 32.9707665 156.926148 33.8203345 157.775474 33.8203345 158.823598 33.8203345 159.871722 32.9707665 160.721048 31.9236131 160.721048 30.8754888 160.721048 30.0259207 159.871722 30.0259207 158.823598M93.8797008 178.997442C93.8797008 177.362387 95.205027 176.03609 96.8408096 176.03609 98.4761068 176.03609 99.8021613 177.362387 99.8021613 178.997442 99.8021613 180.632739 98.4761068 181.958793 96.8408096 181.958793 95.205027 181.958793 93.8797008 180.632739 93.8797008 178.997442M86.0044474 98.9013764C86.0044474 96.5594812 87.9026252 94.6613034 90.2445203 94.6613034 92.5864154 94.6613034 94.4853214 96.5594812 94.4853214 98.9013764 94.4853214 101.243271 92.5864154 103.141692 90.2445203 103.141692 87.9026252 103.141692 86.0044474 101.243271 86.0044474 98.9013764M154.995201 142.247554C154.995201 140.53798 156.380726 139.152213 158.090542 139.152213 159.800116 139.152213 161.186611 140.53798 161.186611 142.247554 161.186611 143.957127 159.800116 145.342894 158.090542 145.342894 156.380726 145.342894 154.995201 143.957127 154.995201 142.247554M198.253024 214.805135C198.253024 212.786488 199.889535 211.149929 201.908108 211.149929 203.926682 211.149929 205.563436 212.786488 205.563436 214.805135 205.563436 216.823805 203.926682 218.460365 201.908108 218.460365 199.889535 218.460365 198.253024 216.823805 198.253024 214.805135M285.874806 37.6516439C285.874806 35.8859987 287.306935 34.4543551 289.071609 34.4543551 290.836284 34.4543551 292.268413 35.8859987 292.268413 37.6516439 292.268413 39.4170464 290.836284 40.8486899 289.071609 40.8486899 287.306935 40.8486899 285.874806 39.4170464 285.874806 37.6516439M166.455632 67.8054853C166.455632 66.1803829 167.773191 64.8625814 169.398293 64.8625814 171.024124 64.8625814 172.341683 66.1803829 172.341683 67.8054853 172.341683 69.4305877 171.024124 70.7481464 169.398293 70.7481464 167.773191 70.7481464 166.455632 69.4305877 166.455632 67.8054853"/>
  </g>
</svg>
