<svg xmlns="http://www.w3.org/2000/svg" width="26" height="13" viewBox="0 0 26 13">
  <path fill="#000000" fill-rule="evenodd" d="M11.5546948,0.882144642 C14.9061306,0.882144642 17.6227464,3.57977259 17.6227464,6.90710881 C17.6227464,10.234445 14.9061306,12.932073 11.5546948,12.932073 C11.3204776,12.9311669 11.1306704,12.7430095 11.130062,12.5104553 L11.130062,5.79900346 C11.130062,5.56554327 11.3204776,5.37617776 11.5553032,5.37617776 C11.790433,5.37617776 11.9811527,5.56554327 11.9811527,5.79900346 L11.9811527,12.077663 L12.2494379,12.0426289 C14.8498576,11.7025562 16.7914273,9.49812427 16.7847354,6.89412202 C16.7774351,4.03340416 14.4358711,1.71994356 11.5546948,1.727192 C11.3195651,1.727192 11.1291495,1.53812851 11.1291495,1.30466832 C11.1291495,1.07120813 11.3195651,0.882144642 11.5546948,0.882144642 Z M23.7276339,5.78933887 C24.9294421,6.45710146 25.6822833,7.71017561 25.7029674,9.07771472 C25.7178721,11.1861049 24.0129531,12.9097236 21.8897891,12.932073 L21.8608921,12.932073 C20.9583953,12.932375 20.0844912,12.6173698 19.3921816,12.0426289 C19.2936278,11.96199 19.2370507,11.8417867 19.2379632,11.715241 C19.2391799,11.4823849 19.430508,11.2945294 19.6653336,11.2957375 C19.7651041,11.2954355 19.8618328,11.3301676 19.9381815,11.3941955 C20.4756645,11.8405786 21.1536777,12.0855155 21.8545044,12.0870256 L21.884618,12.0870256 C23.5347849,12.0643742 24.8576561,10.7243188 24.8470098,9.08586922 C24.825109,7.55070992 23.6330345,6.28283687 22.0923718,6.15538512 L22.0923718,5.28527024 C22.9830056,5.14905996 23.6433766,4.392806 23.6525019,3.49822763 L23.6525019,3.49641552 C23.6518936,2.51817807 22.8528173,1.72568191 21.8678882,1.72628594 C20.8826549,1.72658796 20.0844912,2.51999018 20.0850996,3.49822763 L20.0850996,8.54344425 C20.0850996,8.77690444 19.894684,8.96626995 19.6595543,8.96626995 C19.4247287,8.96626995 19.2340089,8.77690444 19.2340089,8.54344425 L19.2340089,3.49490543 C19.2355298,2.77308156 19.5372746,2.08327164 20.0674573,1.58916961 C21.1305602,0.598851425 22.801107,0.651704637 23.7985075,1.70725879 C24.7962121,2.76281294 24.7426767,4.42179976 23.6795738,5.41181593 L23.449615,5.63077924 L23.7276339,5.78933887 Z M0.56506992,5.02677273 C0.800503872,5.02949089 0.989398554,5.22097053 0.98666095,5.45473274 L0.98666095,12.5358551 C0.98666095,12.7693153 0.795941198,12.9583788 0.561115603,12.9583788 C0.32598583,12.9583788 0.135266078,12.7693153 0.135266078,12.5358551 L0.135266078,5.45473274 L0.135266078,5.44688026 C0.137091148,5.21311805 0.329635969,5.02496062 0.56506992,5.02677273 Z M0.56506992,0.882144642 C0.800503872,0.882144642 0.991223623,1.07151015 0.991223623,1.30557438 L0.991223623,3.30644598 C0.991223623,3.53990617 0.80080805,3.72896966 0.565678277,3.72896966 C0.330548503,3.72896966 0.140437108,3.53990617 0.140437108,3.30644598 L0.140437108,1.30376227 C0.141045465,1.07120813 0.330548503,0.883050697 0.56506992,0.882144642 Z M6.48778511,0.882144642 L6.48139737,0.883654733 C8.54859263,0.88607088 10.2227896,2.55170211 10.2203562,4.60421885 C10.2182269,6.65673559 8.540684,8.3187426 6.47348873,8.31662847 C6.23835896,8.31662847 6.04794339,8.12726296 6.04794339,7.89410479 C6.04794339,7.6606446 6.23835896,7.47158111 6.47348873,7.47158111 C8.05065287,7.48366185 9.34310618,6.23119173 9.3692655,4.66522656 C9.39572901,3.08929478 8.13065174,1.79061585 6.54344973,1.76403824 C4.95624771,1.73776264 3.64797714,2.994159 3.62151363,4.57009077 L3.62151363,12.5358249 C3.62151363,12.7692851 3.43079388,12.9583486 3.19596828,12.9583486 C2.96083851,12.9583486 2.77011876,12.7692851 2.77011876,12.5358249 L2.77011876,4.57009077 C2.7737689,2.53358101 4.43671129,0.883956752 6.48778511,0.882144642 Z"/>
</svg>
