<svg xmlns="http://www.w3.org/2000/svg" width="559" height="253" viewBox="0 0 559 253">
  <g fill="none" fill-rule="evenodd">
    <path stroke="#557F8D" stroke-width=".5" d="M110.905,2.483 L113.245,86.84"/>
    <path stroke="#7DACBC" stroke-width=".25" d="M110.905,2.483 L251.531,40.418"/>
    <path stroke="#557F8D" stroke-width=".5" d="M182.408 93.08L251.531 40.418M182.408 93.08L113.245 86.84"/>
    <path stroke="#557F8D" stroke-width="2" d="M302.275,126.232 L283.998527,126.232"/>
    <path stroke="#557F8D" stroke-width=".5" d="M57.7622 124.82L113.245 86.84M199.049 144.952L131.576 134.422"/>
    <path stroke="#7DACBC" stroke-width=".25" d="M199.049 144.952L284.815 126.398M182.408 93.08L284.815 126.398"/>
    <path stroke="#557F8D" stroke-width=".5" d="M182.408,93.08 L199.049,144.952"/>
    <path stroke="#557F8D" stroke-width=".25" d="M251.531,40.418 L284.815,126.399"/>
    <polygon fill="#7DACBC" points="131.576 134.422 182.668 93.08 58.022 124.82" opacity=".4"/>
    <path stroke="#557F8D" stroke-width=".5" d="M94.614 211.6001L131.576 134.422M179.611 217.544L131.576 134.422"/>
    <path stroke="#557F8D" stroke-width=".39" d="M179.611,217.544 L199.049,144.952"/>
    <path stroke="#557F8D" stroke-width=".5" d="M94.614,211.6001 L51.119,250.1471"/>
    <path stroke="#7DACBC" stroke-width=".25" d="M262.23 170.5877L199.049 144.953M51.224 250.235L5.107 228.717M57.7622 124.82L51.1192 250.1472M57.7622 124.82L94.6142 211.6002"/>
    <path fill="#002E3A" d="M49.2702 250.235C49.2702 249.156 50.1452 248.281 51.2242 248.281 52.3032 248.281 53.1782 249.156 53.1782 250.235 53.1782 251.314 52.3032 252.189 51.2242 252.189 50.1452 252.189 49.2702 251.314 49.2702 250.235M248.176 40.418C248.176 38.565 249.678 37.063 251.531 37.063 253.383 37.063 254.885 38.565 254.885 40.418 254.885 42.271 253.383 43.773 251.531 43.773 249.678 43.773 248.176 42.271 248.176 40.418M196.297 144.952C196.297 143.432 197.529 142.2 199.049 142.2 200.569 142.2 201.801 143.432 201.801 144.952 201.801 146.472 200.569 147.704 199.049 147.704 197.529 147.704 196.297 146.472 196.297 144.952M2.46 228.7173C2.46 227.2553 3.645 226.0703 5.107 226.0703 6.568 226.0703 7.753 227.2553 7.753 228.7173 7.753 230.1793 6.568 231.3643 5.107 231.3643 3.645 231.3643 2.46 230.1793 2.46 228.7173"/>
    <path stroke="#7DACBC" stroke-width=".25" d="M57.7622 124.82L182.408 93.08M131.576 134.422L182.408 93.08M131.576 134.422L57.7621 124.82M57.7622 124.82L179.61 217.5442M182.668 93.08L94.6141 211.6003M58.0222 124.82L284.815 126.398M262.23 170.5877L284.815 126.399M262.23 170.5877L179.611 217.5437M113.245 86.84L131.576 134.422M110.905 2.483L284.815 126.399"/>
    <path fill="#002E3A" d="M280.063 126.143C280.063 124.325 281.537 122.851 283.355 122.851 285.173 122.851 286.647 124.325 286.647 126.143 286.647 127.961 285.173 129.435 283.355 129.435 281.537 129.435 280.063 127.961 280.063 126.143M128.388 134.422C128.388 132.661 129.815 131.234 131.576 131.234 133.337 131.234 134.764 132.661 134.764 134.422 134.764 136.183 133.337 137.61 131.576 137.61 129.815 137.61 128.388 136.183 128.388 134.422M175.847 217.544C175.847 215.465 177.532 213.78 179.611 213.78 181.69 213.78 183.375 215.465 183.375 217.544 183.375 219.623 181.69 221.308 179.611 221.308 177.532 221.308 175.847 219.623 175.847 217.544M91.5644 211.6001C91.5644 209.9161 92.9294 208.5501 94.6144 208.5501 96.2984 208.5501 97.6634 209.9161 97.6634 211.6001 97.6634 213.2841 96.2984 214.6501 94.6144 214.6501 92.9294 214.6501 91.5644 213.2841 91.5644 211.6001"/>
    <path stroke="#7DACBC" stroke-width=".25" d="M534.204,100.231 L388.119,144.953"/>
    <path stroke="#557F8D" stroke-width=".5" d="M418.153,38.04 L486.507,48.739"/>
    <path stroke="#7DACBC" stroke-width=".25" d="M418.153,38.04 L331.967,71.325"/>
    <path stroke="#557F8D" stroke-width=".5" d="M375.616 98.667L331.967 71.325M375.616 98.667L486.507 48.739M388.119 144.952L455.217 134.422"/>
    <path stroke="#7DACBC" stroke-width=".25" d="M388.119 144.952L302.275 126.231M375.616 98.667L302.275 126.231"/>
    <path stroke="#557F8D" stroke-width=".5" d="M375.616,98.667 L388.118,144.952"/>
    <path stroke="#557F8D" stroke-width=".25" d="M331.968,71.326 L302.275,126.232"/>
    <polygon fill="#7DACBC" points="455.216 134.422 375.357 98.667 533.945 100.231" opacity=".4"/>
    <path stroke="#557F8D" stroke-width=".5" d="M475.808 232.9979L455.216 134.422M385.462 223.4878L455.216 134.422M385.462 223.4878L388.118 144.953"/>
    <path stroke="#557F8D" stroke-width=".389" d="M475.808,232.9979 L528.067,167.2249"/>
    <path stroke="#7DACBC" stroke-width=".233" d="M309.403,148.641 L388.118,144.953"/>
    <path stroke="#7DACBC" stroke-width=".25" d="M527.964 167.3132L556.858 125.633M534.204 100.231L528.068 167.2246"/>
    <path stroke="#557F8D" stroke-width=".5" d="M534.204,100.231 L475.809,232.9976"/>
    <path fill="#002E3A" d="M529.907 167.3132C529.907 166.2342 529.037 165.3592 527.964 165.3592 526.891 165.3592 526.021 166.2342 526.021 167.3132 526.021 168.3922 526.891 169.2672 527.964 169.2672 529.037 169.2672 529.907 168.3922 529.907 167.3132M335.304 71.326C335.304 69.473 333.81 67.971 331.968 67.971 330.126 67.971 328.632 69.473 328.632 71.326 328.632 73.179 330.126 74.681 331.968 74.681 333.81 74.681 335.304 73.179 335.304 71.326M390.855 144.952C390.855 143.432 389.63 142.2 388.118 142.2 386.607 142.2 385.382 143.432 385.382 144.952 385.382 146.472 386.607 147.704 388.118 147.704 389.63 147.704 390.855 146.472 390.855 144.952M558.697 125.721C558.697 124.642 557.827 123.767 556.754 123.767 555.681 123.767 554.811 124.642 554.811 125.721 554.811 126.8 555.681 127.675 556.754 127.675 557.827 127.675 558.697 126.8 558.697 125.721"/>
    <path stroke="#7DACBC" stroke-width=".233" d="M534.204 100.231L375.616 98.668M455.216 134.422L375.616 98.667M455.216 134.422L534.204 100.231"/>
    <path stroke="#7DACBC" stroke-width=".25" d="M534.204 100.231L385.462 223.4876M375.358 98.667L475.809 232.9984M534.204 100.231L302.275 126.232M309.403 148.641L302.275 126.232M309.403 148.641L385.462 223.4875M486.507 48.739L455.216 134.422M418.153 38.04L302.275 126.231"/>
    <path fill="#002E3A" d="M389.205,223.4878 C389.205,221.4088 387.529,219.7238 385.462,219.7238 C383.395,219.7238 381.719,221.4088 381.719,223.4878 C381.719,225.5668 383.395,227.2518 385.462,227.2518 C387.529,227.2518 389.205,225.5668 389.205,223.4878"/>
    <polygon fill="#7DACBC" points="454.958 135.15 475.809 232.998 533.946 100.231" opacity=".05"/>
    <path fill="#002E3A" d="M535.888 100.26C535.888 99.181 535.018 98.306 533.945 98.306 532.872 98.306 532.002 99.181 532.002 100.26 532.002 101.339 532.872 102.214 533.945 102.214 535.018 102.214 535.888 101.339 535.888 100.26M299.771 126.143C299.771 124.325 301.245 122.851 303.063 122.851 304.881 122.851 306.355 124.325 306.355 126.143 306.355 127.961 304.881 129.435 303.063 129.435 301.245 129.435 299.771 127.961 299.771 126.143M310.533 148.493C310.533 147.86 310.023 147.348 309.394 147.348 308.765 147.348 308.255 147.86 308.255 148.493 308.255 149.126 308.765 149.638 309.394 149.638 310.023 149.638 310.533 149.126 310.533 148.493M378.63 98.667C378.63 96.993 377.281 95.636 375.616 95.636 373.952 95.636 372.602 96.993 372.602 98.667 372.602 100.341 373.952 101.698 375.616 101.698 377.281 101.698 378.63 100.341 378.63 98.667M458.386 134.422C458.386 132.661 456.967 131.234 455.216 131.234 453.465 131.234 452.046 132.661 452.046 134.422 452.046 136.183 453.465 137.61 455.216 137.61 456.967 137.61 458.386 136.183 458.386 134.422M488.566 48.739C488.566 47.596 487.644 46.669 486.508 46.669 485.371 46.669 484.45 47.596 484.45 48.739 484.45 49.882 485.371 50.809 486.508 50.809 487.644 50.809 488.566 49.882 488.566 48.739M420.622 38.04C420.622 36.669 419.517 35.557 418.153 35.557 416.789 35.557 415.684 36.669 415.684 38.04 415.684 39.411 416.789 40.523 418.153 40.523 419.517 40.523 420.622 39.411 420.622 38.04M478.841 232.9979C478.841 231.3139 477.483 229.9479 475.808 229.9479 474.134 229.9479 472.776 231.3139 472.776 232.9979 472.776 234.6819 474.134 236.0479 475.808 236.0479 477.483 236.0479 478.841 234.6819 478.841 232.9979"/>
    <path fill="#000000" d="M261.093,170.4404 C261.093,169.8074 261.606,169.2954 262.238,169.2954 C262.871,169.2954 263.384,169.8074 263.384,170.4404 C263.384,171.0734 262.871,171.5854 262.238,171.5854 C261.606,171.5854 261.093,171.0734 261.093,170.4404"/>
    <path fill="#002E3A" d="M53.3954 124.82C53.3954 122.408 55.3504 120.453 57.7624 120.453 60.1744 120.453 62.1294 122.408 62.1294 124.82 62.1294 127.232 60.1744 129.187 57.7624 129.187 55.3504 129.187 53.3954 127.232 53.3954 124.82M179.377 93.08C179.377 91.406 180.734 90.049 182.408 90.049 184.081 90.049 185.438 91.406 185.438 93.08 185.438 94.754 184.081 96.111 182.408 96.111 180.734 96.111 179.377 94.754 179.377 93.08M111.176 86.84C111.176 85.697 112.103 84.77 113.246 84.77 114.389 84.77 115.315 85.697 115.315 86.84 115.315 87.983 114.389 88.91 113.246 88.91 112.103 88.91 111.176 87.983 111.176 86.84M108.422 2.483C108.422 1.112 109.534 0 110.905 0 112.276 0 113.388 1.112 113.388 2.483 113.388 3.854 112.276 4.966 110.905 4.966 109.534 4.966 108.422 3.854 108.422 2.483"/>
  </g>
</svg>
