<svg xmlns="http://www.w3.org/2000/svg" width="20" height="20" viewBox="0 0 20 20">
  <path fill="#000000" d="M13.1948822,9.31951126 C12.4760715,9.31951126 11.8934143,10.1274225 11.8934143,11.1205426 C11.8934143,12.115665 12.4760715,12.9235762 13.1948822,12.9235762 C13.9136929,12.9235762 14.4963501,12.115665 14.4963501,11.1205426 C14.495349,10.1274225 13.9136929,9.31951126 13.1948822,9.31951126 Z M17.7259927,4.63122345 C17.875161,4.26581131 17.8811678,2.18946945 17.0902757,0.20022583 C17.0902757,0.20022583 15.2772308,0.399450531 12.534137,2.28257446 C11.9584877,2.1223938 10.984389,2.04430573 10.0122926,2.04430573 C9.03819397,2.04430573 8.06509644,2.1223938 7.48944717,2.28257446 C4.74535217,0.399450531 2.93230728,0.20022583 2.93230728,0.20022583 C2.14241638,2.18946945 2.15042542,4.26581131 2.2975914,4.63122345 C1.36854355,5.64036163 0.80090332,6.85272903 0.80090332,8.50659439 C0.80090332,15.7007085 6.77063644,15.8158383 8.27633469,15.8158383 C8.61872086,15.8158383 9.29548416,15.8178406 10.0122926,15.8178406 C10.7281,15.8178406 11.4058644,15.8158383 11.7462483,15.8158383 C13.2539488,15.8158383 19.2216797,15.7007085 19.2216797,8.50659439 C19.2216797,6.85272903 18.6550406,5.64036163 17.7259927,4.63122345 Z M10.0393231,14.9318413 L9.98325989,14.9318413 C6.20800186,14.9318413 3.26668442,14.4823343 3.26668442,10.8121948 C3.26668442,9.9322023 3.57703445,9.11728317 4.31486664,8.44051987 C5.54325211,7.31224731 7.62359848,7.90892029 9.98325989,7.90892029 C9.99327118,7.90892029 10.0032825,7.90892029 10.0122926,7.90892029 C10.0223039,7.90892029 10.030313,7.90892029 10.0393231,7.90892029 C12.3989845,7.90892029 14.480332,7.31224731 15.7097186,8.44051987 C16.4455486,9.11728317 16.7558986,9.9322023 16.7558986,10.8121948 C16.7558986,14.4823343 13.8155823,14.9318413 10.0393231,14.9318413 Z M6.82870193,9.31951126 C6.1098912,9.31951126 5.52723404,10.1274225 5.52723404,11.1205426 C5.52723404,12.115665 6.1098912,12.9235762 6.82870193,12.9235762 C7.54851379,12.9235762 8.13117096,12.115665 8.13117096,11.1205426 C8.13117096,10.1274225 7.54851379,9.31951126 6.82870193,9.31951126 Z" transform="translate(0 1.991)"/>
</svg>
