<svg xmlns="http://www.w3.org/2000/svg" width="20" height="20" viewBox="0 0 20 20">
    <g fill="#000000" fill-rule="nonzero" transform="translate(0 .833)">
      <path d="M.2575 7.94833333C.1 8.01333333-.00166666667 8.1675 0 8.33916667.00166666667 8.50833333.106666667 8.66.265833333 8.72166667L7.18416667 11.4125 19.2916667.0866666667.2575 7.94833333zM7.50833333 12.25L7.5 12.2416667 7.5 17.9166667C7.5 18.145 7.68416667 18.3333333 7.91666667 18.3333333 8.06166667 18.3333333 8.20083333 18.2566667 8.27666667 18.1266667L11.0158333 13.43 16.0491667 16.1975C16.1675 16.2641667 16.3083333 16.265 16.4225 16.2125 16.5425 16.1583333 16.6291667 16.0508333 16.6566667 15.9208333L19.9716667.591666667 7.50833333 12.25z"/>
    </g>
</svg>
