<svg xmlns="http://www.w3.org/2000/svg" width="169" height="106" viewBox="0 0 169 106">
  <g fill="#000000" transform="translate(.332 .5)">
    <path d="M44.1800431 66.0197528L44.1800431 50.8133074C47.6844091 49.749482 50.2501057 46.4954278 50.2501057 42.615594 50.2501057 37.9222466 46.4328498 34.0424128 41.6769245 34.0424128 37.9222466 34.0424128 34.7307704 36.4829534 33.6043671 39.7995856L16.8334725 39.7995856C15.894803 37.296467 13.8297302 35.2939721 11.2640337 34.5430365L11.2640337 16.8960505C14.7683997 15.8322251 17.3340962 12.5781709 17.3340962 8.6983371 17.3340962 4.00498974 13.5168404.125155929 8.76091506.125155929 4.06756771.125155929.187733894 3.94241178.187733894 8.6983371.187733894 12.5155929 2.75343045 15.8322251 6.25779647 16.8960505L6.25779647 34.6056145C2.75343045 35.6694399.250311859 38.9234941.250311859 42.8033279.250311859 46.6205837 2.81600841 49.8746379 6.32037444 51.0010413L6.32037444 66.0823308C2.75343045 67.0835782.0625779647 70.4002103.0625779647 74.2800442.0625779647 78.9733915 3.87983381 82.8532253 8.63575913 82.8532253 13.3291065 82.8532253 17.2089403 79.0359695 17.2089403 74.2800442 17.2089403 70.5253663 14.7683997 67.2713121 11.3266116 66.1449087L11.3266116 50.9384633C14.14262 50.0623718 16.3954268 47.7469871 17.0837844 44.8684007L33.4166332 44.8684007C34.1675688 47.6844091 36.3577975 49.9372159 39.1738059 50.8133074L39.1738059 65.8945969C35.6068619 66.8958443 32.9160095 70.2124764 32.9160095 74.0923103 32.9160095 78.7856576 36.7332653 82.6654914 41.4891906 82.6654914 46.2451159 82.6654914 50.0623718 78.8482356 50.0623718 74.1548882 50.0623718 70.4002103 47.5592532 67.1461562 44.1800431 66.0197528zM5.19397107 8.76091506C5.19397107 6.82099816 6.75842019 5.19397107 8.76091506 5.19397107 10.7634099 5.19397107 12.3278591 6.75842019 12.3278591 8.76091506 12.3278591 10.7634099 10.7634099 12.3278591 8.76091506 12.3278591 6.75842019 12.3278591 5.19397107 10.700832 5.19397107 8.76091506zM8.63575913 77.8469881C6.69584223 77.8469881 5.06881514 76.282539 5.06881514 74.2800442 5.06881514 72.2775493 6.63326426 70.7131002 8.63575913 70.7131002 10.638254 70.7131002 12.2027031 72.2775493 12.2027031 74.2800442 12.2027031 76.282539 10.575676 77.8469881 8.63575913 77.8469881zM8.76091506 46.3702719C6.82099816 46.3702719 5.19397107 44.8058228 5.19397107 42.8033279 5.19397107 40.800833 6.75842019 39.2363839 8.76091506 39.2363839 10.7634099 39.2363839 12.3278591 40.800833 12.3278591 42.8033279 12.3278591 44.8058228 10.7634099 46.3702719 8.76091506 46.3702719zM38.1099805 42.678172C38.1099805 40.738255 39.6744296 39.111228 41.6769245 39.111228 43.6794194 39.111228 45.2438685 40.6756771 45.2438685 42.678172 45.2438685 44.6806668 43.6794194 46.2451159 41.6769245 46.2451159 39.6744296 46.2451159 38.1099805 44.6180889 38.1099805 42.678172zM41.4891906 77.6592542C39.5492737 77.6592542 37.9222466 76.0948051 37.9222466 74.0923103 37.9222466 72.0898154 39.4866958 70.5253663 41.4891906 70.5253663 43.4916855 70.5253663 45.0561346 72.0898154 45.0561346 74.0923103 45.0561346 76.0948051 43.4291075 77.6592542 41.4891906 77.6592542zM159.636388 65.8320189C155.693976 65.8320189 152.439922 68.4602934 151.438675 72.0898154L136.357385 72.0898154C135.481294 69.273807 133.228487 67.0835782 130.412479 66.3326426L130.412479 49.9997938C133.291065 49.2488583 135.60645 47.0586295 136.482541 44.2426211L151.688987 44.2426211C152.81539 47.6218312 156.006866 50.1249498 159.824122 50.1249498 164.517469 50.1249498 168.397303 46.3076939 168.397303 41.5517686 168.397303 36.8584212 164.580047 32.9785874 159.824122 32.9785874 155.944288 32.9785874 152.627656 35.6068619 151.626409 39.2363839L136.545119 39.2363839C135.481294 35.7320179 132.22724 33.1663213 128.347406 33.1663213 123.654058 33.1663213 119.774225 36.9835772 119.774225 41.7395025 119.774225 45.4316024 122.152187 48.5605006 125.406241 49.749482L125.406241 66.5203765C122.027031 67.6467799 119.649069 70.8382561 119.649069 74.592934 119.649069 79.2862813 123.466324 83.1661151 128.22225 83.1661151 132.039506 83.1661151 135.356138 80.6004186 136.419963 77.0960526L151.626409 77.0960526C152.752812 80.4752627 155.944288 82.9783813 159.761544 82.9783813 164.454891 82.9783813 168.334725 79.1611254 168.334725 74.4052001 168.334725 69.6492748 164.329735 65.8320189 159.636388 65.8320189zM159.761544 37.9848246C161.701461 37.9848246 163.328488 39.5492737 163.328488 41.5517686 163.328488 43.5542635 161.764039 45.1187126 159.761544 45.1187126 157.759049 45.1187126 156.1946 43.5542635 156.1946 41.5517686 156.1946 39.5492737 157.821627 37.9848246 159.761544 37.9848246zM128.347406 38.1725585C130.287323 38.1725585 131.91435 39.7370076 131.91435 41.7395025 131.91435 43.7419974 130.349901 45.3064465 128.347406 45.3064465 126.344911 45.3064465 124.780462 43.7419974 124.780462 41.7395025 124.780462 39.7370076 126.344911 38.1725585 128.347406 38.1725585zM128.159672 78.159878C126.219755 78.159878 124.592728 76.5954288 124.592728 74.592934 124.592728 72.5904391 126.157177 71.02599 128.159672 71.02599 130.162167 71.02599 131.726616 72.5904391 131.726616 74.592934 131.726616 76.5954288 130.099589 78.159878 128.159672 78.159878zM159.636388 77.9721441C157.696471 77.9721441 156.069444 76.407695 156.069444 74.4052001 156.069444 72.4027052 157.633893 70.8382561 159.636388 70.8382561 161.638883 70.8382561 163.203332 72.4027052 163.203332 74.4052001 163.203332 76.407695 161.576305 77.9721441 159.636388 77.9721441zM104.129733 66.0197528L104.129733 50.9384633C107.634099 49.8746379 110.199796 46.6205837 110.199796 42.7407499 110.199796 38.9234941 107.634099 35.6694399 104.192311 34.5430365L104.192311 16.8960505C107.696677 15.8322251 110.262374 12.5781709 110.262374 8.6983371 110.262374 4.00498974 106.445118.125155929 101.689193.125155929 96.9332674.125155929 93.1160115 3.94241178 93.1160115 8.6983371 93.1160115 12.5155929 95.6817081 15.8322251 99.1860741 16.8960505L99.1860741 34.6056145C96.6203776 35.3565501 94.5553047 37.359045 93.6166353 39.8621635L76.8457407 39.8621635C75.7193373 36.4829534 72.5278611 34.1049908 68.7731833 34.1049908 64.0798359 34.1049908 60.2000021 37.9222466 60.2000021 42.678172 60.2000021 46.4954278 62.7656986 49.8120599 66.2700647 50.8758853L66.2700647 66.0823308C62.8908546 67.2087341 60.387736 70.4002103 60.387736 74.2174662 60.387736 78.9108135 64.2049918 82.7906474 68.9609171 82.7906474 72.715595 82.7906474 75.8444933 80.3501067 77.0334746 77.0334746L93.7417912 77.0334746C94.8681946 80.4752627 98.0596708 82.9158033 101.876927 82.9158033 106.570274 82.9158033 110.450108 79.0985474 110.450108 74.3426221 110.324952 70.3376324 107.696677 67.0210002 104.129733 66.0197528zM98.1222487 8.6983371C98.1222487 6.75842019 99.6866978 5.13139311 101.689193 5.13139311 103.691688 5.13139311 105.256137 6.69584223 105.256137 8.6983371 105.256137 10.700832 103.691688 12.2652811 101.689193 12.2652811 99.6866978 12.2652811 98.1222487 10.638254 98.1222487 8.6983371zM101.626615 39.2363839C103.566532 39.2363839 105.193559 40.800833 105.193559 42.8033279 105.193559 44.8058228 103.62911 46.3702719 101.626615 46.3702719 99.6241199 46.3702719 98.0596708 44.8058228 98.0596708 42.8033279 98.0596708 40.800833 99.6241199 39.2363839 101.626615 39.2363839zM65.2062393 42.615594C65.2062393 40.6756771 66.7706884 39.04865 68.7731833 39.04865 70.7756781 39.04865 72.3401272 40.6130991 72.3401272 42.615594 72.3401272 44.6180889 70.7756781 46.182538 68.7731833 46.182538 66.7706884 46.182538 65.2062393 44.5555109 65.2062393 42.615594zM68.8983392 77.6592542C66.9584223 77.6592542 65.3313952 76.0948051 65.3313952 74.0923103 65.3313952 72.0898154 66.8958443 70.5253663 68.8983392 70.5253663 70.8382561 70.5253663 72.4652832 72.0898154 72.4652832 74.0923103 72.4652832 76.0948051 70.8382561 77.6592542 68.8983392 77.6592542zM93.5540573 71.9020815L77.1586305 71.9020815C76.407695 69.0234951 74.0923103 66.7081104 71.2137239 65.8945969L71.2137239 50.8133074C74.0297323 49.9372159 76.2199611 47.6844091 76.9708966 44.8684007L93.3037454 44.8684007C94.054681 47.7469871 96.2449098 50.0623718 99.0609182 50.9384633L99.0609182 66.1449087C96.4326437 67.0210002 94.3675708 69.148651 93.5540573 71.9020815zM101.814349 77.7844102C99.8744317 77.7844102 98.2474046 76.2199611 98.2474046 74.2174662 98.2474046 72.2149713 99.8118538 70.6505222 101.814349 70.6505222 103.816844 70.6505222 105.381293 72.2149713 105.381293 74.2174662 105.381293 76.2199611 103.754266 77.7844102 101.814349 77.7844102z"/>
    <g transform="translate(0 91.99)">
      <polygon points="1.815 .25 1.815 4.443 6.696 4.443 6.696 .25 8.01 .25 8.01 10.325 6.696 10.325 6.696 5.632 1.815 5.632 1.815 10.325 .501 10.325 .501 .25"/>
      <path d="M16.5205827 8.32286931C16.5205827 9.07380489 16.5205827 9.7621625 16.5831607 10.3253642L15.3941793 10.3253642 15.3316014 9.13638285 15.3316014 9.13638285C15.0187115 9.69958454 14.205198 10.4505201 12.9536387 10.4505201 11.8272353 10.4505201 10.4505201 9.82474046 10.4505201 7.32162188L10.4505201 3.12889824 11.7646574 3.12889824 11.7646574 7.13388798C11.7646574 8.51060321 12.2027031 9.44927268 13.3916845 9.44927268 14.267776 9.44927268 14.8935556 8.82349303 15.1438675 8.26029135 15.2064454 8.07255745 15.2690234 7.82224559 15.2690234 7.57193373L15.2690234 3.12889824 16.5831607 3.12889824 16.5831607 8.32286931 16.5205827 8.32286931zM19.0237013 5.06881514C19.0237013 4.31787957 19.0237013 3.69209992 18.9611233 3.12889824L20.0875267 3.12889824 20.1501046 4.31787957 20.2126826 4.31787957C20.5881504 3.62952196 21.276508 3.00374231 22.4654893 3.00374231 23.4041588 3.00374231 24.1550944 3.62952196 24.4679842 4.4430355L24.4679842 4.4430355C24.7182961 4.00498974 24.9686079 3.75467788 25.2814978 3.50436603 25.7195435 3.1914762 26.1575893 3.00374231 26.8459469 3.00374231 27.7846163 3.00374231 29.2239095 3.62952196 29.2239095 6.13264055L29.2239095 10.3879421 27.9723502 10.3879421 27.9723502 6.25779647C27.9723502 4.88108125 27.4717265 4.06756771 26.4079011 4.06756771 25.6569655 4.06756771 25.0937639 4.63076939 24.843452 5.25654904 24.780874 5.44428293 24.7182961 5.69459479 24.7182961 5.88232869L24.7182961 10.3253642 23.4667368 10.3253642 23.4667368 6.00748462C23.4667368 4.88108125 22.9661131 4.06756771 21.9648656 4.06756771 21.1513521 4.06756771 20.5255724 4.69334736 20.3378385 5.38170497 20.2752606 5.56943886 20.2126826 5.81975072 20.2126826 6.00748462L20.2126826 10.3253642 18.9611233 10.3253642 18.9611233 5.06881514 19.0237013 5.06881514zM36.7958433 8.57318117C36.7958433 9.19896082 36.7958433 9.82474046 36.9209992 10.3253642L35.7320179 10.3253642 35.6068619 9.38669471 35.544284 9.38669471C35.1688162 9.94989639 34.3553026 10.4505201 33.3540552 10.4505201 31.914762 10.4505201 31.1638264 9.44927268 31.1638264 8.38544728 31.1638264 6.63326426 32.7282756 5.69459479 35.481706 5.69459479L35.481706 5.56943886C35.481706 5.00623718 35.2939721 3.87983381 33.8546789 3.94241178 33.1663213 3.94241178 32.4779637 4.13014567 31.97734 4.50561346L31.6644502 3.62952196C32.2902298 3.25405417 33.1663213 3.00374231 34.0424128 3.00374231 36.2326416 3.00374231 36.7958433 4.50561346 36.7958433 5.94490665L36.7958433 8.57318117 36.7958433 8.57318117zM35.544284 6.63326426C34.1049908 6.63326426 32.4779637 6.88357612 32.4779637 8.26029135 32.4779637 9.13638285 33.0411654 9.51185064 33.729523 9.51185064 34.6681925 9.51185064 35.2939721 8.88607099 35.481706 8.32286931 35.544284 8.19771338 35.544284 8.00997949 35.544284 7.88482356L35.544284 6.63326426 35.544284 6.63326426zM39.2363839 5.06881514C39.2363839 4.31787957 39.2363839 3.69209992 39.1738059 3.12889824L40.3627873 3.12889824 40.4253652 4.31787957 40.4253652 4.31787957C40.800833 3.62952196 41.6143466 3.00374231 42.8033279 3.00374231 43.8045753 3.00374231 45.3690244 3.62952196 45.3690244 6.07006258L45.3690244 10.3879421 44.0548872 10.3879421 44.0548872 6.25779647C44.0548872 5.06881514 43.6168414 4.13014567 42.3652821 4.13014567 41.4891906 4.13014567 40.863411 4.75592532 40.6130991 5.44428293 40.5505212 5.63201683 40.5505212 5.81975072 40.5505212 6.07006258L40.5505212 10.3879421 39.2363839 10.3879421 39.2363839 5.06881514 39.2363839 5.06881514zM48.2476108.438045753C49.0611244.312889824 49.9997938.187733894 51.0010413.187733894 52.8783802.187733894 54.1925175.625779647 55.068609 1.43929319 56.0072784 2.25280673 56.5079022 3.44178806 56.5079022 5.06881514 56.5079022 6.69584223 56.0072784 8.07255745 55.068609 8.94864896 54.1299395 9.88731843 52.5654904 10.3879421 50.6255735 10.3879421 49.686904 10.3879421 48.9359684 10.3253642 48.2476108 10.2627862L48.2476108.438045753 48.2476108.438045753zM49.5617481 9.32411675C49.8746379 9.38669471 50.3752616 9.38669471 50.8758853 9.38669471 53.6918938 9.38669471 55.1311869 7.82224559 55.1311869 5.13139311 55.1311869 2.75343045 53.8170497 1.25155929 51.0636192 1.25155929 50.3752616 1.25155929 49.8746379 1.31413726 49.5617481 1.37671522L49.5617481 9.32411675 49.5617481 9.32411675zM63.5166342 8.57318117C63.5166342 9.19896082 63.5166342 9.82474046 63.6417901 10.3253642L62.4528088 10.3253642 62.3276529 9.38669471 62.2650749 9.38669471C61.8896071 9.94989639 61.0760936 10.4505201 60.0748462 10.4505201 58.635553 10.4505201 57.8846174 9.44927268 57.8846174 8.38544728 57.8846174 6.63326426 59.4490665 5.69459479 62.202497 5.69459479L62.202497 5.56943886C62.202497 5.00623718 62.0147631 3.87983381 60.5754699 3.94241178 59.8871123 3.94241178 59.1987546 4.13014567 58.6981309 4.50561346L58.3852411 3.62952196C59.0110208 3.25405417 59.8871123 3.00374231 60.7632038 3.00374231 62.9534325 3.00374231 63.5166342 4.50561346 63.5166342 5.94490665L63.5166342 8.57318117 63.5166342 8.57318117zM62.2650749 6.63326426C60.8257817 6.63326426 59.1987546 6.88357612 59.1987546 8.26029135 59.1987546 9.13638285 59.7619563 9.51185064 60.4503139 9.51185064 61.3889834 9.51185064 62.0147631 8.88607099 62.202497 8.32286931 62.2650749 8.19771338 62.2650749 8.00997949 62.2650749 7.88482356L62.2650749 6.63326426 62.2650749 6.63326426zM67.459046 1.37671522L67.459046 3.12889824 69.3363849 3.12889824 69.3363849 4.13014567 67.459046 4.13014567 67.459046 8.00997949C67.459046 8.88607099 67.7093579 9.38669471 68.4602934 9.38669471 68.8357612 9.38669471 69.0234951 9.38669471 69.211229 9.32411675L69.273807 10.3253642C69.0234951 10.3879421 68.6480273 10.5130981 68.0848256 10.5130981 67.459046 10.5130981 66.9584223 10.3253642 66.6455325 9.94989639 66.2700647 9.57442861 66.1449087 8.88607099 66.1449087 8.07255745L66.1449087 4.13014567 65.0810833 4.13014567 65.0810833 3.12889824 66.2074867 3.12889824 66.2074867 1.81476098 67.459046 1.37671522zM76.1573831 8.57318117C76.1573831 9.19896082 76.1573831 9.82474046 76.282539 10.3253642L75.0935577 10.3253642 74.9684018 9.38669471 74.9058238 9.38669471C74.530356 9.94989639 73.7168425 10.4505201 72.715595 10.4505201 71.2763018 10.4505201 70.5253663 9.44927268 70.5253663 8.38544728 70.5253663 6.63326426 72.0898154 5.69459479 74.8432458 5.69459479L74.8432458 5.56943886C74.8432458 5.00623718 74.6555119 3.87983381 73.2162188 3.94241178 72.5278611 3.94241178 71.8395035 4.13014567 71.3388798 4.50561346L71.02599 3.62952196C71.6517696 3.25405417 72.5278611 3.00374231 73.4039526 3.00374231 75.5941814 3.00374231 76.1573831 4.50561346 76.1573831 5.94490665L76.1573831 8.57318117 76.1573831 8.57318117zM74.9058238 6.63326426C73.4665306 6.63326426 71.8395035 6.88357612 71.8395035 8.26029135 71.8395035 9.13638285 72.4027052 9.51185064 73.0910628 9.51185064 74.0297323 9.51185064 74.6555119 8.88607099 74.8432458 8.32286931 74.9058238 8.19771338 74.9058238 8.00997949 74.9058238 7.88482356L74.9058238 6.63326426zM86.1072795 10.0124744C85.6692337 10.2627862 84.6679863 10.5130981 83.479005 10.5130981 80.6629966 10.5130981 78.5353458 8.6983371 78.5353458 5.44428293 78.5353458 2.3153847 80.6629966.187733894 83.7918948.187733894 85.0434541.187733894 85.8569676.438045753 86.1698575.625779647L85.8569676 1.68960505C85.3563439 1.43929319 84.6679863 1.25155929 83.8544728 1.25155929 81.4765101 1.25155929 79.912061 2.75343045 79.912061 5.38170497 79.912061 7.88482356 81.3513542 9.44927268 83.7293168 9.44927268 84.5428304 9.44927268 85.3563439 9.26153878 85.8569676 9.01122692L86.1072795 10.0124744zM94.3675708 6.63326426C94.3675708 9.32411675 92.4902319 10.4505201 90.8006268 10.4505201 88.8607099 10.4505201 87.3588388 9.01122692 87.3588388 6.75842019 87.3588388 4.38045753 88.9232879 2.94116434 90.9257828 2.94116434 92.9282776 2.94116434 94.3675708 4.4430355 94.3675708 6.63326426zM88.672976 6.75842019C88.672976 8.32286931 89.5490676 9.51185064 90.8632048 9.51185064 92.1147641 9.51185064 93.0534336 8.32286931 93.0534336 6.69584223 93.0534336 5.44428293 92.4276539 3.94241178 90.8632048 3.94241178 89.2987557 3.94241178 88.672976 5.38170497 88.672976 6.75842019zM96.3074877 5.06881514C96.3074877 4.31787957 96.3074877 3.69209992 96.2449098 3.12889824L97.3713131 3.12889824 97.4338911 4.31787957 97.4964691 4.31787957C97.8719369 3.62952196 98.5602945 3.00374231 99.7492758 3.00374231 100.687945 3.00374231 101.438881 3.62952196 101.751771 4.4430355L101.751771 4.4430355C102.002083 4.00498974 102.252394 3.75467788 102.565284 3.50436603 103.00333 3.1914762 103.441376 3.00374231 104.129733 3.00374231 105.068403 3.00374231 106.507696 3.62952196 106.507696 6.13264055L106.507696 10.3879421 105.256137 10.3879421 105.256137 6.25779647C105.256137 4.88108125 104.755513 4.06756771 103.691688 4.06756771 102.940752 4.06756771 102.37755 4.63076939 102.127238 5.25654904 102.06466 5.44428293 102.002083 5.69459479 102.002083 5.88232869L102.002083 10.3253642 100.750523 10.3253642 100.750523 6.00748462C100.750523 4.88108125 100.2499 4.06756771 99.2486521 4.06756771 98.4351385 4.06756771 97.8093589 4.69334736 97.621625 5.38170497 97.559047 5.56943886 97.4964691 5.81975072 97.4964691 6.00748462L97.4964691 10.3253642 96.2449098 10.3253642 96.2449098 5.06881514 96.3074877 5.06881514zM109.073393 5.06881514C109.073393 4.31787957 109.073393 3.69209992 109.010815 3.12889824L110.137218 3.12889824 110.199796 4.31787957 110.262374 4.31787957C110.637842 3.62952196 111.326199 3.00374231 112.515181 3.00374231 113.45385 3.00374231 114.204786 3.62952196 114.517675 4.4430355L114.517675 4.4430355C114.767987 4.00498974 115.018299 3.75467788 115.331189 3.50436603 115.769235 3.1914762 116.207281 3.00374231 116.895638 3.00374231 117.834308 3.00374231 119.273601 3.62952196 119.273601 6.13264055L119.273601 10.3879421 118.022042 10.3879421 118.022042 6.25779647C118.022042 4.88108125 117.521418 4.06756771 116.457592 4.06756771 115.706657 4.06756771 115.143455 4.63076939 114.893143 5.25654904 114.830565 5.44428293 114.767987 5.69459479 114.767987 5.88232869L114.767987 10.3253642 113.516428 10.3253642 113.516428 6.00748462C113.516428 4.88108125 113.015804 4.06756771 112.014557 4.06756771 111.201043 4.06756771 110.575264 4.69334736 110.38753 5.38170497 110.324952 5.56943886 110.262374 5.81975072 110.262374 6.00748462L110.262374 10.3253642 109.010815 10.3253642 109.010815 5.06881514 109.073393 5.06881514zM128.284828 6.63326426C128.284828 9.32411675 126.407489 10.4505201 124.717884 10.4505201 122.777967 10.4505201 121.276096 9.01122692 121.276096 6.75842019 121.276096 4.38045753 122.840545 2.94116434 124.84304 2.94116434 126.908113 2.94116434 128.284828 4.4430355 128.284828 6.63326426zM122.590233 6.75842019C122.590233 8.32286931 123.466324 9.51185064 124.780462 9.51185064 126.032021 9.51185064 126.97069 8.32286931 126.97069 6.69584223 126.97069 5.44428293 126.344911 3.94241178 124.780462 3.94241178 123.278591 3.94241178 122.590233 5.38170497 122.590233 6.75842019zM130.287323 5.06881514C130.287323 4.31787957 130.287323 3.69209992 130.224745 3.12889824L131.413726 3.12889824 131.476304 4.31787957 131.476304 4.31787957C131.851772 3.62952196 132.665285 3.00374231 133.854267 3.00374231 134.855514 3.00374231 136.419963 3.62952196 136.419963 6.07006258L136.419963 10.3879421 135.105826 10.3879421 135.105826 6.25779647C135.105826 5.06881514 134.66778 4.13014567 133.416221 4.13014567 132.540129 4.13014567 131.91435 4.75592532 131.664038 5.44428293 131.60146 5.63201683 131.60146 5.81975072 131.60146 6.07006258L131.60146 10.3879421 130.287323 10.3879421 130.287323 5.06881514 130.287323 5.06881514zM138.67277 9.01122692C139.048238 9.26153878 139.736595 9.51185064 140.424953 9.51185064 141.363622 9.51185064 141.801668 9.07380489 141.801668 8.44802524 141.801668 7.82224559 141.4262 7.50935577 140.487531 7.13388798 139.173394 6.63326426 138.547614 5.94490665 138.547614 5.06881514 138.547614 3.87983381 139.486283 2.94116434 141.050733 2.94116434 141.801668 2.94116434 142.427448 3.12889824 142.802916 3.3792101L142.490026 4.31787957C142.177136 4.13014567 141.676512 3.87983381 140.988155 3.87983381 140.237219 3.87983381 139.799173 4.31787957 139.799173 4.88108125 139.799173 5.5068609 140.237219 5.75717276 141.175888 6.13264055 142.427448 6.5706863 143.053227 7.19646595 143.053227 8.32286931 143.053227 9.57442861 142.05198 10.5130981 140.362375 10.5130981 139.548861 10.5130981 138.860504 10.3253642 138.35988 10.0124744L138.67277 9.01122692zM144.555099 9.57442861C144.555099 9.01122692 144.930566 8.63575913 145.43119 8.63575913 145.931814 8.63575913 146.307282 9.01122692 146.307282 9.57442861 146.307282 10.1376303 145.931814 10.5130981 145.368612 10.5130981 144.930566 10.5130981 144.555099 10.0750523 144.555099 9.57442861zM154.817885 6.63326426C154.817885 9.32411675 152.940546 10.4505201 151.250941 10.4505201 149.311024 10.4505201 147.809153 9.01122692 147.809153 6.75842019 147.809153 4.38045753 149.373602 2.94116434 151.376097 2.94116434 153.378592 2.94116434 154.817885 4.4430355 154.817885 6.63326426zM149.060712 6.75842019C149.060712 8.32286931 149.936804 9.51185064 151.250941 9.51185064 152.5025 9.51185064 153.44117 8.32286931 153.44117 6.69584223 153.44117 5.44428293 152.81539 3.94241178 151.250941 3.94241178 149.74907 3.94241178 149.060712 5.38170497 149.060712 6.75842019zM156.757802 5.38170497C156.757802 4.50561346 156.757802 3.81725585 156.695224 3.12889824L157.821627 3.12889824 157.884205 4.56819143 157.946783 4.56819143C158.259673 3.62952196 159.073186 3.00374231 159.949278 3.00374231 160.074434 3.00374231 160.19959 3.00374231 160.324746 3.00374231L160.324746 4.2553016C160.19959 4.2553016 160.074434 4.2553016 159.8867 4.2553016 158.94803 4.2553016 158.322251 4.94365921 158.134517 5.94490665 158.134517 6.13264055 158.071939 6.32037444 158.071939 6.5706863L158.071939 10.3879421 156.757802 10.3879421 156.757802 5.38170497zM167.959257 9.26153878C167.959257 10.9511438 167.646368 11.9523913 166.95801 12.5781709 166.269652 13.2039506 165.205827 13.4542624 164.329735 13.4542624 163.453644 13.4542624 162.514974 13.2665285 161.951773 12.8284828L162.264663 11.8272353C162.765286 12.1401252 163.516222 12.390437 164.392313 12.390437 165.706451 12.390437 166.707698 11.7020794 166.707698 9.88731843L166.707698 9.07380489 166.707698 9.07380489C166.33223 9.7621625 165.518717 10.2627862 164.392313 10.2627862 162.577552 10.2627862 161.325993 8.76091506 161.325993 6.75842019 161.325993 4.31787957 162.890442 2.94116434 164.580047 2.94116434 165.831607 2.94116434 166.519964 3.56694399 166.832854 4.19272364L166.832854 4.19272364 166.895432 3.12889824 168.084413 3.12889824C168.021835 3.62952196 168.021835 4.2553016 168.021835 5.06881514L168.021835 9.26153878 167.959257 9.26153878zM166.64512 5.94490665C166.64512 5.69459479 166.64512 5.5068609 166.582542 5.38170497 166.33223 4.63076939 165.706451 4.00498974 164.767781 4.00498974 163.516222 4.00498974 162.64013 5.06881514 162.64013 6.75842019 162.64013 8.19771338 163.391066 9.32411675 164.767781 9.32411675 165.581295 9.32411675 166.33223 8.82349303 166.582542 8.00997949 166.64512 7.75966763 166.707698 7.50935577 166.707698 7.32162188L166.707698 5.94490665 166.64512 5.94490665z"/>
    </g>
  </g>
</svg>
