<svg xmlns="http://www.w3.org/2000/svg" width="225" height="90" viewBox="0 0 225 90">
  <g transform="translate(0 .138)">
    <path fill="#000000" d="M95.3045564,20.5201198 L103.421404,20.5201198 L103.421404,68.4003993 L95.3045564,68.4003993 L95.3045564,20.5201198 Z M111.538251,20.5201198 L128.091148,20.5201198 C131.693569,20.5201198 134.703186,20.9305222 137.0288,21.7057267 C139.354414,22.4809313 141.224025,23.5753376 142.546432,24.9433456 C143.858632,26.2363705 144.829983,27.8343996 145.373649,29.5945728 C145.92333,31.3820042 146.200049,33.2421704 146.194454,35.112205 C146.203177,37.102153 145.926768,39.0830879 145.373649,40.9946393 C144.834524,42.8369675 143.865526,44.5248999 142.546432,45.9194681 C140.992243,47.4445147 139.102615,48.5845386 137.0288,49.2482875 C134.703186,50.0690923 131.784769,50.4794947 128.227949,50.4794947 L119.518298,50.4794947 L119.518298,68.4003993 L111.538251,68.4003993 L111.538251,20.5201198 L111.538251,20.5201198 Z M128.045548,43.7762556 C129.752647,43.8267435 131.457941,43.6270243 133.107177,43.1834521 C134.261276,42.8782186 135.324877,42.2994946 136.207995,41.4962423 C136.95871,40.7666524 137.508438,39.8556748 137.804005,38.8514268 C138.10482,37.7207182 138.258093,36.5558442 138.260007,35.3858066 C138.286851,34.1990524 138.133093,33.0151153 137.804005,31.8745861 C137.500907,30.9020806 136.932371,30.0334838 136.162395,29.3665715 C135.244513,28.6181931 134.168648,28.0880567 133.015977,27.8161624 C131.39059,27.4151287 129.719249,27.2311279 128.045548,27.2689592 L119.609498,27.2689592 L119.609498,43.7762556 L128.045548,43.7762556 Z M182.720267,20.5201198 L182.720267,27.4969605 L160.284936,27.4969605 L160.284936,41.0402396 L181.397859,41.0402396 L181.397859,48.0626806 L160.284936,48.0626806 L160.284936,68.4003993 L152.168088,68.4003993 L152.168088,20.5201198 L182.720267,20.5201198 Z M194.667537,53.7627139 C195.032339,56.9091323 196.172345,59.1891456 198.041956,60.6027538 C199.911567,62.0163621 202.784384,62.7459663 206.523606,62.7459663 C208.080386,62.7907679 209.63454,62.5907283 211.129233,62.1531629 C212.221645,61.8097957 213.241753,61.2688293 214.13885,60.5571536 C214.871537,59.9221071 215.422331,59.1037845 215.73486,58.1859397 C216.05209,57.2462354 216.206313,56.2592084 216.190862,55.2675227 C216.199981,54.5107363 216.092314,53.7570714 215.87166,53.0331096 C215.620113,52.2755978 215.216687,51.5773598 214.686053,50.9810976 C214.021713,50.2916609 213.23254,49.7345975 212.36044,49.3394881 C211.163404,48.823351 209.907642,48.455811 208.621218,48.2450817 L202.510782,47.105075 C200.325371,46.7179228 198.175069,46.1536592 196.081145,45.4178652 C194.355115,44.8264575 192.748951,43.9307124 191.338717,42.7730497 C190.065852,41.6918892 189.079137,40.3136203 188.4659,38.7602263 C187.781932,36.9081153 187.456941,34.9426921 187.508295,32.9689925 C187.360866,28.9058744 189.305717,25.0505952 192.661125,22.7545328 C194.395876,21.5445547 196.346168,20.6777585 198.406758,20.2009179 C200.766428,19.6374485 203.185656,19.3618402 205.6116,19.3801131 C208.89482,19.3801131 211.676436,19.7449153 213.910849,20.5201198 C215.89811,21.138993 217.742622,22.1464997 219.337281,23.4841371 C220.668066,24.6649527 221.739441,26.1089808 222.483699,27.7249619 C223.196381,29.3226736 223.687328,31.010304 223.942907,32.7409912 L216.282063,33.9265981 C215.643659,31.2361824 214.594853,29.2753709 213.044444,27.9529632 C211.494035,26.6305555 209.077221,25.9921518 205.702801,25.9921518 C204.092425,25.9661339 202.484793,26.1345525 200.914773,26.4937547 C199.799583,26.7603081 198.746583,27.2403523 197.813955,27.9073629 C197.080501,28.4498156 196.499376,29.172295 196.126745,30.0049752 C195.798977,30.7847263 195.628512,31.6215572 195.625142,32.4673896 C195.625142,34.5650018 196.172345,36.1154109 197.312352,37.164217 C198.452359,38.2130231 200.45877,38.9882276 203.331587,39.5810311 L209.943626,40.8578385 C215.005255,41.8154441 218.698877,43.4114535 221.070091,45.6458665 C223.441305,47.8802795 224.626911,51.1634987 224.626911,55.4043235 C224.643068,57.3285133 224.270839,59.236184 223.532505,61.0131562 C222.792256,62.7575648 221.633228,64.2924932 220.158085,65.4819823 C218.485402,66.8410586 216.565193,67.8631053 214.503652,68.4915999 C211.94746,69.2667522 209.285476,69.6360448 206.614806,69.5860063 C200.504371,69.5860063 195.670742,68.3091988 192.205122,65.7099836 C188.739502,63.1107685 186.77869,59.1435453 186.459489,53.7627139 L194.667537,53.7627139 L194.667537,53.7627139 Z"/>
    <path d="M34.5194015,5.51763221 L6.70323914,21.5689259 C6.74883311,22.0694928 6.74883311,22.5731679 6.70323914,23.0737347 L34.4738013,39.1250284 C36.8178681,37.3919585 40.0185805,37.3919585 42.3626473,39.1250284 L70.1332095,23.0737347 C70.0876155,22.5731679 70.0876155,22.0694928 70.1332095,21.5689259 L42.4082476,5.51763221 C40.0641808,7.25070217 36.8634683,7.25070217 34.5194015,5.51763221 Z M72.8236252,27.4969605 L45.0074628,43.7306553 C45.3166818,46.6187608 43.734474,49.3784256 41.0858399,50.5706952 L41.1314401,82.4908816 C41.5811495,82.6892326 42.0090466,82.9337452 42.4082476,83.2204859 L70.1788097,67.1691922 C69.8695907,64.2810867 71.4517985,61.5214219 74.1004326,60.3291522 L74.1004326,28.2265648 C73.6558845,28.018129 73.2288943,27.7741346 72.8236252,27.4969605 L72.8236252,27.4969605 Z M4.05842369,27.6793616 C3.6592227,27.9661022 3.2313256,28.2106149 2.78161624,28.4089659 L2.78161624,60.5115533 C5.46665819,61.6633155 7.06580965,64.4525332 6.70323914,67.3515932 L34.4738013,83.4028869 C34.8730023,83.1161463 35.3008994,82.8716337 35.7506087,82.6732827 L35.7506087,50.5706952 C33.0655668,49.418933 31.4664153,46.6297154 31.8289858,43.7306553 L4.05842369,27.6793616 L4.05842369,27.6793616 Z"/>
    <path fill="#000000" d="M38.4410244,5.01602929 L72.6868244,24.8065448 L72.6868244,64.3419756 L38.4410244,84.1324912 L4.19522449,64.3419756 L4.19522449,24.7609446 L38.4410244,5.01602929 L38.4410244,5.01602929 Z M38.4410244,0.319201864 L0.136800799,22.435331 L0.136800799,66.6675892 L38.4410244,88.7837183 L76.7452481,66.6675892 L76.7452481,22.435331 L38.4410244,0.319201864 Z"/>
    <path fill="#000000" d="M38.714626,51.9843035 L38.1674228,51.9843035 C36.2671881,51.9891635 34.4433819,51.2364491 33.0997087,49.8927759 C31.7560354,48.5491027 31.0033211,46.7252964 31.008181,44.8250617 L31.008181,44.2778585 C31.0033211,42.3776238 31.7560354,40.5538176 33.0997087,39.2101443 C34.4433819,37.8664711 36.2671881,37.1137568 38.1674228,37.1186167 L38.714626,37.1186167 C40.6148607,37.1137568 42.438667,37.8664711 43.7823402,39.2101443 C45.1260134,40.5538176 45.8787278,42.3776238 45.8738678,44.2778585 L45.8738678,44.8250617 C45.8787278,46.7252964 45.1260134,48.5491027 43.7823402,49.8927759 C42.438667,51.2364491 40.6148607,51.9891635 38.714626,51.9843035 L38.714626,51.9843035 Z M38.714626,81.3964752 L38.1674228,81.3964752 C35.5772966,81.3886764 33.1862804,82.7848902 31.9201864,85.0444965 L38.4410244,88.7837183 L44.9618625,85.0444965 C43.6957685,82.7848902 41.3047523,81.3886764 38.714626,81.3964752 L38.714626,81.3964752 Z M76.7908483,59.2803461 L76.5172467,59.2803461 C74.617012,59.2754861 72.7932058,60.0282005 71.4495326,61.3718737 C70.1058593,62.7155469 69.353145,64.5393532 69.3580049,66.4395879 L69.3580049,66.9867911 C69.3514471,68.2021625 69.666062,69.3976994 70.2700103,70.4524113 L76.7908483,66.6675892 L76.7908483,59.2803461 Z M70.2700103,18.6961092 C69.6714081,19.753003 69.3571746,20.9470902 69.3580049,22.1617294 L69.3580049,22.7089326 C69.353145,24.6091673 70.1058593,26.4329735 71.4495326,27.7766468 C72.7932058,29.12032 74.617012,29.8730343 76.5172467,29.8681744 L76.7908483,29.8681744 L76.7908483,22.435331 L70.2700103,18.6961092 Z M38.4410244,0.319201864 L31.9201864,4.05842369 C33.180171,6.32999803 35.5698226,7.74285778 38.1674228,7.75204526 L38.714626,7.75204526 C41.3047523,7.75984409 43.6957685,6.36363027 44.9618625,4.10402396 L38.4410244,0.319201864 Z M6.65763887,18.6505089 L0.136800799,22.435331 L0.136800799,29.8681744 L0.410402396,29.8681744 C2.31063709,29.8730343 4.13444335,29.12032 5.47811658,27.7766468 C6.82178981,26.4329735 7.57450415,24.6091673 7.56964419,22.7089326 L7.56964419,22.1617294 C7.55419368,20.9347743 7.24123752,19.7298931 6.65763887,18.6505089 L6.65763887,18.6505089 Z M0.410402396,59.2803461 L0.136800799,59.2803461 L0.136800799,66.6675892 L6.65763887,70.4524113 C7.25624105,69.3955175 7.57047451,68.2014303 7.56964419,66.9867911 L7.56964419,66.4395879 C7.57450415,64.5393532 6.82178981,62.7155469 5.47811658,61.3718737 C4.13444335,60.0282005 2.31063709,59.2754861 0.410402396,59.2803461 L0.410402396,59.2803461 Z"/>
    <polygon fill="#083B54" fill-opacity=".15" points="38.441 89.012 38.441 44.734 .137 22.618 .137 66.896"/>
    <polygon fill="#083B54" fill-opacity=".05" points="76.791 66.485 76.791 22.253 38.487 44.369 38.487 88.647"/>
  </g>
</svg>
