<svg xmlns="http://www.w3.org/2000/svg" width="222" height="62" viewBox="0 0 222 62">
  <g fill="#000000" fill-rule="evenodd" transform="translate(.235)">
    <path d="M68.120123 40.2148805C69.8114918 41.1713961 72.2329404 41.8467112 74.8624253 41.8467112 80.5386827 41.8467112 83.8171853 38.9208375 83.8171853 34.8132275 83.8171853 31.2907575 81.6394438 29.3102902 77.5267999 27.8135052 74.3641624 26.6092901 72.9856725 25.7427761 72.9856725 23.807353 72.9856725 22.0741512 74.4105952 20.5773662 76.9823645 20.5773662 79.1484761 20.5773662 80.9441669 21.4440538 81.8828037 21.9727802L82.9251549 18.9007517C81.6394438 18.146631 79.5539603 17.4715763 77.0749697 17.4715763 71.9428005 17.4715763 68.8153998 20.5212129 68.8153998 24.2910352 68.8153998 27.0934063 70.8539298 29.4116613 75.1518709 30.9532301 78.3606808 32.1124878 79.6003931 33.1703744 79.6003931 35.195799 79.6003931 37.1765266 78.1174077 38.6733116 74.9551173 38.6733116 72.7885717 38.6733116 70.5065083 37.806624 69.2207104 37.0414809L68.120123 40.2148805zM90.4502187 46.3594582C89.117988 47.3723007 87.7276078 48.0474422 86.580848 48.3849696L87.6694584 51.9524838C88.7118095 51.7611112 90.8433786 51.0296428 93.0330972 49.1953304 96.0108715 46.6969856 98.1424406 42.5894623 101.269494 34.5881803L107.826499 17.9441493 103.204917 17.9441493 98.4436028 31.6959812C97.8525611 33.3390947 97.3543849 35.1621244 96.9022076 36.5124942L96.8102099 36.5124942C96.4040314 35.1170802 95.8129897 33.2827678 95.2688146 31.7409386L90.010192 17.9441493 85.2369874 17.9441493 94.0763163 39.5058039C94.3193291 39.9897465 94.4234774 40.3275342 94.4234774 40.5636906 94.4234774 40.856521 94.2724623 41.1490042 94.0763163 41.5766199 93.079964 43.7484596 91.5967182 45.3916599 90.4502187 46.3594582zM110.810349 41.3064417L115.119486 41.3064417 115.119486 27.2846052C115.119486 26.5645064 115.270501 25.8441471 115.467515 25.3151604 116.266853 22.9069039 118.455704 20.9825032 121.351895 20.9825032 125.441453 20.9825032 126.935982 24.1112057 126.935982 27.9148762L126.935982 41.3064417 131.245119 41.3064417 131.245119 27.3859763C131.245119 19.4407608 126.090644 17.4715763 122.800425 17.4715763 118.803733 17.4715763 116.01169 19.6884602 114.818324 21.8492776L114.668176 21.8492776 114.471163 17.9441493 110.613335 17.9441493C110.717483 19.9248769 110.810349 21.8603 110.810349 24.2686433L110.810349 41.3064417zM135.619348 30.0980855C135.619348 37.0978078 140.032634 41.8467112 147.423693 41.8467112 151.199938 41.8467112 153.933832 41.0252413 155.417077 40.3612957L154.675889 37.3339642C153.030345 38.0092793 151.153939 38.538266 147.967868 38.538266 143.600582 38.538266 139.882487 36.1749669 139.789621 30.4356129L156.610444 30.4356129C156.761459 29.9516703 156.807458 29.3777263 156.807458 28.4548853 156.807458 24.178555 154.721887 17.4829458 146.925517 17.4829458 139.882487 17.4829458 135.619348 23.0192973 135.619348 30.0980855zM139.83562 27.3969987C140.183649 24.471125 142.118204 20.566257 146.531489 20.566257 151.443819 20.566257 152.637185 24.752499 152.590318 27.3969987L139.83562 27.3969987zM161.146103 41.3064417L165.525541 41.3064417 165.525541 28.8713918C165.525541 28.1960767 165.571539 27.4759778 165.721687 26.8906642 166.312728 23.7172647 168.502447 21.4554234 171.572219 21.4554234 172.174543 21.4554234 172.615438 21.5001204 173.066747 21.590469L173.066747 17.6066219C172.67272 17.5276428 172.325558 17.4715763 171.827382 17.4715763 168.896475 17.4715763 166.266729 19.4407608 165.12023 22.6030511L164.969215 22.6030511 164.83035 17.9441493 160.949089 17.9441493C161.100105 20.1724028 161.146103 22.4792882 161.146103 25.2364416L161.146103 41.3064417zM174.208039 30.0980855C174.208039 37.0978078 178.622193 41.8467112 186.013252 41.8467112 189.789497 41.8467112 192.523391 41.0252413 194.006636 40.3612957L193.26458 37.3339642C191.619904 38.0092793 189.743498 38.538266 186.557427 38.538266 182.190141 38.538266 178.471178 36.1749669 178.37918 30.4356129L195.199135 30.4356129C195.35015 29.9516703 195.396149 29.3777263 195.396149 28.4548853 195.396149 24.178555 193.311446 17.4829458 185.515076 17.4829458 178.471178 17.4829458 174.208039 23.0192973 174.208039 30.0980855zM178.425179 27.3969987C178.77234 24.471125 180.706895 20.566257 185.121048 20.566257 190.03251 20.566257 191.225876 24.752499 191.179877 27.3969987L178.425179 27.3969987zM198.078836 29.7715805C198.078836 37.3002895 203.152595 41.8467112 209.490021 41.8467112 215.038523 41.8467112 221.54953 38.313132 221.54953 29.681579 221.54953 22.1980877 216.776065 17.4715763 210.034196 17.4715763 203.546623 17.4715763 198.078836 21.961671 198.078836 29.7715805zM202.504272 29.7715805C202.504272 25.6302959 204.438827 20.7124118 209.791183 20.7124118 215.142672 20.7124118 217.124094 25.67534 217.124094 29.7265364 217.124094 34.4531346 214.552498 38.7407477 209.791183 38.7407477 204.983002 38.7407477 202.504272 34.4080905 202.504272 29.7715805L202.504272 29.7715805zM5.50614849 16.6612155L5.83924956 16.6612155C8.78265487 16.6055829 11.3373266 15.494841 13.5032646 13.3290765 15.6136569 11.0519601 16.6687662 8.44165589 16.6687662 5.49833737 16.6687662 3.99877503 17.2102507 2.70768293 18.2932198 1.62471391 19.3762756.541744883 20.6954009 0 22.2505091 0 23.7497242 0 25.0408163.541744883 26.1237853 1.62471391 27.2068412 2.70768293 27.7484993 3.99877503 27.7484993 5.49833737 27.7484993 6.99755254 27.2348744 8.28890501 26.2071908 9.37187404 25.1798543 10.4548431 23.944308 11.0241005 22.5002047 11.0794727 19.334703 10.9685547 16.6134808 12.0515237 14.3362776 14.3284665 12.0593348 16.6055829 10.9763658 19.2711726 11.0873706 22.3257562 11.1985489 25.491605 12.3371505 28.1294218 14.5028282 30.2397273 16.8912097 32.3501195 19.5567994 33.3777164 22.5002047 33.3221706 23.944308 33.3777164 25.1798543 33.9468002 26.2071908 35.0297692 27.2348744 36.1127382 27.7484993 37.3763178 27.7484993 38.8201608 27.7484993 40.3752689 27.2068412 41.6942207 26.1237853 42.7771897 25.0408163 43.8601587 23.7497242 44.4016432 22.2505091 44.4016432 20.6954009 44.4016432 19.3762756 43.8601587 18.2932198 42.7771897 17.2102507 41.6942207 16.6687662 40.3752689 16.6687662 38.8201608 16.6687662 35.8212097 15.6136569 33.266538 13.5032646 31.1561457 11.3928723 28.9902077 8.83820065 27.8516061 5.83924956 27.7406881 4.78405342 27.7963207 3.88169495 27.6295098 3.13208737 27.2407762 2.38195904 26.8520425 1.77104231 26.310558 1.29925039 25.6163226.827111301 24.9222608.494010233 24.14462.299600022 23.283834.10501623 22.4229613.0634436895 21.5761486.174448449 20.7431356.896456729 18.0219134 2.67348757 16.6612155 5.50614849 16.6612155"/>
    <path d="M5.58165603,33.3233856 C7.0255858,33.3233856 8.28890501,33.8510705 9.37187404,34.906527 C10.4548431,35.9614628 11.0241005,37.2112427 11.079733,38.6550857 C11.0241005,41.7096693 12.0792966,44.3753458 14.2449743,46.6524622 C16.4109991,48.8737724 19.0214769,49.9845143 22.0758002,49.9845143 L22.3257562,49.9845143 C25.3245337,49.9845143 27.9069783,48.8737724 30.0729163,46.6524622 C32.294487,44.4308916 33.377456,41.7653019 33.3218234,38.6550857 C33.2662776,35.600502 32.1279364,33.0180575 29.9066262,30.9076652 C27.7145643,28.8229628 25.1625831,27.7669856 22.2505091,27.7406881 L22.1943557,27.7401674 L22.177692,27.7401674 C22.0886452,27.7397334 21.999338,27.7404278 21.9092497,27.7421636 C20.4654067,27.686531 19.2296,27.1172736 18.2022636,26.0345649 C17.1748403,24.9515959 16.6611287,23.6602435 16.6611287,22.1606811 C16.6611287,20.6612056 17.2024396,19.3698531 18.2854086,18.2868841 C19.2039969,17.368209 20.2924337,16.8395695 21.5505455,16.7000975 C21.6710972,16.6836074 21.7933847,16.6707624 21.9171476,16.6612155 L22.0578346,16.6653814 C22.1193689,16.6636456 22.1806429,16.6626909 22.2423508,16.6626909 C22.327492,16.6626909 22.4121125,16.6644267 22.4957784,16.6678115 C25.3626347,16.6321407 27.8629756,15.5467416 29.9976692,13.4122216 C32.2745252,11.1351052 33.3853539,8.44165589 33.3299817,5.33170004 C33.3299817,4.11004016 33.7462279,2.99895109 34.5792409,1.99938752 L34.6626463,1.91598206 L34.7460518,1.83283698 C34.7460518,1.77720442 34.7739115,1.74943153 34.8291969,1.74943153 L34.9126023,1.66628645 L34.9126023,1.58314137 L34.9957474,1.58314137 L34.9957474,1.49947554 C35.05138,1.49947554 35.0794132,1.47196303 35.0794132,1.41633046 L35.1625583,1.33292501 L35.3291089,1.33292501 C35.3291089,1.27755282 35.3569685,1.24977993 35.4122539,1.24977993 L35.4956594,1.16637448 L35.4956594,1.08296903 L35.6622099,1.08296903 C35.6622099,1.02733646 35.69033,0.999823944 35.7456154,0.999823944 L35.8290208,0.916418491 L35.9121659,0.833013039 L35.9955714,0.833013039 C35.9955714,0.777640845 36.0231707,0.749867958 36.0788032,0.749867958 C36.134349,0.749867958 36.1623823,0.72209507 36.1623823,0.666462506 L36.2455273,0.666462506 L36.3287592,0.583317424 L36.4953097,0.583317424 L36.4953097,0.500172343 L36.5787152,0.500172343 L36.6620339,0.41650652 L36.8286712,0.41650652 L36.8286712,0.333361438 L36.9952217,0.333361438 L37.0786272,0.249955986 L37.2451777,0.249955986 L37.3285832,0.166810904 L37.5782788,0.166810904 L37.6616842,0.0834054522 L37.9116402,0.0834054522 C37.967186,0.0834054522 37.9950457,0.0556325649 37.9950457,0 L39.7442168,0 C39.7442168,0 39.7581901,0.0140600242 39.7857894,0.0415725407 C39.8138226,0.0696057989 39.8553952,0.0834054522 39.9110277,0.0834054522 L40.0775783,0.0834054522 C40.0775783,0.0834054522 40.0913779,0.0972051056 40.1191508,0.125238364 C40.1469237,0.15275088 40.1884962,0.166810904 40.2441288,0.166810904 L40.4106793,0.166810904 L40.4940848,0.249955986 L40.6606353,0.249955986 L40.7440408,0.333361438 L40.9103309,0.333361438 C40.9659635,0.388994003 41.0215093,0.41650652 41.0771418,0.41650652 L41.1605473,0.500172343 L41.3270978,0.500172343 L41.3270978,0.583317424 L41.4105033,0.583317424 L41.4936484,0.666462506 C41.4936484,0.666462506 41.5077084,0.68052253 41.5352209,0.708295417 C41.5632542,0.736068304 41.6048267,0.749867958 41.6604593,0.749867958 L41.7436043,0.833013039 L41.8270098,0.833013039 C41.8270098,0.888645604 41.8826424,0.916418491 41.9933,0.916418491 L42.0769658,0.999823944 L42.0769658,1.08296903 L42.1601109,1.08296903 C42.1601109,1.13860159 42.2157434,1.16637448 42.3266614,1.16637448 C42.3266614,1.22200704 42.3545211,1.24977993 42.4100668,1.24977993 L42.4100668,1.33292501 L42.4934723,1.33292501 L42.5766174,1.41633046 C42.6322499,1.47196303 42.6877957,1.49947554 42.7431679,1.49947554 L42.8265734,1.58314137 C42.8265734,1.63851356 42.854433,1.66628645 42.9099788,1.66628645 L42.9099788,1.74943153 L42.9931239,1.74943153 C42.9931239,1.8050641 43.0071839,1.84663664 43.0346964,1.87440952 C43.0627297,1.90218241 43.076269,1.91598206 43.076269,1.91598206 C43.076269,1.97161463 43.104389,1.99938752 43.1599348,1.99938752 L43.2430799,2.08279297 C43.2430799,2.13842553 43.2571399,2.17999807 43.2846524,2.20751059 C43.3125121,2.23554385 43.3264853,2.2493435 43.3264853,2.2493435 L43.4096304,2.33274895 L43.4927755,2.41589404 L43.4927755,2.58244457 L43.5764413,2.66585002 L43.5764413,2.74925547 L43.6595864,2.74925547 C43.6595864,2.80488804 43.6736464,2.84646058 43.7011589,2.87423347 C43.7290186,2.90183277 43.7427315,2.91580601 43.7427315,2.91580601 C43.7427315,2.97143857 43.7708515,2.99895109 43.8261369,2.99895109 L43.8261369,3.08235654 C43.8261369,3.13772874 43.840197,3.17982202 43.8679699,3.20733453 C43.8955692,3.23519421 43.9095424,3.24890708 43.9095424,3.24890708 L43.9929478,3.33231253 C43.9929478,3.44331729 44.0205472,3.49886306 44.0760929,3.49886306 L44.0760929,3.58226851 C44.0760929,3.63790108 44.0901529,3.67947362 44.1176655,3.70698614 C44.1457855,3.73510618 44.159238,3.74881905 44.159238,3.74881905 L44.159238,3.91536958 L44.2429038,3.99877503 L44.2429038,4.16532557 L44.2429038,4.24873102 C44.298276,4.30436358 44.3260489,4.35973578 44.3260489,4.41528155 L44.3260489,4.58183209 L44.3260489,4.66523754 C44.3816815,4.7208701 44.4094544,4.77650267 44.4094544,4.83178807 L44.4094544,4.91519352 L44.4094544,5.08174406 L44.4094544,5.24838138 L44.4094544,5.41493192 L44.4094544,5.49833737 C44.4094544,8.44165589 45.4646505,11.0519601 47.5750428,13.3290765 C49.7409808,15.494841 52.3234254,16.6055829 55.3224633,16.6612155 C56.8219388,16.6055829 58.1546035,17.1192945 59.3209779,18.2022636 C60.487092,19.2852326 61.0701491,20.6041844 61.0701491,22.1592057 C61.0701491,23.7140534 60.528925,25.0330052 59.4459559,26.1159742 C58.3629869,27.1989432 57.0718948,27.7406881 55.5721589,27.7406881 C54.0726833,27.7406881 52.7815045,27.2269765 51.6985354,26.19964 C50.6155664,25.1719564 50.046309,23.9084636 49.9906764,22.4089881 C50.046309,19.354578 48.9357407,16.6612155 46.6586243,14.3284665 C44.4370537,12.1071563 41.7436043,11.0241005 38.5781027,11.0794727 C35.5790648,11.1907378 33.0242196,12.3292526 30.9138273,14.4952774 C28.803435,16.6055829 27.7484993,19.1599942 27.7484993,22.1592057 C27.7484993,22.2460827 27.7468502,22.3319183 27.7433786,22.4175803 C27.8034375,25.256143 28.8573318,27.7807852 30.9061898,29.9912467 C33.0721278,32.1572715 35.6546592,33.2682738 38.6536103,33.3233856 C40.6527374,33.2126413 42.1800726,33.934476 43.2352688,35.4893237 C44.2903781,36.9887992 44.6237395,38.5719406 44.2348323,40.2377063 C43.4573651,43.0145611 41.6801607,44.4031187 38.9033059,44.4031187 L38.6536103,44.4031187 C35.543394,44.5140366 32.9609495,45.6526382 30.9061898,47.8185763 C28.7958843,49.9289686 27.7406881,52.5114131 27.7406881,55.5659968 C27.7406881,57.0654723 27.1992036,58.3568248 26.1162346,59.4397938 C25.0331788,60.5228496 23.7418263,61.0640738 22.2423508,61.0640738 L22.0758002,61.0640738 C20.5763247,61.0640738 19.2990322,60.5228496 18.2438361,59.4397938 C17.18864,58.3568248 16.6611287,57.0654723 16.6611287,55.5659968 C16.6611287,52.5114131 15.605759,49.9289686 13.4953667,47.8185763 C11.3850612,45.6526382 8.83038952,44.5140366 5.83135165,44.4031187 C4.22095813,44.4584909 2.84646058,43.9447792 1.70785899,42.8618102 C0.5692574,41.7788412 0,40.4323769 0,38.8216362 C0,37.3221607 0.541484513,36.0310686 1.62445354,34.9480996 C2.70742256,33.8651305 4.02654792,33.3233856 5.58165603,33.3233856"/>
  </g>
</svg>
