<svg xmlns="http://www.w3.org/2000/svg" width="189" height="85" viewBox="0 0 189 85">
  <g fill="#000000" transform="matrix(1 0 0 -1 0 85)">
    <path d="M23.2079033 83.5860575C22.9478826 82.8048075 22.5828295 80.4423075 22.4094408 78.4181408L22.0900974 74.6885575 17.0861767 75.0564742C11.0178196 75.5031408 6.31996234 73.0339742 4.02057335 68.1885575 1.99777379 63.9260575 1.98769935 62.1060575 3.96562181 58.2785575 5.61762335 55.0818908 11.9671908 51.3952242 14.8505231 51.9585575 17.1927077 52.4164742 17.9151956 54.9752242 15.7023137 54.9752242 14.7036943 54.9752242 12.5083802 56.3606408 10.8049656 58.0652242 5.11073701 63.7648075 7.50445948 72.0243908 14.8505231 72.0243908 20.2408115 72.0243908 21.5205996 70.2131408 22.3790509 61.3689742 22.9374751 55.6143908 23.5719989 53.3768908 24.6451359 53.3768908 26.9874454 53.3768908 27.585876 81.7868908 25.2840308 83.6985575 24.0063659 84.7593908 23.5911903 84.7368908 23.2079033 83.5860575M86.9262976 75.8981408C80.1127227 72.8314742 76.9080487 63.8098075 80.7055333 58.3852242 83.0730289 55.0027242 87.7780465 52.8443908 92.7819672 52.8443908 98.3179187 52.8443908 99.2849826 54.5577242 94.2723196 55.4860575 90.1201478 56.2548075 84.3710509 60.7223075 84.3710509 63.1802242 84.3710509 65.3648075 89.6946897 66.9848075 95.0174958 66.4210575 101.085894 65.7777242 102.470091 66.3039742 102.470091 69.2539742 102.470091 74.9527242 93.4205707 78.8206408 86.9262976 75.8981408L86.9262976 75.8981408zM94.9900201 72.5573075C96.9732712 70.1598075 95.4433703 67.7623075 91.9302183 67.7623075 87.8846192 67.7623075 84.8651985 70.5473075 86.6161544 72.6639742 88.2559584 74.6464742 93.3152469 74.5818908 94.9900201 72.5573075L94.9900201 72.5573075zM29.4268775 73.0902242C29.7816897 71.3393908 32.0736269 65.8443908 34.493035 60.9423075 38.7009077 52.4181408 38.8303769 51.8648075 37.2079326 49.3277242 36.1668507 47.6998075 34.0139575 46.3877242 31.6718145 45.9543908 27.0938099 45.1068908 26.6555714 43.2539742 31.0330445 43.2539742 36.1136892 43.2539742 39.9393989 47.9423075 46.0748218 61.6885575 49.1662623 68.6148075 51.4001258 74.5410575 51.0479363 74.8827242 49.6266897 76.2639742 47.3607712 74.1556408 46.7167557 70.8523075 45.9482667 66.9098075 42.1266368 60.3031408 40.6146368 60.3031408 40.0272381 60.3031408 38.3291522 63.0735575 36.8264357 66.4835575 32.7409967 75.7539742 28.0350216 79.9556408 29.4268775 73.0902242M59.35228 75.3352242L54.0290575 74.6885575 53.6968504 66.1639742C53.3105245 56.2539742 53.9403857 52.8443908 56.1584297 52.8443908 57.3802689 52.8443908 57.7553549 54.2827242 57.7553549 58.9710575 57.7553549 62.3810575 58.2511676 66.8702242 58.8731192 69.0943908 59.8868086 72.7168908 60.3289187 73.0902242 63.6110245 73.0902242 68.8747161 73.0902242 70.531172 70.1064742 70.531172 60.6227242 70.531172 53.5898075 70.7351588 52.8443908 72.660128 52.8443908 74.6350531 52.8443908 74.7895002 53.5368908 74.7895002 62.3810575 74.7895002 71.4385575 74.6504562 72.0268908 72.0215245 74.0839742 69.0712095 76.3927242 68.5079562 76.4481408 59.35228 75.3352242M121.420463 73.6068908C116.310386 70.8198075 113.741817 63.0231408 116.33578 58.1718908 117.889826 55.2660575 122.911232 52.8443908 127.382705 52.8443908 130.044108 52.8443908 132.17348 53.7810575 134.834883 56.1227242 139.604428 60.3193908 140.271339 62.7539742 138.169859 68.2948075 136.876417 71.7048075 135.587553 73.1768908 133.131802 74.0489742 128.660328 75.6373075 124.88241 75.4943908 121.420463 73.6068908L121.420463 73.6068908zM129.618234 72.0285575C132.965698 70.7639742 135.80278 64.6718908 134.830304 60.8360575 134.073888 57.8523075 130.678965 54.9752242 127.914736 54.9752242 126.922278 54.9752242 124.614729 56.2206408 122.804659 57.7331408 118.333185 61.4693908 118.087569 67.5098075 122.272212 70.8210575 125.494787 73.3706408 125.891936 73.4356408 129.618234 72.0285575L129.618234 72.0285575zM145.481328 74.2623075C145.249033 74.0298075 145.055454 69.0406408 145.055454 63.2868908 145.055454 53.8031408 145.243621 52.7698075 146.918811 53.0573075 148.409163 53.3131408 148.837119 54.6556408 149.057758 59.7702242 149.448663 68.8277242 150.112661 70.8718908 153.040496 72.0335575 154.530848 72.6252242 155.701899 73.5118908 155.701899 74.0489742 155.701899 74.9014742 146.315593 75.0973075 145.481328 74.2623075"/>
    <path d="M164.484987,72.9835575 C161.717011,71.1931408 161.035945,70.0743908 161.078408,67.3893908 C161.107132,65.5777242 161.842317,63.0760575 162.675333,61.9548075 C163.547897,60.7802242 164.218972,58.8114742 164.218972,57.4260575 C164.218972,54.8418908 164.431701,54.7543908 171.351848,54.5073075 C176.568914,54.3206408 179.124161,52.5127242 179.124161,49.0081408 C179.124161,45.4677242 175.929894,44.2164742 167.625967,44.5031408 C158.49402,44.8185575 135.899778,41.2539742 116.203813,36.3909325 C87.2460156,29.2410158 86.8580245,29.2149742 63.0785773,32.8417658 C46.3637337,35.3910992 39.9323218,35.9171408 30.0748894,35.5416408 C13.9987326,34.9291825 10.9168253,33.4978492 6.75936653,24.7130158 C2.72484098,16.1882658 -0.19999647,6.64872417 0.58447842,4.5735575 C1.37494802,2.48222833 7.82401102,0.630990833 14.3182841,0.630990833 C20.8322482,0.630990833 37.9532337,3.21922417 49.877302,6.00647417 C54.9873791,7.20114083 60.5041808,7.93584917 62.013683,7.62301583 C72.803335,5.3871825 105.557368,2.43893667 120.568714,2.352345 C138.348452,2.249645 144.391456,3.03772417 157.192668,7.1291825 C175.929894,13.1178075 190.552417,26.3370575 188.312309,35.2621825 C187.736566,37.5554742 183.275917,41.3360575 179.762765,42.5081408 C179.220326,42.6889742 180.02878,44.0531408 181.625705,45.6514742 C183.22263,47.2498075 184.446967,49.0764742 184.446967,49.8606408 C184.446967,52.5173075 181.678991,55.1193908 178.059267,55.8652242 C173.374648,56.8306408 172.926709,59.2906408 176.994789,61.7085575 C179.451372,63.1685575 180.188639,64.4056408 180.188639,67.0698075 C180.188639,68.9877242 180.924657,71.5785575 181.83885,72.8768908 L183.489062,75.2210575 L175.717165,75.2210575 C169.648767,75.2210575 167.186771,74.7306408 164.484987,72.9835575 L164.484987,72.9835575 Z M174.013668,71.2735575 C176.625115,68.9239742 176.462342,64.9356408 173.694366,63.4448075 C169.682071,61.2843908 163.962947,67.0160575 165.665196,71.4914742 C166.471152,73.6102242 171.564994,73.4773075 174.013668,71.2735575 L174.013668,71.2735575 Z M180.082066,38.2351408 C184.494842,34.9472242 184.296683,30.4670992 179.502577,25.1391408 C174.996135,20.1309742 165.821725,13.8722242 161.344423,12.7519325 L158.469875,12.0326825 L160.817388,15.9752242 C163.990007,21.3031825 163.823903,23.3601408 159.960643,26.6034742 C155.652776,30.2195158 151.6563,31.1580158 134.515582,32.5788908 C126.637529,33.2320575 119.974654,33.9389325 119.770251,34.1433492 C119.566265,34.3476408 122.911232,35.2698075 127.16956,36.1830575 C133.938174,37.6347242 139.732232,38.5597242 154.104974,40.4823075 C155.847187,40.7156408 161.823584,40.7885575 167.253379,40.6435575 C175.238005,40.4298075 177.776183,39.9530992 180.082066,38.2351408 L180.082066,38.2351408 Z M55.5194099,31.5933908 C63.3978791,30.4416825 70.0003901,29.2932658 70.2647403,29.0284742 C70.527009,28.7662658 67.922639,27.9698492 64.5160597,27.2703075 C60.3772095,26.4205575 52.7514341,26.1786825 41.7856875,26.5493075 C25.6034159,27.0963075 17.2992388,28.4610575 17.2992388,30.5735575 C17.2992388,34.1436825 34.865748,34.6124325 55.5194099,31.5933908 L55.5194099,31.5933908 Z M121.633608,31.1064325 C121.633608,30.8712242 118.173326,29.8920575 113.914998,28.9220158 C109.677901,27.9568492 94.9109231,23.3907658 81.1772007,18.7989742 C67.4434782,14.2073075 50.3960112,9.13376583 43.3830289,7.55122417 C29.1166095,4.33201583 11.9453767,2.9783075 7.50445948,4.7229325 L4.63003591,5.85234917 L6.56537093,12.5653908 C9.0231619,21.0899742 11.6103804,27.2703075 12.7212341,27.2703075 C13.1858245,27.2703075 16.2345526,26.5575992 19.4285278,25.7022658 C27.3642381,23.5772658 56.6908769,23.5691408 70.9566302,25.6881408 C89.800846,28.4869325 102.921776,30.3878075 106.196388,30.7932658 C110.987163,31.3865158 121.633608,31.6025158 121.633608,31.1064325 L121.633608,31.1064325 Z M141.329157,29.4870992 C150.059375,28.2335158 156.766377,26.3443908 156.766377,25.1391408 C156.766377,21.6578492 123.230533,19.9249325 113.116535,22.8837658 C106.850811,24.7165992 108.964364,25.7258908 127.488861,29.7468908 C131.039897,30.5175575 134.622154,30.4503075 141.329157,29.4870992 L141.329157,29.4870992 Z M112.584088,20.3404742 C124.082282,18.4520992 142.310375,18.2750158 150.698394,19.9701825 C153.998401,20.6371825 157.057787,20.9119325 157.405397,20.5723908 C158.802082,19.2078075 153.253225,12.3495992 148.675179,9.78201583 C140.012817,4.9238075 128.553756,3.52047417 108.645062,4.8801825 C99.0630949,5.53464083 87.0003989,6.52926583 81.7096478,7.10122417 C64.1430553,9.0003075 62.3275729,9.82014083 70.531172,12.1475992 C72.5801985,12.7289742 79.0482447,14.8948075 84.903498,16.9604325 C100.766593,22.5564325 99.8057734,22.4390992 112.584088,20.3404742 L112.584088,20.3404742 Z"/>
    <path d="M107.064372,56.5735575 C106.695947,55.6143908 106.921582,54.3560575 107.580168,53.6964742 C109.211646,52.0635575 112.244388,53.5898075 111.81435,55.8277242 C111.343516,58.2785575 107.925696,58.8152242 107.064372,56.5735575"/>
  </g>
</svg>
