<svg xmlns="http://www.w3.org/2000/svg" width="184" height="96" viewBox="0 0 184 96">
  <g fill-rule="evenodd">
    <path d="M24.4818791,27.9878109 C24.1536645,27.9208841 23.9411176,27.5972126 24.0145109,27.2758488 C25.5413843,20.6071183 28.639167,16.2288978 32.9957617,14.5972701 C36.742928,13.1935394 40.7959975,14.267252 45.0431187,17.7855215 L49.7972406,21.9130552 C50.0456034,22.1285478 50.0690892,22.5012605 49.8494966,22.7450238 L49.8494966,22.7453123 C49.629904,22.9893641 49.2509012,23.0121538 49.0028319,22.7966613 L44.2592787,18.6780704 C40.3805916,15.4655868 36.7317722,14.4602433 33.423204,15.698965 C29.4605551,17.1831809 26.6193845,21.2697508 25.1855737,27.5343245 C25.1136483,27.8481878 24.8024609,28.0532952 24.4818791,27.9878109"/>
    <path d="M37.1505383,95 C34.9014655,95 32.4946093,94.3828694 30.0280354,93.1591075 C19.6180454,87.9945758 9.55913103,73.2248551 4.40116374,55.5305302 C-3.52430768,28.3420764 -0.513249136,5.28104829 11.5599657,0.696899355 C15.7410807,-0.890549598 20.2585467,0.236967884 24.9949775,4.04912024 C25.2552178,4.25852468 25.291224,4.64729364 25.0754793,4.90190377 L25.0748938,4.90277871 C24.8650038,5.15097255 24.4941102,5.17780432 24.2406029,4.97423287 C19.8598435,1.45110531 15.7390316,0.385417547 11.9861859,1.81041765 C0.509855046,6.16824647 -2.19676048,28.6208935 5.5501434,55.1983412 C10.6194124,72.5867257 20.4365288,87.0685882 30.5611034,92.0919615 C34.243693,93.9197298 37.7447877,94.2953745 40.6861756,93.1777731 C44.9050533,91.5757417 48.1362475,86.9166388 49.8206371,80.0267078 C49.8979188,79.7105596 50.212022,79.5093214 50.5302235,79.5813588 C50.8563288,79.6551462 51.0621206,79.9861685 50.9830825,80.3098996 C49.2015054,87.5920993 45.7094854,92.5463516 41.1121031,94.2921663 C39.8673995,94.7649304 38.5386814,95 37.1505383,95"/>
    <path d="M54.8587254 96C47.060685 96 37.6169618 87.4097909 31.0595992 73.8640642 30.914175 73.5638364 31.0442603 73.1985201 31.3477928 73.0566156L31.3483827 73.0563224C31.6471955 72.9167634 32.0014642 73.0457675 32.1445286 73.3415974 39.4272423 88.3937406 50.1992517 97.1724716 57.8875603 94.2593238 61.4060588 92.9267698 65.2935748 88.0811988 65.7959225 81.6257149 65.8209956 81.3014454 66.0926704 81.0519397 66.4195062 81.0663061 66.757551 81.0812588 67.0242112 81.3721045 66.9982531 81.7075152 66.4587382 88.6623038 62.1862758 93.9142378 58.3170484 95.3796074 57.2141253 95.7971117 56.0557464 96 54.8587254 96M22 62.2103908L22 35.7392124C22 33.6493826 22.3348154 32.1705115 23.0044461 31.3020146 23.6740768 30.4341023 24.7793496 30 26.3220283 30 27.864707 30 28.9699798 30.4384872 29.6396105 31.3148769 30.3092412 32.1915589 30.6440566 33.6660451 30.6440566 35.7392124L30.6440566 45.7513362C30.6440566 46.5435364 30.7334191 47.0659208 30.9109682 47.3187817 31.0891053 47.5716426 31.3983465 47.697927 31.8395738 47.697927 32.5341907 47.697927 33.2123461 46.7712574 33.8734521 44.9170413L38.5514606 31.7697342C38.7545839 31.1801151 38.9659379 30.7714451 39.1864046 30.5434318 39.4071652 30.3162954 39.6864229 30.2022887 40.0259416 30.2022887 40.4836304 30.2022887 40.8557781 30.3329579 41.1444424 30.594004 41.4325188 30.855927 41.5762631 31.2137325 41.5762631 31.6688822 41.5762631 31.7697342 41.5512769 31.9085885 41.5004226 32.0860296 41.4495683 32.2625938 41.3728459 32.4862223 41.2714312 32.756038L38.8307184 39.481262 38.8054382 39.5318342C38.5006063 40.357944 38.3480434 40.9221308 38.3480434 41.225564 38.3480434 41.360618 38.449752 41.7231007 38.6531692 42.3127198 38.7375344 42.5655808 38.813375 42.7851167 38.8815727 42.9701583L45.2124931 60.8700816 45.2374793 60.8958062C45.7460224 62.294288 46 63.3142091 46 63.9544004 46 65.1517627 45.5761161 66.1249119 44.7289362 66.8751342 43.8817564 67.6249473 42.7967665 68 41.4745545 68 40.5086166 68 39.7034723 67.6717193 39.0597097 67.0142808 38.4150652 66.3568424 37.8136322 65.2187051 37.2542348 63.6006874L33.8734521 53.563716 33.8475841 53.5131438C33.2373324 51.7097923 32.5677016 50.8079703 31.8395738 50.8079703 31.3983465 50.8079703 31.0891053 50.9213923 30.9109682 51.1494057 30.7334191 51.376542 30.6440566 51.9036036 30.6440566 52.7294211L30.6440566 62.2103908C30.6440566 64.3008053 30.3092412 65.7872768 29.6396105 66.6728455 28.9699798 67.557128 27.864707 68 26.3220283 68 24.796693 68 23.6952416 67.557128 23.0170862 66.6728455 22.3386368 65.7872768 22 64.3008053 22 62.2103908M48 62.2103908L48 35.7392124C48 33.6660451 48.3514255 32.1915589 49.0545737 31.3148769 49.7574246 30.4384872 50.9139771 30 52.5257177 30 54.1374583 30 55.2853887 30.4341023 55.97159 31.3020146 56.657494 32.1705115 57 33.6493826 57 35.7392124L57 62.2103908C57 64.2835581 56.6527369 65.7671064 55.9588055 66.6602755 55.263982 67.5533277 54.1199168 68 52.5257177 68 50.8973275 68 49.736018 67.5618052 49.0411945 66.6851231 48.3472631 65.8092012 48 64.3171755 48 62.2103908M79 38.1410343L79 41.4025345C79 43.4757226 78.6808269 44.9592857 78.0427683 45.8523468 77.403847 46.7457003 76.3638028 47.192377 74.9214855 47.192377 73.4788807 47.192377 72.4382614 46.7457003 71.8002028 45.8523468 71.1618566 44.9592857 70.8429711 43.4757226 70.8429711 41.4025345L70.8429711 38.6973339C70.8429711 36.8433916 70.5321367 35.5410717 69.9101805 34.7909588 69.2887994 34.0411382 68.2565189 33.6657894 66.8139141 33.6657894 65.3885618 33.6657894 64.3600194 34.0791408 63.7302995 34.9046742 63.1005796 35.7310847 62.7851446 37.0962551 62.7851446 39.0007701L62.7851446 58.6454842C62.7851446 60.5502915 63.1005796 61.911077 63.7302995 62.7287176 64.3600194 63.5463582 65.3885618 63.95474 66.8139141 63.95474 68.2565189 63.95474 69.2887994 63.5843608 69.9101805 62.8421407 70.5321367 62.1007977 70.8429711 60.803155 70.8429711 58.9489203L70.8429711 56.4711507C70.8429711 54.3979626 71.1581186 52.9190768 71.7878384 52.0339085 72.4175583 51.1493248 73.4622032 50.7067407 74.9214855 50.7067407 76.3799053 50.7067407 77.4245501 51.1493248 78.0548451 52.0339085 78.6848525 52.9190768 79 54.3979626 79 56.4711507L79 59.884369C79 62.6486198 78.2371476 64.6922828 76.7120178 66.015358 75.186888 67.3387547 72.8408221 68 69.674395 68 66.4076154 68 63.9790245 67.2376093 62.3871846 65.7119218 60.7956324 64.1865558 60 61.8651815 60 58.7466296L60 39.228201C60 36.0929864 60.7872936 33.7713197 62.3627435 32.2626164 63.9376182 30.7544978 66.3578704 30 69.62465 30 72.8080421 30 75.1661849 30.6659225 76.6996534 31.9971829 78.233122 33.3290279 79 35.3770758 79 38.1410343M88.30077 36.5666341C88.30077 35.5838547 88.1640041 34.9569802 87.890185 34.6857166 87.6172279 34.414747 87.0086772 34.2789682 86.0633835 34.2789682L82.0385588 34.2789682C81.2762901 34.2789682 80.7461786 34.1605292 80.4482243 33.9230634 80.1499828 33.6861853 80 33.270914 80 32.6775433 80 32.0674207 80.153718 31.6353974 80.4602919 31.3811797 80.7668659 31.1269619 81.2920929 31 82.0385588 31L102.961729 31C103.707907 31 104.233134 31.1269619 104.539708 31.3811797 104.846569 31.6353974 105 32.0674207 105 32.6775433 105 33.270914 104.846569 33.6861853 104.539708 33.9230634 104.233134 34.1605292 103.707907 34.2789682 102.961729 34.2789682L98.9366165 34.2789682C97.9916102 34.2789682 97.3830594 34.4232699 97.1101023 34.7109915 96.8362832 34.9993008 96.6995173 35.6179464 96.6995173 36.5666341L96.7497989 63.1798535C96.7497989 63.2133573 96.7406045 63.2556779 96.7245144 63.3065215 96.7078497 63.357365 96.6995173 63.4002735 96.6995173 63.4340712 96.6995173 65.5010232 96.3889208 66.9455091 95.7680152 67.7674112 95.1465349 68.589431 94.0989541 69 92.6238363 69 91.1001609 69 89.9982761 68.5512248 89.3193311 67.6533806 88.6395242 66.755654 88.30077 65.2641452 88.30077 63.1798535L88.30077 36.5666341zM108.509175 57.0780862L113.512481 57.0780862C114.036981 57.0780862 114.44783 56.9436166 114.744146 56.6735081 115.040462 56.4039842 115.188766 56.041501 115.188766 55.5863506 115.188766 55.451881 115.095966 55.1651099 114.909777 54.7269144 114.824612 54.5246253 114.756774 54.3559537 114.706555 54.2211917L112.776243 48.9116885C112.521628 48.136442 112.258791 47.597102 111.988612 47.2936684 111.717258 46.9902348 111.395393 46.838518 111.023309 46.838518 110.650638 46.838518 110.324661 46.9987122 110.045672 47.3188084 109.765801 47.6394891 109.49944 48.1703518 109.245413 48.9116885L107.3151 54.2463317C107.28074 54.3474762 107.222006 54.499193 107.136841 54.7014821 106.950946 55.1566325 106.857851 55.451881 106.857851 55.5863506 106.857851 56.041501 107.005569 56.4039842 107.302472 56.6735081 107.598788 56.9436166 108.00112 57.0780862 108.509175 57.0780862L108.509175 57.0780862zM106.807046 59.985553C106.197381 59.985553 105.723099 60.1457472 105.384788 60.465551 105.045595 60.7862318 104.656185 61.5866183 104.216263 62.8678798L102.997226 66.2051231C102.776678 66.7950354 102.556423 67.2080909 102.336756 67.4437051 102.116207 67.6801962 101.853664 67.7977109 101.548831 67.7977109 101.07543 67.7977109 100.698648 67.6679185 100.418778 67.4057028 100.139788 67.1449487 100 66.7950354 100 66.3568399 100 66.2387405 100.024962 66.0784878 100.076649 65.8761987 100.126573 65.6739097 100.203222 65.4552504 100.304833 65.2187593L112.268189 32.0734629C112.521628 31.3318338 112.796506 30.8009711 113.093703 30.4805827 113.389726 30.1604866 113.740665 30 114.147108 30 114.519779 30 114.849574 30.1604866 115.137961 30.4805827 115.425761 30.8009711 115.696821 31.3318338 115.950848 32.0734629L126.262881 60.8701291C126.533354 61.6287131 126.723947 62.235288 126.834368 62.6904383 126.944496 63.1455887 127 63.5671217 127 63.954745 127 65.1518168 126.576524 66.1249675 125.729277 66.8751325 124.882911 67.6249467 123.790154 68 122.453061 68 121.504204 68 120.704826 67.6717188 120.053166 67.0142793 119.400331 66.3568399 118.795658 65.2187593 118.236798 63.6007391L117.982771 62.8678798C117.559295 61.6371905 117.178695 60.8490817 116.84009 60.5038456 116.500897 60.1583172 116.018099 59.985553 115.391988 59.985553L106.807046 59.985553zM129 51.4678927L129 50.4865368C129 48.7754921 129.161015 47.4630414 129.48334 46.5486028 129.80449 45.6341642 130.321326 44.7828606 131.032967 43.9944009 131.947934 42.9877329 133.074455 42.2370961 134.413116 41.7419085 135.75119 41.2475938 137.31874 41 139.114885 41 140.60516 41 141.943821 41.1931872 143.1294 41.5786886 144.315567 41.9644811 145.349239 42.5434606 146.230417 43.3150455 147.229711 44.1704224 147.941353 45.1308302 148.365047 46.196269 148.788153 47.2617078 149 49.0190127 149 51.4678927L149 62.2377857C149 64.3183299 148.665335 65.7977828 147.996004 66.6791119 147.326673 67.55951 146.221014 68 144.679908 68 143.137921 68 142.032262 67.55951 141.363813 66.6791119 140.694482 65.7977828 140.359817 64.3183299 140.359817 62.2377857L140.359817 51.2665591C140.359817 48.8508468 140.050126 47.1901355 139.432509 46.2841343 138.81401 45.378424 137.767703 44.9254234 136.293883 44.9254234 135.09038 44.9254234 134.112241 45.315289 133.358289 46.0956022 132.604631 46.8753335 132.227655 47.8948031 132.227655 49.1528472 132.227655 50.6122248 133.091791 51.8202265 134.819768 52.7762701 135.429747 53.0954363 135.88723 53.3636871 136.19222 53.5816045 136.734031 53.9508131 137.119528 54.4622936 137.34871 55.1166278 137.577011 55.770962 137.691896 56.7857765 137.691896 58.1613621L137.691896 62.2377857C137.691896 64.3183299 137.35253 65.7977828 136.675266 66.6791119 135.997414 67.55951 134.879415 68 133.320973 68 131.796028 68 130.694482 67.55951 130.01663 66.6791119 129.339367 65.7977828 129 64.3183299 129 62.2377857L129 51.4678927zM158.746451 53.0532753L162.48137 53.0532753C163.794062 53.0532753 164.854802 52.667773 165.665366 51.8958955 166.475337 51.124309 166.880471 50.1010549 166.880471 48.8258424 166.880471 47.6853374 166.509049 46.7586772 165.767684 46.0455706 165.025727 45.3324641 164.066418 44.9757653 162.890643 44.9757653 161.594511 44.9757653 160.579312 45.3449747 159.846522 46.0831026 159.113142 46.8212304 158.746451 47.8444844 158.746451 49.1528647L158.746451 53.0532753zM150 50.2348897C150 47.1482527 150.831263 44.8375664 152.493198 43.3022489 154.156021 41.7675133 156.640643 41 159.948841 41 163.120416 41 165.588183 41.6965227 167.353324 43.0884042 169.117873 44.4811586 170 46.4101249 170 48.8761759 170 50.9733085 169.343802 52.6759194 168.03111 53.9842997 166.71753 55.292971 165.039035 55.9470157 162.992962 55.9470157L157.595813 55.9470157C156.16365 55.9470157 155.013012 56.3077876 154.142714 57.0290406 153.273894 57.7505846 152.838597 58.6984839 152.838597 59.8724475 152.838597 61.2142865 153.247871 62.3300611 154.066418 63.2188985 154.884966 64.1086087 155.907854 64.552882 157.135675 64.552882 158.175124 64.552882 159.019399 64.2974321 159.667317 63.7847868 160.315531 63.2738871 160.937426 62.2968934 161.534776 60.8535145 162.062633 59.5451342 162.659983 58.6481503 163.325053 58.1613991 163.990123 57.6752298 164.876094 57.4317087 165.985037 57.4317087 167.041933 57.4317087 167.932635 57.8343768 168.65744 58.6397129 169.382245 59.4447581 169.745091 60.4508464 169.745091 61.6588507 169.745091 63.3870648 168.793471 64.8758311 166.893187 66.1254405 164.99172 67.3750498 162.659983 68 159.897682 68 156.606636 68 154.134138 67.2327777 152.480778 65.6974602 150.826532 64.1627245 150 61.8601847 150 58.7904225L150 50.2348897zM178.322719 36.847515C178.322719 36.1894438 178.438848 35.7171776 178.669623 35.4304236 178.901288 35.1436696 179.273437 35 179.787258 35 180.369094 35 180.797378 35.1480587 181.071812 35.4432983 181.345058 35.7382452 181.482572 36.2067076 181.482572 36.847515L181.482572 41.9341796 181.842247 41.9341796C182.595456 41.9341796 183.143433 42.060878 183.486476 42.3139823 183.828627 42.566794 184 42.9635679 184 43.5034262 184 44.0432844 183.833379 44.4356692 183.49895 44.6799953 183.165411 44.9249066 182.612979 45.0469234 181.842247 45.0469234L181.482572 45.0469234 181.482572 62.2053456C181.482572 64.2974793 181.144282 65.785674 180.467701 66.6715683 179.791417 67.5569944 178.673781 68 177.115684 68 175.556993 68 174.439655 67.5569944 173.763668 66.6715683 173.087087 65.785674 172.748796 64.2974793 172.748796 62.2053456L172.748796 45.0469234 172.157753 45.0469234C171.404544 45.0469234 170.856567 44.9205175 170.513524 44.6674133 170.171373 44.414309 170 44.0266059 170 43.5034262 170 42.9465967 170.167512 42.546019 170.50105 42.3011076 170.83548 42.0567815 171.387912 41.9341796 172.157753 41.9341796L173.648429 41.9341796C175.411757 41.9008225 176.632157 41.5590586 177.308738 40.909473 177.984428 40.26018 178.322719 39.116968 178.322719 37.4801294L178.322719 36.847515z"/>
    <polygon points="43 72 44.893 72 44.893 73.942 46.554 72 48.776 72 46.666 74.259 49 78 46.73 78 45.343 75.608 44.893 76.1 44.893 78 43 78"/>
    <polygon points="50 78 50 72 54.884 72 54.884 73.4 51.963 73.4 51.963 74.259 54.434 74.259 54.434 75.659 51.963 75.659 51.963 76.6 55 76.6 55 78"/>
    <polygon points="60.127 75.275 60.049 73.909 60.049 72 62 72 62 78 60.093 78 57.874 74.733 57.952 76.1 57.952 78 56 78 56 72 57.908 72"/>
    <polygon points="66.917 78 65.083 78 65.083 75.816 63 72 65.051 72 66.015 74.033 66.979 72 69 72 66.917 75.783"/>
    <path d="M70.9844818,73.8088449 L70.4055976,75.958103 L71.5877517,75.958103 L70.9844818,73.8088449 Z M68,78 L70.0478478,72 L71.9527064,72 L74,78 L72.1355995,78 L71.9128025,77.2086122 L70.0478478,77.2086122 L69.8333641,78 L68,78 Z"/>
    <polygon points="78 78 80 78 80 72 78 72"/>
    <path d="M85.1069642,74.3273598 C85.0792613,74.0266274 84.9733551,73.7955498 84.7889573,73.6344036 C84.604848,73.4732575 84.3581185,73.393099 84.0496345,73.393099 C83.7024817,73.393099 83.432955,73.5315797 83.2393228,73.8088174 C83.0465564,74.0860552 82.9504617,74.5017736 82.9504617,75.0556963 C82.9504617,75.2563689 82.9660446,75.4498549 82.9957676,75.6375363 C83.0257791,75.8249413 83.0826279,75.9896807 83.1654482,76.132584 C83.2476914,76.2743815 83.3668719,76.3890911 83.5203925,76.4767126 C83.6747788,76.5635049 83.8759138,76.606901 84.1240862,76.606901 C84.4380531,76.606901 84.6738169,76.514857 84.8305117,76.3302161 C84.9872066,76.1455752 85.0853213,75.9156033 85.12399,75.6411296 L87,75.6411296 C86.956137,76.0109642 86.8562909,76.3407196 86.7027703,76.631225 C86.548384,76.9209011 86.3478261,77.1682867 86.1036937,77.3711706 C85.8581185,77.5743309 85.5707003,77.7302253 85.2397076,77.838301 C84.9087149,77.9463767 84.5479992,78 84.1569835,78 C83.6664102,78 83.2254713,77.930345 82.8347441,77.7904823 C82.4437284,77.6506196 82.1118699,77.4504998 81.8385918,77.188741 C81.5658907,76.9275349 81.3578299,76.6127056 81.2149865,76.242871 C81.0712774,75.8735892 81,75.4564887 81,74.9923988 C81,74.5332842 81.0767603,74.118395 81.2311466,73.7491132 C81.3855329,73.3798314 81.5959023,73.0658313 81.8631204,72.8068365 C82.1303386,72.5486709 82.4451712,72.3493804 82.8061755,72.2095177 C83.166314,72.0699314 83.5541554,72 83.9673913,72 C84.8766833,72 85.5831089,72.2045423 86.0869565,72.6133505 C86.5905156,73.0224352 86.8816853,73.594048 86.9593113,74.3273598 L85.1069642,74.3273598 Z"/>
    <polygon points="88 72 94 72 94 73.575 92.073 73.575 92.073 78 89.927 78 89.927 73.575 88 73.575"/>
    <path d="M98.9844847 73.8088449L98.4048762 75.958103 99.5876431 75.958103 98.9844847 73.8088449zM96 78L98.0480236 72 99.9516993 72 102 78 100.134559 78 99.9120798 77.2086122 98.0480236 77.2086122 97.8327484 78 96 78zM107.108012 74.3273598C107.080312 74.0266274 106.974416 73.7955498 106.788593 73.6344036 106.604213 73.4732575 106.358661 73.393099 106.049918 73.393099 105.702799 73.393099 105.432432 73.5315797 105.239107 73.8088174 105.046937 74.0860552 104.950274 74.5017736 104.950274 75.0556963 104.950274 75.2563689 104.965567 75.4498549 104.996441 75.6375363 105.025584 75.8249413 105.082428 75.9896807 105.16524 76.132584 105.248341 76.2743815 105.366356 76.3890911 105.52015 76.4767126 105.675099 76.5635049 105.876214 76.606901 106.123497 76.606901 106.4383 76.606901 106.673463 76.514857 106.830143 76.3302161 106.988266 76.1455752 107.084928 75.9156033 107.123305 75.6411296L109 75.6411296C108.955564 76.0109642 108.85717 76.3407196 108.702222 76.631225 108.548427 76.9209011 108.348754 77.1682867 108.103203 77.3711706 107.857363 77.5743309 107.570261 77.7302253 107.240165 77.838301 106.908339 77.9463767 106.547369 78 106.157257 78 105.665865 78 105.225257 77.930345 104.835145 77.7904823 104.443589 77.6506196 104.111763 77.4504998 103.838511 77.188741 103.566702 76.9275349 103.357796 76.6127056 103.214966 76.242871 103.072136 75.8735892 103 75.4564887 103 74.9923988 103 74.5332842 103.076753 74.118395 103.231701 73.7491132 103.385496 73.3798314 103.595845 73.0658313 103.863037 72.8068365 104.13023 72.5486709 104.445032 72.3493804 104.806002 72.2095177 105.166683 72.0699314 105.55391 72 105.966817 72 106.876022 72 107.582668 72.2045423 108.086179 72.6133505 108.589978 73.0224352 108.881697 73.594048 108.95845 74.3273598L107.108012 74.3273598z"/>
    <polygon points="110 72 116 72 116 73.575 114.073 73.575 114.073 78 111.927 78 111.927 73.575 110 73.575"/>
    <polygon points="116 78 118 78 118 72 116 72"/>
    <path d="M121.980851,73.393099 C121.76827,73.393099 121.590934,73.4417469 121.447734,73.5395955 C121.304255,73.6374441 121.190749,73.7609988 121.106383,73.9116414 C121.020629,74.0617312 120.961795,74.2308933 120.92766,74.4185747 C120.892137,74.6054268 120.876041,74.7892385 120.876041,74.9686276 C120.876041,75.1532685 120.890749,75.3415027 120.923219,75.5344359 C120.954302,75.7270926 121.013414,75.9020592 121.097502,76.0609941 C121.183256,76.2190998 121.298427,76.3501175 121.443293,76.4523886 C121.589547,76.5552126 121.774098,76.606901 121.99556,76.606901 C122.197872,76.606901 122.36938,76.5662689 122.512581,76.4847284 C122.655782,76.4023587 122.772618,76.2876491 122.862535,76.1397706 C122.952729,75.9927212 123.019334,75.8191367 123.060685,75.6212282 C123.103423,75.4233197 123.124237,75.2055097 123.124237,74.9686276 C123.124237,74.7729304 123.103423,74.5802736 123.060685,74.3906574 C123.019334,74.2007647 122.952729,74.0302207 122.862535,73.8801308 C122.772618,73.7292118 122.654394,73.6092505 122.508141,73.5196941 C122.363275,73.4298613 122.186216,73.3878472 121.980851,73.393099 M121.99556,72 C122.505088,72 122.948289,72.084581 123.327937,72.2529138 C123.706198,72.4220758 124.019241,72.6451375 124.265957,72.921546 C124.511008,73.1987838 124.695837,73.5158244 124.818224,73.8718386 C124.9395,74.2278528 125,74.5935413 125,74.9686276 C125,75.4542774 124.923127,75.8851983 124.769658,76.262496 C124.615911,76.64007 124.404718,76.9568342 124.134413,77.2130649 C123.864107,77.4690192 123.546623,77.6638872 123.180296,77.7984982 C122.815356,77.9331091 122.419611,78 121.99556,78 C121.545143,78 121.136078,77.9331091 120.768085,77.7984982 C120.40037,77.6638872 120.084274,77.4659787 119.822849,77.2047727 C119.560037,76.943843 119.357447,76.6245911 119.214246,76.2470171 C119.071045,75.8697194 119,75.4379693 119,74.9525959 C119,74.5037085 119.072433,74.0993228 119.218686,73.7372276 C119.363552,73.3762381 119.567253,73.0658313 119.830342,72.8068365 C120.093154,72.5486709 120.407863,72.3493804 120.775578,72.2095177 C121.144958,72.0699314 121.550971,72 121.99556,72"/>
    <polygon points="130.126 75.275 130.049 73.909 130.049 72 132 72 132 78 130.092 78 127.874 74.733 127.951 76.1 127.951 78 126 78 126 72 127.907 72"/>
    <polygon points="140.127 75.275 140.049 73.909 140.049 72 142 72 142 78 140.092 78 137.873 74.733 137.951 76.1 137.951 78 136 78 136 72 137.908 72"/>
    <polygon points="143 78 143 72 147.882 72 147.882 73.4 144.963 73.4 144.963 74.259 147.434 74.259 147.434 75.659 144.963 75.659 144.963 76.6 148 76.6 148 78"/>
    <polygon points="149 72 155 72 155 73.575 153.072 73.575 153.072 78 150.926 78 150.926 73.575 149 73.575"/>
    <polygon points="159.485 75.708 159.5 75.708 160.156 72 162 72 160.553 78 158.675 78 158.004 74.516 157.988 74.516 157.325 78 155.447 78 154 72 155.844 72 156.5 75.708 156.516 75.708 157.211 72 158.789 72"/>
    <path d="M165.980162 73.393099C165.769017 73.393099 165.590335 73.4417469 165.448555 73.5395955 165.305387 73.6374441 165.190243 73.7609988 165.105896 73.9116414 165.021827 74.0617312 164.961341 74.2308933 164.927214 74.4185747 164.893364 74.6054268 164.875607 74.7892385 164.875607 74.9686276 164.875607 75.1532685 164.891699 75.3415027 164.922775 75.5344359 164.955237 75.7270926 165.012948 75.9020592 165.098682 76.0609941 165.182751 76.2190998 165.297896 76.3501175 165.444116 76.4523886 165.588948 76.5552126 165.773457 76.606901 165.996532 76.606901 166.197133 76.606901 166.369988 76.5662689 166.513156 76.4847284 166.654936 76.4023587 166.771746 76.2876491 166.861642 76.1397706 166.951815 75.9927212 167.018405 75.8191367 167.061133 75.6212282 167.103861 75.4233197 167.124671 75.2055097 167.124671 74.9686276 167.124671 74.7729304 167.103861 74.5802736 167.061133 74.3906574 167.018405 74.2007647 166.951815 74.0302207 166.861642 73.8801308 166.771746 73.7292118 166.654936 73.6092505 166.508717 73.5196941 166.362497 73.4298613 166.186867 73.3878472 165.980162 73.393099M165.996532 72C166.504277 72 166.94904 72.084581 167.326936 72.2529138 167.706497 72.4220758 168.018081 72.6451375 168.26474 72.921546 168.511399 73.1987838 168.695908 73.5158244 168.816879 73.8718386 168.939514 74.2278528 169 74.5935413 169 74.9686276 169 75.4542774 168.923422 75.8851983 168.769711 76.262496 168.616 76.64007 168.403468 76.9568342 168.133225 77.2130649 167.862983 77.4690192 167.545572 77.6638872 167.180717 77.7984982 166.814474 77.9331091 166.420208 78 165.996532 78 165.545942 78 165.136971 77.9331091 164.767676 77.7984982 164.400046 77.6638872 164.08541 77.4659787 163.822659 77.2047727 163.559908 76.943843 163.357364 76.6245911 163.214197 76.2470171 163.072416 75.8697194 163 75.4379693 163 74.9525959 163 74.5037085 163.072416 74.0993228 163.218636 73.7372276 163.364855 73.3762381 163.568786 73.0658313 163.83015 72.8068365 164.092902 72.5486709 164.407538 72.3493804 164.776555 72.2095177 165.144462 72.0699314 165.550382 72 165.996532 72M172.067183 74.5915042L172.881028 74.5915042C173.203385 74.5915042 173.445917 74.5496072 173.613518 74.466977 173.77959 74.383183 173.862779 74.2362525 173.862779 74.0247309 173.862779 73.814082 173.786013 73.6569683 173.629728 73.5539715 173.475278 73.4518475 173.276787 73.3997672 173.03089 73.3997672L172.067183 73.3997672 172.067183 74.5915042zM172.067183 75.9086413L172.067183 78 170 78 170 72 172.978897 72C173.502804 72 173.944133 72.0349142 174.300438 72.1044516 174.65705 72.173407 174.945152 72.2778586 175.163217 72.4166424 175.383118 72.5560081 175.539403 72.7331976 175.632073 72.9499564 175.724743 73.1667152 175.772148 73.419261 175.772148 73.7081757 175.772148 74.0526622 175.68743 74.3599069 175.517994 74.6293279 175.348863 74.8987489 175.080334 75.0808845 174.712407 75.1754437 174.875115 75.2365435 175.024977 75.2961885 175.159853 75.3540879 175.293506 75.4122781 175.40575 75.4957812 175.496891 75.6043061 175.586502 75.71254 175.65654 75.8583067 175.707004 76.0416061 175.755633 76.2251964 175.781935 76.4666861 175.781935 76.766366L175.781935 77.2580739C175.781935 77.3913296 175.786828 77.4995636 175.798145 77.5833576 175.809461 77.6668606 175.830564 77.7265057 175.859925 77.7622927 175.889285 77.7986616 175.936385 77.8164097 176 77.8164097L176 78 173.906514 78C173.877154 77.9333721 173.852992 77.8079721 173.831583 77.6252546 173.812315 77.4416642 173.800693 77.2161769 173.800693 76.9499564 173.800693 76.7556008 173.789377 76.5915042 173.766745 76.4582485 173.743807 76.3249927 173.691814 76.2182136 173.613518 76.13762 173.533694 76.0573174 173.42145 75.9982543 173.276787 75.9627582 173.129983 75.9263893 172.936385 75.9086413 172.697217 75.9086413L172.067183 75.9086413z"/>
    <polygon points="177 72 178.893 72 178.893 73.942 180.554 72 182.775 72 180.666 74.259 183 78 180.73 78 179.342 75.608 178.893 76.1 178.893 78 177 78"/>
    <path d="M30 5.5C30 8.5375817 27.5374899 11 24.4998324 11 21.4624797 11 19 8.5375817 19 5.5 19 2.4624183 21.4624797 0 24.4998324 0 27.5374899 0 30 2.4624183 30 5.5M56 24C56 26.209285 54.2089864 28 52 28 49.790715 28 48 26.209285 48 24 48 21.790715 49.790715 20 52 20 54.2089864 20 56 21.790715 56 24"/>
  </g>
</svg>
