<svg xmlns="http://www.w3.org/2000/svg" width="225" height="48" viewBox="0 0 225 48">
  <g fill="#000000" transform="translate(0 .23)">
    <path d="M84.3362774,33.1888126 C88.8871509,33.1888126 91.2299086,30.7674495 91.2299086,27.5120611 C91.2299086,24.3642889 89.3449311,22.6962387 85.7634744,22.2119661 L84.7940576,22.0774458 C82.3166588,21.7276934 81.4280267,20.8667643 81.4280267,19.6022746 C81.4280267,18.1763607 82.4513002,17.1540073 84.3093491,17.1540073 C85.8442591,17.1540073 87.1906714,17.6113759 88.6986534,18.5799212 C88.8332945,18.6606333 88.9679359,18.6337294 89.0756489,18.4992091 L90.3682046,16.5083105 C90.4489893,16.3737903 90.4489893,16.2392702 90.3143482,16.131654 C88.8063662,15.0285885 86.6790348,14.3021796 84.3901338,14.3021796 C80.593251,14.3021796 78.1966372,16.4814064 78.1966372,19.8175069 C78.1966372,22.8576629 80.1354708,24.5526171 83.7169278,25.0368898 L84.6863446,25.17141 C87.1906714,25.5211624 88.0254471,26.3820916 88.0254471,27.7003893 C88.0254471,29.2339194 86.7598195,30.3369848 84.5786315,30.3369848 C82.5320849,30.3369848 80.7548204,29.3415356 79.5969058,28.3998943 C79.4622648,28.2922781 79.3545517,28.2922781 79.2199106,28.4267983 L77.5503592,30.363889 C77.4426462,30.498409 77.4695745,30.6329291 77.6042156,30.7674495 C79.0314126,32.1395553 81.6434528,33.1888126 84.3362774,33.1888126 Z M103.377413,32.8928683 C103.56591,32.8928683 103.646695,32.8121563 103.646695,32.6238278 L103.646695,17.6113759 C103.646695,17.5037598 103.700551,17.4499517 103.808264,17.4499517 L108.601492,17.4499517 C108.78999,17.4499517 108.870775,17.3692397 108.870775,17.1809114 L108.870775,14.8671643 C108.870775,14.6788361 108.78999,14.598124 108.601492,14.598124 L95.5143645,14.598124 C95.3258667,14.598124 95.245082,14.6788361 95.245082,14.8671643 L95.245082,17.1809114 C95.245082,17.3692397 95.3258667,17.4499517 95.5143645,17.4499517 L100.307592,17.4499517 C100.415305,17.4499517 100.469162,17.5037598 100.469162,17.6113759 L100.469162,32.6238278 C100.469162,32.8121563 100.549947,32.8928683 100.738444,32.8928683 L103.377413,32.8928683 Z M117.686624,22.6424306 L121.59122,22.6424306 C123.314628,22.6424306 124.391758,21.6738854 124.391758,20.0596432 C124.391758,18.445401 123.314628,17.4499517 121.59122,17.4499517 L117.686624,17.4499517 C117.578911,17.4499517 117.525054,17.5037598 117.525054,17.6113759 L117.525054,22.4810064 C117.525054,22.5886226 117.578911,22.6424306 117.686624,22.6424306 Z M127.730861,32.8928683 L124.741825,32.8928683 C124.553327,32.8928683 124.418686,32.8121563 124.337901,32.6238278 L120.837229,25.4942585 L117.686624,25.4942585 C117.578911,25.4942585 117.525054,25.5480665 117.525054,25.6556826 L117.525054,32.6238278 C117.525054,32.8121563 117.444271,32.8928683 117.255773,32.8928683 L114.616804,32.8928683 C114.428307,32.8928683 114.347522,32.8121563 114.347522,32.6238278 L114.347522,14.8671643 C114.347522,14.6788361 114.428307,14.598124 114.616804,14.598124 L121.698934,14.598124 C125.038036,14.598124 127.542363,16.831159 127.542363,20.0596432 C127.542363,22.4541023 126.222879,24.3104808 124.068619,25.0906979 L127.919359,32.5431158 C128.027071,32.731444 127.919359,32.8928683 127.730861,32.8928683 Z M137.391226,26.2475715 L142.346023,26.2475715 L139.922481,19.144906 L139.841696,19.144906 L137.391226,26.2475715 Z M132.059433,32.6238278 L138.333714,14.8671643 C138.387571,14.6788361 138.495284,14.598124 138.683782,14.598124 L141.161181,14.598124 C141.349678,14.598124 141.457391,14.6788361 141.511247,14.8671643 L147.704744,32.6238278 C147.758601,32.8121563 147.704744,32.8928683 147.516246,32.8928683 L144.877279,32.8928683 C144.688781,32.8928683 144.581068,32.8121563 144.527211,32.6238278 L143.31544,29.0724951 L136.421809,29.0724951 L135.210038,32.6238278 C135.156182,32.8121563 135.048469,32.8928683 134.859971,32.8928683 L132.24793,32.8928683 C132.059433,32.8928683 132.005577,32.8121563 132.059433,32.6238278 Z M158.346558,32.8928683 C158.535056,32.8928683 158.615841,32.8121563 158.615841,32.6238278 L158.615841,17.6113759 C158.615841,17.5037598 158.669697,17.4499517 158.77741,17.4499517 L163.570638,17.4499517 C163.759136,17.4499517 163.839921,17.3692397 163.839921,17.1809114 L163.839921,14.8671643 C163.839921,14.6788361 163.759136,14.598124 163.570638,14.598124 L149.910568,14.598124 C149.722071,14.598124 149.641287,14.6788361 149.641287,14.8671643 L150.500698,17.1809114 C150.500698,17.3692397 150.581483,17.4499517 150.769981,17.4499517 L155.276738,17.4499517 C155.384451,17.4499517 155.438308,17.5037598 155.438308,17.6113759 L155.438308,32.6238278 C155.438308,32.8121563 155.519092,32.8928683 155.70759,32.8928683 L158.346558,32.8928683 Z M175.941016,30.3369848 C173.867542,30.3369848 172.386488,28.9917831 172.386488,26.4089956 L172.386488,14.8671643 C172.386488,14.6788361 172.305703,14.598124 172.117205,14.598124 L169.478238,14.598124 C169.289739,14.598124 169.208954,14.6788361 169.208954,14.8671643 L169.208954,26.4628037 C169.208954,30.6867372 172.090277,33.1888126 175.941016,33.1888126 C179.818684,33.1888126 182.700006,30.6867372 182.700006,26.4628037 L182.700006,14.8671643 C182.700006,14.6788361 182.619221,14.598124 182.430723,14.598124 L179.791756,14.598124 C179.603258,14.598124 179.522473,14.6788361 179.522473,14.8671643 L179.522473,26.4089956 C179.522473,28.9917831 178.095276,30.3369848 175.941016,30.3369848 Z M188.350355,32.6238278 C188.350355,32.8121563 188.431139,32.8928683 188.619637,32.8928683 L190.962394,32.8928683 C191.150892,32.8928683 191.231677,32.8121563 191.231677,32.6238278 L191.231677,21.431749 L191.33939,21.431749 L195.217057,30.0410404 C195.32477,30.2831767 195.48634,30.3907929 195.728694,30.3907929 L197.290533,30.3907929 C197.532886,30.3907929 197.694456,30.2831767 197.802169,30.0410404 L201.679837,21.431749 L201.78755,21.431749 L201.78755,32.6238278 C201.78755,32.8121563 201.868334,32.8928683 202.056832,32.8928683 L204.399589,32.8928683 C204.588087,32.8928683 204.668872,32.8121563 204.668872,32.6238278 L204.668872,14.8671643 C204.668872,14.6788361 204.588087,14.598124 204.399589,14.598124 L202.029904,14.598124 C201.78755,14.598124 201.652909,14.6788361 201.572124,14.8671643 L196.617326,26.1399553 L196.509614,26.1399553 L191.474031,14.8671643 C191.393246,14.6788361 191.258605,14.598124 191.016251,14.598124 L188.619637,14.598124 C188.431139,14.598124 188.350355,14.6788361 188.350355,14.8671643 L188.350355,32.6238278 Z M210.426933,32.6238278 C210.426933,32.8121563 210.507718,32.8928683 210.696216,32.8928683 L213.038974,32.8928683 C213.227471,32.8928683 213.308255,32.8121563 213.308255,32.6238278 L213.308255,20.0327392 L213.415969,20.0327392 L220.902021,32.6238278 C221.009734,32.8121563 221.171304,32.8928683 221.359802,32.8928683 L223.810272,32.8928683 C223.99877,32.8928683 224.079555,32.8121563 224.079555,32.6238278 L224.079555,14.8671643 C224.079555,14.6788361 223.99877,14.598124 223.810272,14.598124 L221.467514,14.598124 C221.279017,14.598124 221.198232,14.6788361 221.198232,14.8671643 L221.198232,27.485157 L221.090519,27.485157 L213.631395,14.8671643 C213.523682,14.6788361 213.362112,14.598124 213.173614,14.598124 L210.696216,14.598124 C210.507718,14.598124 210.426933,14.6788361 210.426933,14.8671643 L210.426933,32.6238278 Z"/>
    <path d="M43.454911,29.9339423 C41.2877726,39.7786768 32.5052972,47.145439 22.0006739,47.145439 C9.86867087,47.145439 0.0337392292,37.3193498 0.0337392292,25.1982547 C0.0337392292,13.0771595 9.86867087,3.25107039 22.0006739,3.25107039 C27.8729855,3.25107039 33.207117,5.55322174 37.1482422,9.30346678 L51.5163743,0.0488592811 C51.7701342,-0.114589131 52.0681846,0.182103268 51.9055209,0.436232769 L42.0160027,15.8866243 L55.0950072,8.3702762 C55.2373541,8.28847119 55.4192794,8.34546911 55.4893826,8.49383555 L63.8760836,26.2434333 C63.9558683,26.4122895 63.8515783,26.610475 63.6671213,26.6405306 L43.454911,29.9339423 Z M41.9231899,15.9399627 C40.7549092,13.4347714 39.1271858,11.1865644 37.1482422,9.30346678 L15.1694724,23.4601356 C15.0402435,23.5433729 15.0019246,23.7148974 15.083463,23.8451356 L18.5454605,29.3748653 L41.9231899,15.9399627 Z M31.8100541,31.8313749 L21.1689383,33.5652563 L25.6461429,40.7165416 C25.7556143,40.8913964 26.0100833,40.8926674 26.1212991,40.7189152 L31.8100541,31.8313749 Z M43.454911,29.9339423 C43.7906448,28.4087928 43.9676085,26.8241712 43.9676085,25.1982547 C43.9676085,21.9109858 43.2442425,18.7925162 41.9478692,15.9930693 L42.0160027,15.8866243 L41.9231899,15.9399627 C41.9314392,15.9576521 41.9396657,15.9753543 41.9478692,15.9930693 L31.8100541,31.8313749 L43.454911,29.9339423 Z M21.1689383,33.5652563 L18.5454605,29.3748653 L8.66802952,35.0513072 C8.39695797,35.2070889 8.54480402,35.6222542 8.85344256,35.571964 L21.1689383,33.5652563 Z" transform="translate(.001 .025)"/>
  </g>
</svg>
