<svg xmlns="http://www.w3.org/2000/svg" width="151" height="36" viewBox="0 0 151 36">
  <path d="M29.4836312,2.44017222 C38.0059542,2.44017222 44.9140016,9.29993568 44.9140016,17.7609762 C44.9140016,26.2220167 38.0059542,33.0817802 29.4836312,33.0817802 C28.8880432,33.0794762 28.4053849,32.6010131 28.4038379,32.0096542 L28.4038379,14.9431894 C28.4038379,14.3495264 28.8880432,13.8679913 29.4851782,13.8679913 C30.0830867,13.8679913 30.5680655,14.3495264 30.5680655,14.9431894 L30.5680655,30.9091122 L31.2502845,30.8200243 C37.8628584,29.9552579 42.8000509,24.3496362 42.7830341,17.7279523 C42.7644703,10.4534696 36.8101372,4.57060033 29.4836312,4.58903229 C28.8857228,4.58903229 28.4015174,4.10826517 28.4015174,3.51460226 C28.4015174,2.92093934 28.8857228,2.44017222 29.4836312,2.44017222 Z M60.4380417,14.9186134 C63.4941043,16.6166583 65.4084943,19.8030845 65.4610917,23.2805821 C65.4989928,28.6419803 61.1635762,33.0249483 55.7646096,33.0817802 L55.6911279,33.0817802 C53.3961804,33.0825482 51.1739409,32.2815257 49.4134756,30.8200243 C49.1628646,30.6149687 49.0189952,30.3093053 49.0213157,29.9875139 C49.0244097,29.3953869 49.5109355,28.9176918 50.1080705,28.9207638 C50.3617755,28.9199958 50.6077456,29.0083156 50.8018918,29.1711313 C52.1686503,30.3062333 53.8927615,30.9290801 55.6748846,30.9329201 L55.7514602,30.9329201 C59.9476484,30.8753202 63.3115605,27.4677105 63.2844883,23.3013181 C63.2287969,19.3975812 60.197486,16.1735231 56.2797545,15.8494277 L56.2797545,13.6368237 C58.5445359,13.2904564 60.2237847,11.3673879 60.2469894,9.09257606 L60.2469894,9.08796807 C60.2454424,6.60042062 58.2134818,4.5851923 55.7089182,4.5867283 C53.2035811,4.5874963 51.1739409,6.60502861 51.1754879,9.09257606 L51.1754879,21.9219926 C51.1754879,22.5156555 50.6912826,22.9971906 50.0933741,22.9971906 C49.4962391,22.9971906 49.0112603,22.5156555 49.0112603,21.9219926 L49.0112603,9.08412807 C49.0151278,7.24861143 49.7824308,5.49450264 51.1306255,4.23805694 C53.8339762,1.71978954 58.0819883,1.8541893 60.6182651,4.53834439 C63.1553153,7.22249948 63.0191809,11.4411158 60.3158301,13.9586152 L59.731071,14.5154141 L60.4380417,14.9186134 Z M1.53825517,12.9794938 C2.13693714,12.9864057 2.617275,13.4733168 2.61031358,14.0677478 L2.61031358,32.0742428 C2.61031358,32.6679058 2.12533478,33.1486729 1.52819979,33.1486729 C0.930291306,33.1486729 0.4453125,32.6679058 0.4453125,32.0742428 L0.4453125,14.0677478 L0.4453125,14.0477798 C0.449953446,13.4533489 0.939573197,12.9748858 1.53825517,12.9794938 Z M1.53825517,2.44017222 C2.13693714,2.44017222 2.62191595,2.92170734 2.62191595,3.51690625 L2.62191595,8.60489695 C2.62191595,9.19855987 2.13771063,9.67932699 1.53980215,9.67932699 C0.94189367,9.67932699 0.458461846,9.19855987 0.458461846,8.60489695 L0.458461846,3.51229826 C0.460008827,2.92093934 0.94189367,2.44247622 1.53825517,2.44017222 Z M16.5990516,2.44017222 L16.5828082,2.44401222 C21.8394525,2.45015621 26.0967466,6.68566846 26.0905586,11.9049869 C26.0851442,17.1243054 21.8193418,21.3506016 16.5626975,21.3452257 C15.964789,21.3452257 15.4805837,20.8636905 15.4805837,20.2707956 C15.4805837,19.6771327 15.964789,19.1963656 16.5626975,19.1963656 C20.5732479,19.2270855 23.8598108,16.0421954 23.926331,12.0601226 C23.9936247,8.05270596 20.776676,4.750312 16.7406004,4.68272812 C12.7045248,4.61591225 9.37774033,7.8107864 9.31044662,11.8182031 L9.31044662,32.074166 C9.31044662,32.667829 8.82546782,33.1485961 8.22833283,33.1485961 C7.63042435,33.1485961 7.14544554,32.667829 7.14544554,32.074166 L7.14544554,11.8182031 C7.15472743,6.63958854 11.3834023,2.44478022 16.5990516,2.44017222 Z M73.3103229,35.59375 L73.3103229,0.59375 L74.2965238,0.59375 L74.2965238,35.59375 L73.3103229,35.59375 Z M85.2160498,14.4791646 L85.2160498,6.60103502 L86.3530814,6.60103502 L86.3530814,14.4791646 L85.2160498,14.4791646 Z M87.968904,6.60111182 L89.0610732,6.60111182 L90.7789965,11.3665431 L90.7998807,11.3665431 L90.7998807,6.60111182 L91.9369124,6.60111182 L91.9369124,14.4792414 L90.8725889,14.4792414 L89.1299138,9.75374605 L89.1105766,9.75374605 L89.1105766,14.4792414 L87.9735449,14.4792414 L87.968904,6.60111182 Z M94.2674405,7.66125708 L92.9517325,7.66125708 L92.9517325,6.60065102 L96.7201802,6.60065102 L96.7201802,7.66509707 L95.4044722,7.66509707 L95.4044722,14.4787806 L94.2674405,14.4787806 L94.2674405,7.66125708 Z M97.7759953,6.60111182 L101.166206,6.60111182 L101.166206,7.66555787 L98.913027,7.66555787 L98.913027,9.97953764 L100.873826,9.97953764 L100.873826,11.0439837 L98.913027,11.0439837 L98.913027,13.3579635 L101.166206,13.3579635 L101.166206,14.4876894 L97.7759953,14.4876894 L97.7759953,6.60111182 Z M102.46103,6.60111182 L104.272546,6.60111182 C105.609138,6.60111182 106.278208,7.37218241 106.278208,8.91509158 C106.288263,9.31829085 106.212461,9.71918611 106.05931,10.0924334 C105.904611,10.4395688 105.634663,10.7244963 105.295874,10.898832 L106.514122,14.4953694 L105.295874,14.4953694 L104.272546,11.1161756 L103.594194,11.1161756 L103.594194,14.4830814 L102.457162,14.4830814 L102.46103,6.60111182 Z M103.598061,10.1208494 L104.243926,10.1208494 C104.407906,10.1269934 104.571113,10.0978094 104.723491,10.0363695 C104.835647,9.98568163 104.930786,9.90273778 104.994986,9.79828997 C105.063827,9.68078618 105.108689,9.55022642 105.124933,9.41505867 C105.169795,9.06561931 105.169795,8.71233995 105.124933,8.36290059 C105.110236,8.21928486 105.063053,8.08181311 104.986478,7.95970133 C104.909129,7.85602152 104.801613,7.77845366 104.677855,7.73774974 C104.516969,7.68091784 104.346027,7.65480589 104.175086,7.66094988 L103.586459,7.66094988 L103.598061,10.1208494 Z M107.768725,6.60080462 L109.474272,6.60080462 C109.749635,6.59696462 110.024224,6.63843655 110.286437,6.72214839 C110.533955,6.81046823 110.75672,6.95792396 110.932302,7.1537636 C111.126449,7.35805123 111.265677,7.60688278 111.338385,7.87875428 C111.421149,8.2481616 111.458276,8.62601691 111.447447,9.00387222 C111.451315,9.30185568 111.431204,9.59983913 111.387115,9.89475059 C111.34612,10.1412781 111.256395,10.3770537 111.122581,10.5882533 C110.972524,10.8416929 110.75672,11.0505885 110.4976,11.1934362 C110.178922,11.3508759 109.825437,11.4261398 109.469631,11.4107798 L108.889513,11.4107798 L108.889513,14.4873822 L107.752481,14.4873822 L107.768725,6.60080462 Z M108.905756,10.3424938 L109.453388,10.3424938 C109.638252,10.3517098 109.821569,10.3171498 109.989417,10.241886 C110.109308,10.1827501 110.207541,10.0882862 110.270194,9.97155045 C110.332073,9.84559868 110.367654,9.70812693 110.375389,9.56835119 L110.375389,8.50006514 C110.368428,8.35107342 110.33362,8.20515368 110.274062,8.06844993 C110.21837,7.94787415 110.126325,7.84803434 110.010301,7.78275445 C109.851736,7.7036506 109.67538,7.66755467 109.49825,7.67753865 L108.909624,7.67753865 L108.905756,10.3424938 Z M112.860615,6.60111182 L114.017758,6.60111182 L114.017758,13.3502835 L116.270937,13.3502835 L116.270937,14.4792414 L112.880726,14.4792414 L112.860615,6.60111182 Z M118.801026,6.60126541 L119.747778,6.60126541 L121.518299,14.483235 L120.380494,14.483235 L120.047893,12.7897981 L118.484668,12.7897981 L118.152067,14.483235 L117.014261,14.483235 L118.801026,6.60126541 Z M119.296833,8.86686127 L119.276722,8.86686127 L118.719809,11.7215121 L119.856841,11.7215121 L119.296833,8.86686127 Z M122.594225,6.60111182 L123.686394,6.60111182 L125.388074,11.3665431 L125.408185,11.3665431 L125.408185,6.60111182 L126.544443,6.60111182 L126.544443,14.4792414 L125.473158,14.4792414 L123.763743,9.75374605 L123.743632,9.75374605 L123.743632,14.4792414 L122.606601,14.4792414 L122.594225,6.60111182 Z M128.144796,6.60111182 L131.53578,6.60111182 L131.53578,7.66555787 L129.281827,7.66555787 L129.281827,9.97953764 L131.2434,9.97953764 L131.2434,11.0439837 L129.281827,11.0439837 L129.281827,13.3579635 L131.53578,13.3579635 L131.53578,14.4876894 L128.144796,14.4876894 L128.144796,6.60111182 Z M133.573929,7.66125708 L132.258221,7.66125708 L132.258221,6.60065102 L136.026668,6.60065102 L136.026668,7.66509707 L134.727204,7.66509707 L134.727204,14.4787806 L133.590172,14.4787806 L133.573929,7.66125708 Z M137.727575,6.60080462 L138.673554,6.60080462 L140.444848,14.4835422 L139.307043,14.4835422 L138.974442,12.7901053 L137.422819,12.7901053 L137.090218,14.4835422 L135.945452,14.4835422 L137.727575,6.60080462 Z M138.207139,8.87100846 L138.187028,8.87100846 L137.630115,11.7256592 L138.767147,11.7256592 L138.207139,8.87100846 Z M141.565637,6.60111182 L143.393396,6.60111182 C144.730762,6.60111182 145.398284,7.37218241 145.398284,8.91509158 C145.409113,9.31829085 145.333311,9.71918611 145.18016,10.0924334 C145.024688,10.4395688 144.756287,10.7244963 144.416724,10.898832 L145.634972,14.4953694 L144.416724,14.4953694 L143.356268,11.1284635 L142.67869,11.1284635 L142.67869,14.4953694 L141.541659,14.4953694 L141.565637,6.60111182 Z M142.702668,10.1208494 L143.348533,10.1208494 C143.512513,10.1269934 143.67572,10.0978094 143.828098,10.0363695 C143.940254,9.98568163 144.035393,9.90273778 144.099593,9.79828997 C144.168434,9.68078618 144.212523,9.55022642 144.230313,9.41505867 C144.274402,9.06561931 144.274402,8.71233995 144.230313,8.36290059 C144.214843,8.21928486 144.16766,8.08181311 144.091858,7.95970133 C144.019923,7.85218153 143.915502,7.76846968 143.794838,7.72162177 C143.633951,7.66478987 143.46301,7.63867792 143.291295,7.64482191 L142.702668,7.64482191 L142.702668,10.1208494 Z M147.721077,11.1491227 L146.16172,6.60103502 L147.379968,6.60103502 L148.293461,9.73370129 L148.314345,9.73370129 L149.227838,6.60103502 L150.445313,6.60103502 L148.886728,11.1491227 L148.886728,14.4791646 L147.721077,14.4791646 L147.721077,11.1491227 Z M85.1874306,20.9868007 L86.8728673,20.9868007 C87.4204989,20.9499368 87.9588486,21.1442404 88.3548759,21.5228637 C88.7168697,21.936815 88.9009605,22.475182 88.8669269,23.022765 L88.8669269,26.7076222 C88.9117894,27.2951412 88.7176432,27.8765161 88.3270303,28.3196513 C87.9000633,28.6944346 87.3392824,28.8833623 86.77154,28.8441943 L85.1874306,28.8441943 L85.1874306,20.9868007 Z M86.3244623,27.8043242 L86.8481156,27.8043242 C87.0987267,27.8296682 87.3477908,27.7421164 87.5264672,27.5662447 C87.6772979,27.3473651 87.7469121,27.0847096 87.7252543,26.820518 L87.7252543,23.026605 C87.7391772,22.7731654 87.6718835,22.5227979 87.5342021,22.3092943 C87.3586196,22.1195986 87.1018207,22.0251348 86.8442482,22.0550868 L86.3205948,22.0550868 L86.3244623,27.8043242 Z M91.6151402,20.9861095 L92.5611196,20.9861095 L94.3316403,28.8688471 L93.1946086,28.8688471 L92.8620075,27.1754102 L91.3103847,27.1754102 L90.9777836,28.8688471 L89.840752,28.8688471 L91.6151402,20.9861095 Z M92.0900636,23.2563134 L91.5339236,26.1109641 L92.6709553,26.1109641 L92.0900636,23.2563134 Z M95.5823751,22.0507092 L94.2674405,22.0507092 L94.2674405,20.9862631 L98.0351148,20.9862631 L98.0351148,22.0507092 L96.7201802,22.0507092 L96.7201802,28.8682327 L95.5823751,28.8682327 L95.5823751,22.0507092 Z M99.7406623,20.9861095 L100.686642,20.9861095 L102.457162,28.8688471 L101.320904,28.8688471 L100.98753,27.1754102 L99.4405478,27.1754102 L99.1071732,28.8688471 L97.970915,28.8688471 L99.7406623,20.9861095 Z M100.211718,23.2563134 L99.6555783,26.1109641 L100.79261,26.1109641 L100.211718,23.2563134 Z M103.577951,20.9870311 L105.238636,20.9870311 C105.55654,20.9778151 105.873672,21.034647 106.168372,21.1521508 C106.408927,21.2512226 106.623958,21.4032863 106.797993,21.595286 C106.960427,21.7796057 107.079544,21.9969493 107.147611,22.2319568 C107.217999,22.4746444 107.25358,22.7257799 107.252806,22.9784515 L107.252806,23.2641469 C107.256674,23.4453946 107.24043,23.6266423 107.204076,23.804818 C107.177004,23.9461297 107.125954,24.0828334 107.054019,24.2080172 C106.988272,24.317841 106.906282,24.4169128 106.810369,24.5021607 C106.706721,24.5920165 106.596112,24.6718884 106.476995,24.7394722 C106.732247,24.853904 106.940316,25.0520477 107.066395,25.3008792 C107.206397,25.6119187 107.27137,25.951374 107.256674,26.2923654 L107.256674,26.7355006 C107.300763,27.3184115 107.119766,27.8944105 106.749263,28.3482976 C106.312241,28.7545689 105.721294,28.9557845 105.124933,28.9004886 L103.574083,28.9004886 L103.577951,20.9870311 Z M104.714982,27.7315948 L105.206149,27.7315948 C105.391787,27.7392748 105.576651,27.7047148 105.746046,27.630987 C105.871351,27.5703151 105.974226,27.4727792 106.043066,27.3529715 C106.111133,27.2277877 106.152129,27.0910839 106.164504,26.9497722 C106.178427,26.7877245 106.184615,26.6110848 106.184615,26.4175492 C106.186936,26.2439815 106.176107,26.0696458 106.152129,25.8968461 C106.135885,25.7639824 106.088702,25.6380306 106.014447,25.5259028 C105.939418,25.424527 105.836544,25.3461911 105.717427,25.3008792 C105.55654,25.2432793 105.385599,25.2171674 105.214658,25.2240794 L104.711115,25.2240794 L104.714982,27.7315948 Z M104.714982,24.2118572 L105.22626,24.2118572 C105.512452,24.2494891 105.798643,24.1442733 105.990469,23.9292337 C106.132791,23.6857782 106.200085,23.4054587 106.184615,23.1236032 C106.20782,22.8371397 106.130471,22.5529802 105.965717,22.3172047 C105.756875,22.115221 105.467589,22.0169172 105.178303,22.0507092 L104.711115,22.0507092 L104.714982,24.2118572 Z M110.009528,20.9861095 L110.957054,20.9861095 L112.726801,28.8688471 L111.581261,28.8688471 L111.247887,27.1754102 L109.697811,27.1754102 L109.363663,28.8688471 L108.227405,28.8688471 L110.009528,20.9861095 Z M110.489092,23.2563134 L110.468981,23.2563134 L109.912068,26.1109641 L111.049873,26.1109641 L110.489092,23.2563134 Z M117.522445,23.2563134 L116.385413,23.2563134 L116.385413,23.0021058 C116.392375,22.7663303 116.328175,22.5343947 116.20287,22.333179 C116.062868,22.1365714 115.826953,22.0282836 115.585624,22.0513236 C115.451036,22.0451796 115.317996,22.0758995 115.199652,22.1396434 C115.103739,22.1941713 115.022522,22.2717392 114.964511,22.365435 C114.905725,22.4652748 114.865504,22.5743306 114.84694,22.6879944 C114.830697,22.8108742 114.824509,22.9352899 114.830697,23.0589377 C114.823735,23.1925695 114.823735,23.3277372 114.830697,23.462137 C114.838432,23.5596728 114.867824,23.6541366 114.915781,23.7401525 C114.964511,23.8223283 115.031031,23.8929842 115.1107,23.9459761 C115.219763,24.0174 115.337333,24.0765359 115.459545,24.1233838 L116.328949,24.4659111 C116.550167,24.545015 116.757462,24.6594468 116.942327,24.8045985 C117.093931,24.9290143 117.216916,25.08415 117.302774,25.2600217 C117.393272,25.4481814 117.452831,25.650165 117.478356,25.8567566 C117.509296,26.1125001 117.523992,26.3697797 117.522445,26.6270592 C117.523992,26.9373306 117.489958,27.2468341 117.421118,27.5501935 C117.363106,27.813617 117.25095,28.0616806 117.091611,28.2805602 C116.932271,28.4879198 116.722655,28.6530395 116.482873,28.7597913 C116.191267,28.8865111 115.874909,28.946415 115.557005,28.937199 C115.294791,28.938735 115.033351,28.8895831 114.789702,28.7920472 C114.330248,28.6138716 113.96284,28.2590562 113.770241,27.808241 C113.669687,27.5740015 113.617863,27.3213299 113.620957,27.0663544 L113.620957,26.6631551 L114.757215,26.6631551 L114.757215,27.0179705 C114.754895,27.2199541 114.819094,27.4165618 114.940532,27.5786095 C115.091363,27.7575531 115.322637,27.851249 115.557005,27.828209 C115.711703,27.835121 115.866401,27.805937 116.00795,27.7437292 C116.110824,27.6915052 116.195908,27.6100974 116.251599,27.5102576 C116.311932,27.3950578 116.347512,27.268338 116.356794,27.1393143 C116.370717,26.9910905 116.377678,26.8282748 116.377678,26.6508672 C116.379999,26.4811395 116.373038,26.3121798 116.356794,26.1432201 C116.349059,26.0303243 116.317346,25.9205005 116.263975,25.8206607 C116.214472,25.7392528 116.146405,25.6716689 116.064415,25.623285 C115.955352,25.5603091 115.840876,25.5042452 115.723305,25.4581653 L114.911913,25.1271579 C114.494228,24.9866142 114.143837,24.7001507 113.924939,24.3207594 C113.744715,23.9352241 113.658858,23.5120569 113.673554,23.0873537 C113.671234,22.8016582 113.712229,22.5182667 113.794992,22.2448592 C113.868474,21.9944917 113.991459,21.7617881 114.156213,21.5590365 C114.322513,21.3624288 114.530582,21.2057571 114.765723,21.0990053 C115.041086,20.9753575 115.340427,20.9146856 115.642089,20.9215976 C115.908943,20.9177576 116.173477,20.9699815 116.4179,21.0751973 C116.642212,21.1704292 116.846414,21.3071329 117.018902,21.4783966 C117.182883,21.6419803 117.312829,21.834748 117.404874,22.0467156 C117.493052,22.2517712 117.538688,22.4729548 117.538688,22.6964424 L117.522445,23.2563134 Z M118.927105,20.9864935 L122.318089,20.9864935 L122.318089,22.0509396 L120.064136,22.0509396 L120.064136,24.3649193 L122.024936,24.3649193 L122.024936,25.4293654 L120.064136,25.4293654 L120.064136,27.7441132 L122.318089,27.7441132 L122.318089,28.8730711 L118.927105,28.8730711 L118.927105,20.9864935 Z"/>
</svg>
