<svg xmlns="http://www.w3.org/2000/svg" width="114" height="108" viewBox="0 0 114 108">
  <g fill="#000000">
    <path d="M78.6012999,44.0113543 C71.9072691,41.3763606 64.6982146,40 57.4173187,40 C42.1147611,40 27.7209186,45.9986863 16.8878599,56.8905675 C6.10173758,67.734592 0.109199071,82.13916 0.0127718212,97.4507732 L0,99.507019 L1.78933215,100.523178 C10.4131851,105.422435 20.1657478,108 30.0482637,108 C30.3199842,108 30.5939398,107.998086 30.8662989,107.993938 C39.4808923,107.870149 48.0035286,105.801779 55.7298418,101.984404 C53.2936169,100.623677 50.958928,99.0913032 48.7395048,97.4019593 C35.2722579,102.699384 20.009293,102.046299 7.09251161,95.4114368 C8.34893952,68.5420952 30.504537,47.0189926 57.4173187,47.0189926 C64.9025638,47.0189926 72.2961711,48.6722844 78.9735985,51.8139216 C79.059489,49.2127468 78.9359216,46.6055101 78.6012999,44.0113543"/>
    <path d="M113.978527,97.4764715 C113.775792,78.6458411 104.593987,61.4654589 89.2884525,51 C89.2998208,53.7554634 89.1154016,56.5093488 88.7364579,59.2468233 C99.6121409,68.1150539 106.242392,81.1737602 106.967753,95.4806463 C83.5079828,107.552801 54.2506903,99.0983163 40.9235577,76.0292396 C37.3239087,69.7978085 35.1168777,62.8307246 34.4682525,55.7118393 C32.2040641,56.9448705 30.041559,58.3634718 28,59.9540726 C29.0765158,66.8050174 31.4158613,73.4580839 34.9068797,79.500789 C42.4879634,92.6235611 54.6760546,102.031775 69.2249647,105.991551 C74.1610217,107.335356 79.1798146,108 84.1708184,108 C93.89546,108 103.516208,105.476499 112.221491,100.532066 L114,99.5212141 L113.978527,97.4764715 Z"/>
    <path d="M58.7974541,1.03030495 L57.0401174,0 L55.2824644,1.02872327 C46.5988744,6.10843983 39.3845279,13.3914336 34.4189527,22.0897128 C30.1310763,29.6017335 27.5948444,38.016576 27,46.6060357 C29.377164,45.1935974 31.8536268,43.9516639 34.4142091,42.8903581 C36.6199719,28.7308617 44.8576658,15.9338226 57.036955,8.113691 C79.4060777,22.4905099 86.7624152,52.2991269 73.3260784,75.5782614 C69.6874394,81.8828293 64.7120608,87.3336075 58.8176934,91.5187271 C61.0193451,92.8606225 63.3310477,94.0256864 65.7331946,95 C71.1822983,90.5839555 75.8211993,85.1743009 79.3513684,79.0579527 C95.0390064,51.8784006 85.8181273,16.8755536 58.7974541,1.03030495"/>
    <path d="M56.999678,61.0832405 C53.7369607,61.0832405 51.083065,63.7375238 51.083065,67 C51.083065,70.2624762 53.7369607,72.9167595 56.999678,72.9167595 C60.2623954,72.9167595 62.916935,70.2624762 62.916935,67 C62.916935,63.7375238 60.2623954,61.0832405 56.999678,61.0832405 M56.999678,80 C49.8312943,80 44,74.1685613 44,67 C44,59.8317607 49.8312943,54 56.999678,54 C64.1680618,54 70,59.8317607 70,67 C70,74.1685613 64.1680618,80 56.999678,80"/>
  </g>
</svg>
