<svg xmlns="http://www.w3.org/2000/svg" width="266" height="63" viewBox="0 0 266 63" xmlns:xlink="http://www.w3.org/1999/xlink">
  <defs>
    <rect id="a" width="10.201" height="22.098" x=".013" y=".125"/>
    <rect id="c" width="10.201" height="13.302" x=".013" y=".132"/>
    <rect id="e" width="1" height="1.516" x=".037" y=".034"/>
    <rect id="g" width="1.243" height="1.243" x=".002" y=".101"/>
    <rect id="i" width="1.243" height="1.243" x=".117" y=".139"/>
  </defs>
  <g  fill-rule="evenodd">
    <g transform="translate(.86 .86)">
      <path fill="#000000" d="M61.3711665,30.6858715 C61.3711665,47.6329318 47.6327877,61.3713106 30.6857274,61.3713106 C13.738523,61.3713106 0,47.6329318 0,30.6858715 C0,13.7383789 13.738523,2.84217094e-14 30.6857274,2.84217094e-14 C47.6327877,2.84217094e-14 61.3711665,13.7383789 61.3711665,30.6858715"/>
      <path fill="#FFFFFF" fill-rule="nonzero" d="M36.405933,24.4193816 C36.4838913,24.3033808 36.5468631,24.2082746 36.5468631,24.2082746 L42.1476096,15.8485837 L47.7480679,24.2082746 C47.7480679,24.2082746 47.811328,24.3033808 47.8891421,24.4193816 C47.9025435,24.4384028 47.9101808,24.4580004 47.9159448,24.4778863 L36.3791304,24.4778863 C36.3848944,24.4580004 36.3928199,24.4384028 36.405933,24.4193816"/>
      <g opacity=".8" transform="translate(37.034 24.353)">
        <mask id="b" fill="white">
          <use xlink:href="#a"/>
        </mask>
        <path fill="#FFFFFF" fill-rule="nonzero" d="M4.82908938,2.40128746 C4.82908938,2.24450633 4.95690635,2.11712166 5.11397568,2.11712166 C5.27090091,2.11712166 5.39828558,2.24450633 5.39828558,2.40128746 L5.39828558,4.95877965 C5.39828558,5.11556078 5.27090091,5.24323365 5.11397568,5.24323365 C4.95690635,5.24323365 4.82908938,5.11556078 4.82908938,4.95877965 L4.82908938,2.40128746 Z M0.150440717,0.35131654 C0.277825386,0.401463446 0.382154005,0.582453427 0.382154005,0.753212287 L0.382154005,22.2232929 L9.84507685,22.2232929 L9.84507685,0.753212287 C9.84507685,0.582453427 9.94969367,0.401463446 10.0773665,0.35131654 C10.1847213,0.309239252 10.2338595,0.214421252 10.2074891,0.124934963 L0.0200299422,0.124934963 C-0.00648451367,0.214421252 0.0438064923,0.309239252 0.150440717,0.35131654 L0.150440717,0.35131654 Z" mask="url(#b)"/>
      </g>
      <path fill="#FFFFFF" fill-rule="nonzero" d="M12.7733391,33.2161287 C12.8510092,33.0996957 12.9144133,33.0045895 12.9144133,33.0045895 L18.5151598,24.6451867 L24.115474,33.0045895 C24.115474,33.0045895 24.1787341,33.0996957 24.2568364,33.2161287 C24.2698054,33.2350058 24.2775869,33.2543153 24.283495,33.2746334 L12.7468247,33.2746334 C12.7524446,33.2543153 12.7605142,33.2350058 12.7733391,33.2161287"/>
      <g opacity=".8" transform="translate(13.401 33.143)">
        <mask id="d" fill="white">
          <use xlink:href="#c"/>
        </mask>
        <path fill="#FFFFFF" fill-rule="nonzero" d="M4.82303716,2.41411239 C4.82303716,2.25372875 4.95330384,2.12346208 5.11383158,2.12346208 C5.27421522,2.12346208 5.40433779,2.25372875 5.40433779,2.41411239 L5.40433779,5.0275155 C5.40433779,5.18775503 5.27421522,5.31845401 5.11383158,5.31845401 C4.95330384,5.31845401 4.82303716,5.18775503 4.82303716,5.0275155 L4.82303716,2.41411239 L4.82303716,2.41411239 Z M0.150008416,0.357656954 C0.277825386,0.40809206 0.382009905,0.58850564 0.382009905,0.759696801 L0.382009905,13.4331744 L9.84522095,13.4331744 L9.84522095,0.759696801 C9.84522095,0.58850564 9.94969367,0.40809206 10.0773665,0.357656954 C10.1840008,0.315291464 10.2341477,0.221338066 10.2076332,0.131419477 L0.0203181428,0.131419477 C-0.00662861397,0.221338066 0.0433741914,0.315291464 0.150008416,0.357656954 L0.150008416,0.357656954 Z" mask="url(#d)"/>
      </g>
      <rect width="14.169" height="4.64" x="23.247" y="35.846" fill="#FFFFFF" fill-rule="nonzero"/>
      <rect width="14.169" height="6.09" x=".046" y=".138" fill="#FFFFFF" fill-rule="nonzero" opacity=".6" transform="translate(23.2 40.348)"/>
      <g opacity=".5" transform="translate(41.79 11.528)">
        <mask id="f" fill="white">
          <use xlink:href="#e"/>
        </mask>
        <path fill="#FFFFFF" fill-rule="nonzero" d="M0.329845595,1.55008697 C0.168597355,1.55008697 0.037466079,1.41924389 0.037466079,1.25770745 L0.037466079,0.326387188 C0.037466079,0.164994848 0.168597355,0.0340076717 0.329845595,0.0340076717 C0.491526136,0.0340076717 0.622369212,0.164994848 0.622369212,0.326387188 L0.622369212,1.25770745 C0.622369212,1.41924389 0.491526136,1.55008697 0.329845595,1.55008697" mask="url(#f)"/>
      </g>
      <g opacity=".5" transform="translate(38.475 12.969)">
        <mask id="h" fill="white">
          <use xlink:href="#g"/>
        </mask>
        <path fill="#FFFFFF" fill-rule="nonzero" d="M0.952358907,1.34387943 C0.877570849,1.34387943 0.802494591,1.31549167 0.745430871,1.25828385 L0.087324784,0.599601364 C-0.0269467568,0.485329823 -0.0269467568,0.300016832 0.087324784,0.186033492 C0.201596325,0.0717619512 0.386765215,0.0721942521 0.500604455,0.186321693 L1.15914284,0.84486008 C1.27341438,0.959275722 1.27341438,1.14444461 1.15871054,1.25857205 C1.10193502,1.31549167 1.02729106,1.34387943 0.952358907,1.34387943" mask="url(#h)"/>
      </g>
      <g opacity=".5" transform="translate(44.527 12.969)">
        <mask id="j" fill="white">
          <use xlink:href="#i"/>
        </mask>
        <path fill="#FFFFFF" fill-rule="nonzero" d="M0.408956662,1.38206601 C0.334168604,1.38206601 0.259380547,1.35353415 0.202460927,1.29647043 C0.0881893859,1.18263119 0.0881893859,0.997318202 0.202460927,0.883046661 L0.860567014,0.224508273 C0.974406254,0.110380833 1.15986334,0.110092632 1.27384668,0.224508273 C1.38797413,0.338491613 1.38797413,0.523804604 1.27384668,0.637787944 L0.615884698,1.29647043 C0.558965078,1.35353415 0.48388882,1.38206601 0.408956662,1.38206601" mask="url(#j)"/>
      </g>
    </g>
    <g fill="#000000" transform="translate(74.775 19.091)">
      <path d="M.139342338 14.7016865C.139342338 18.3935133 1.76484259 20.0465913 4.90565736 20.0465913 7.63318177 20.0465913 9.45151747 18.2282139 10.0301073 16.8506628L10.085221 16.8506628C10.085221 16.8506628 10.0301073 17.2914891 10.0301073 17.8700372L10.0301073 19.7159507 12.6198682 19.7159507 12.6198682 5.77522395 9.94745755 5.77522395 9.94745755 12.3047609C9.94745755 15.0598631 8.26684358 17.5669743 5.42909172 17.5669743 3.19750738 17.5669743 2.81179475 16.0241655 2.81179475 14.0956024L2.81179475 5.77522395.139342338 5.77522395.139342338 14.7016865zM18.1843935 19.7159507L20.856846 19.7159507 20.856846 13.1864137C20.856846 12.4976381 20.9119597 11.8639763 21.0772591 11.3129642 21.6558072 9.30175135 23.3639572 7.89666428 25.4853975 7.89666428 27.7170236 7.89666428 28.1302722 9.43947308 28.1302722 11.395614L28.1302722 19.7159507 30.8026829 19.7159507 30.8026829 10.7894881C30.8026829 7.23542475 29.2874101 5.44462505 26.0088319 5.44462505 22.9782446 5.44462505 21.3252083 7.4282602 20.7741962 8.64051182L20.7190825 8.64051182C20.7190825 8.64051182 20.7741962 8.17214946 20.7741962 7.62113738L20.7741962 5.77522395 18.1843935 5.77522395 18.1843935 19.7159507zM38.0096473 19.7159507L42.8585286 19.7159507 43.4647378 10.8446019C43.5748818 9.35682336 43.4647378 7.53848765 43.4647378 7.53848765L43.5198098 7.53848765C43.5198098 7.53848765 44.1810911 9.60481426 44.6216671 10.8446019L46.6881189 16.5475999 50.8206052 16.5475999 52.887057 10.8446019C53.3280502 9.60481426 53.9893315 7.53848765 53.9893315 7.53848765L54.0444035 7.53848765C54.0444035 7.53848765 53.9342594 9.35682336 54.0444035 10.8446019L54.6501955 19.7159507 59.4719163 19.7159507 57.8739938.017112217 52.6392329.017112217 49.7738199 8.33744891C49.3332439 9.60481426 48.7821066 11.5884494 48.7821066 11.5884494L48.7270346 11.5884494C48.7270346 11.5884494 48.1758974 9.60481426 47.7353214 8.33744891L44.8699083.017112217 39.6351475.017112217 38.0096473 19.7159507zM63.2731362 12.6629376C63.2731362 17.098612 66.8544852 20.0465913 71.3178208 20.0465913 75.7811563 20.0465913 79.3629226 17.098612 79.3629226 12.6629376 79.3629226 8.19968546 75.7811563 5.19667587 71.2902848 5.19667587 66.8544852 5.19667587 63.2731362 8.19968546 63.2731362 12.6629376zM68.0944397 12.6629376C68.0944397 10.5139612 69.5822183 9.1639879 71.3178208 9.1639879 73.0534233 9.1639879 74.5412018 10.5139612 74.5412018 12.6629376 74.5412018 14.7843779 73.0534233 16.0792375 71.3178208 16.0792375 69.5822183 16.0792375 68.0944397 14.7843779 68.0944397 12.6629376zM83.2192145 19.7159507L87.9854461 19.7159507 87.9854461 13.4343628C87.9854461 12.7455873 88.0680541 12.1119255 88.2608061 11.5609134 88.6742633 10.3486618 89.5833686 9.52216453 91.0711471 9.52216453 92.1179324 9.52216453 92.6415337 10.0731766 92.6415337 11.395614L92.6415337 19.7159507 97.4077652 19.7159507 97.4077652 10.5139612C97.4077652 6.51911321 95.1760975 5.19667587 92.3111016 5.19667587 89.8036566 5.19667587 88.4539753 6.54664921 87.7926941 7.64867338L87.7376221 7.64867338C87.7376221 7.64867338 87.7926941 7.23542475 87.7926941 6.76706239L87.7926941 5.52727477 83.2192145 5.52727477 83.2192145 19.7159507zM101.043769 15.4731117C101.043769 18.2833276 103.220365 20.0465913 105.865073 20.0465913 108.84063 20.0465913 109.887415 17.9802647 109.887415 17.9802647L109.942904 17.9802647C109.942904 17.9802647 109.887415 18.3935133 109.887415 18.8618757L109.887415 19.7159507 114.240607 19.7159507 114.240607 10.9823236C114.240607 7.3731882 111.843723 5.19667587 107.848916 5.19667587 104.349758 5.19667587 101.897802 7.04254757 101.897802 7.04254757L103.550797 10.4037755C103.550797 10.4037755 105.589713 9.05376045 107.380387 9.05376045 108.56527 9.05376045 109.474375 9.43947308 109.474375 10.6241887L109.474375 10.8721379 109.281623 10.8721379C107.077491 10.8721379 101.043769 11.3405002 101.043769 15.4731117zM105.837537 15.2251625C105.837537 14.0404886 107.573139 13.5996623 109.088454 13.5996623L109.529447 13.5996623 109.529447 13.9027252C109.529447 15.0598631 108.42759 16.4098782 107.187635 16.4098782 106.250994 16.4098782 105.837537 15.8864021 105.837537 15.2251625zM117.821538 17.952687C117.821538 17.952687 119.943062 20.0465913 123.496875 20.0465913 127.16125 20.0465913 129.310309 17.9802647 129.310309 15.5557614 129.310309 10.9823236 122.670378 10.8170242 122.670378 9.74253599 122.670378 9.24663763 123.359195 9.05376045 124.075549 9.05376045 126.059392 9.05376045 127.43661 10.2108983 127.43661 10.2108983L129.062068 6.82217612C129.062068 6.82217612 127.381538 5.19667587 124.075549 5.19667587 120.797095 5.19667587 118.234578 6.84971212 118.234578 9.52216453 118.234578 14.1506744 124.87451 14.2884378 124.87451 15.5282254 124.87451 15.9965878 124.185693 16.189465 123.469339 16.189465 121.430841 16.189465 119.860454 14.7568002 119.860454 14.7568002L117.821538 17.952687zM133.993098 14.481315C133.993098 19.2475883 138.373826 19.8537141 140.63303 19.8537141 141.404455 19.8537141 141.927639 19.7710644 141.927639 19.7710644L141.927639 15.6384529C141.927639 15.6384529 141.679815 15.6659889 141.294311 15.6659889 140.384789 15.6659889 138.75933 15.4455757 138.75933 13.8476115L138.75933 9.49458681 141.734887 9.49458681 141.734887 5.77522395 138.75933 5.77522395 138.75933 1.69768447 134.130778 1.69768447 134.130778 5.77522395 132.174888 5.77522395 132.174888 9.49458681 133.993098 9.49458681 133.993098 14.481315zM145.067995 12.6078239C145.067995 16.3823004 147.795311 20.0465913 152.864856 20.0465913 156.639374 20.0465913 158.926114 17.9802647 158.926114 17.9802647L157.162558 14.6466145C157.162558 14.6466145 155.289275 16.0792375 153.25036 16.0792375 151.735045 16.0792375 150.302339 15.2802763 149.944371 13.5445486L158.89816 13.5445486C158.89816 13.5445486 159.008722 12.5251741 159.008722 12.0568118 159.008722 8.11703574 156.639374 5.19667587 152.451398 5.19667587 147.877919 5.19667587 145.067995 8.44767636 145.067995 12.6078239zM150.054515 10.8170242C150.302339 9.77011371 150.96362 8.77827527 152.341254 8.77827527 153.470648 8.77827527 154.214537 9.74253599 154.214537 10.8170242L150.054515 10.8170242zM162.975158 19.7159507L167.741389 19.7159507 167.741389 14.3435516C167.741389 13.5721263 167.823997 12.9384645 167.989213 12.4149884 168.67803 10.2935481 170.524194 9.93541316 171.653587 9.93541316 172.232261 9.93541316 172.617765 10.0180629 172.617765 10.0180629L172.617765 5.3343976C172.617765 5.3343976 172.342405 5.27932559 172.067045 5.27932559 169.945521 5.27932559 168.154846 6.87724812 167.548637 8.80581127L167.493565 8.80581127C167.493565 8.80581127 167.548637 8.39256264 167.548637 7.92420028L167.548637 5.52727477 162.975158 5.52727477 162.975158 19.7159507zM175.289591 24.5098017C175.289591 24.5098017 176.722298 25.5016401 178.59558 25.5016401 180.854784 25.5016401 183.334276 24.3996159 184.519158 21.2312652L190.332592 5.52727477 185.125368 5.52727477 183.334276 12.1394615C183.141524 12.9108868 182.866164 14.2609018 182.866164 14.2609018L182.811092 14.2609018C182.811092 14.2609018 182.535315 12.828237 182.287491 12.0568118L180.193503 5.52727477 174.793526 5.52727477 180.827248 19.4404655 180.551888 20.1016633C180.055823 21.3139149 179.036574 21.5343281 178.265148 21.5343281 177.576331 21.5343281 176.804906 21.010852 176.804906 21.010852L175.289591 24.5098017z"/>
    </g>
  </g>
</svg>
