<svg xmlns="http://www.w3.org/2000/svg" width="265" height="112" viewBox="0 0 265 112">
  <path d="M39.0876427,82.2443912 C39.5296951,81.2214095 39.9698503,80.206062 40.4043139,79.2002572 C41.6640684,76.2801788 42.9959174,73.1387088 44.3922718,69.7987499 C44.0716415,69.9457081 43.749114,70.0945748 43.4322781,70.2358074 C41.1385383,71.2664233 39.047801,72.1825263 37.1638608,72.9802993 C35.2799206,73.7799809 33.3883916,74.5414916 31.4892736,75.2648313 C30.667777,75.5759246 29.9183748,75.8660239 29.2183004,76.1446719 C29.4156114,76.2324651 29.618614,76.3240754 29.8292055,76.427137 C30.7797131,76.8794629 31.8099039,77.4195819 32.9216753,78.0417686 C34.0315494,78.6639552 35.2116207,79.4178317 36.4580947,80.3014894 C37.345994,80.9313102 38.2187156,81.5821251 39.0876427,82.2443912 Z M72.4502693,84.3399769 C74.0610097,84.2063785 74.0534208,84.9411695 72.4293999,86.5462583 C71.8317753,86.87262 71.1449814,87.008127 70.3671209,86.948962 C69.5911577,86.8917055 68.984047,86.6016062 68.5495835,86.0843897 C68.1151199,85.5652647 67.8760701,84.9621635 67.8362285,84.2750863 C67.7963868,83.588009 67.8684812,82.7158026 68.0544089,81.6546499 C68.1682421,81.003835 68.3276086,80.3377518 68.5192279,79.6621258 C68.1473727,80.1583483 67.7660313,80.6564793 67.3638205,81.1565189 C66.7073821,81.9733774 65.8934744,82.891389 64.9239946,83.9143707 C63.9526176,84.9354439 62.8806879,85.9317059 61.7025138,86.9050654 C60.526237,87.8784248 59.3651379,88.7124603 58.2154221,89.4109889 C57.0676036,90.1095174 55.8135407,90.5809288 54.4551306,90.8271315 C53.0986178,91.0714256 51.8009188,91.0389803 50.5620337,90.7317041 C49.3250458,90.4225193 47.9856079,89.9434737 46.5418229,89.2926589 C45.098038,88.6456611 43.7339362,87.8517052 42.4476206,86.9146081 C41.3073909,86.0843897 40.2089001,85.2541714 39.1388676,84.4258615 C38.4160265,86.1111094 37.6742132,87.8154427 36.9153249,89.5388616 C35.40324,92.9742479 34.0827744,96.0489187 32.9558252,98.7647825 C31.8269789,101.478738 30.9352852,103.820526 30.2788468,105.78633 C29.6243056,107.754043 29.1860476,109.372492 28.9640728,110.639768 C27.8390209,112.575036 27.2357047,112.445254 27.152227,110.250424 C27.5999711,108.996508 28.2203623,107.391419 29.0096061,105.435158 C29.8007472,103.480805 30.796788,101.154285 31.999626,98.4555977 C33.2005667,95.7569109 34.5494907,92.6879657 36.0463978,89.2506708 C36.8394361,87.4280075 37.621091,85.6301553 38.3894654,83.8590228 C37.3004607,83.0249873 36.1829977,82.2348485 35.0294875,81.5076917 C33.7545552,80.7022844 32.566895,80.0342927 31.4627125,79.5018078 C30.3604273,78.9693229 29.309367,78.5666193 28.3095317,78.2936969 C27.3096963,78.0207745 26.5261442,77.8547309 25.956978,77.7974744 C25.7501809,77.7783889 25.5604588,77.7573949 25.3764284,77.7383094 C24.7427567,78.0131403 24.186871,78.2574345 23.731538,78.4635577 C23.1301191,78.7345715 22.6861694,78.6849492 22.3939974,78.3261422 C22.3864085,78.3261422 22.3769224,78.3299593 22.3674363,78.3299593 C22.0885449,78.356679 21.8589812,78.1181105 21.6825396,77.6142538 C21.5630147,77.2745323 21.6673619,77.0206954 21.9898894,76.8527432 C22.0088616,76.7153277 22.0411144,76.5893636 22.1056199,76.4824849 C22.3105197,76.148489 22.6501222,75.869841 23.1244274,75.6484494 C23.5968354,75.4289664 24.05786,75.3010937 24.5056041,75.2648313 C24.951451,75.2285689 25.3802228,75.1999406 25.7919197,75.173221 C26.1694667,75.1503184 26.6627441,75.2285689 27.2603686,75.4003382 C28.2715872,75.0625252 29.3966391,74.6636387 30.6525993,74.1884102 C32.54982,73.4707962 34.4603213,72.7417308 36.3803087,72.0031228 C38.3021933,71.2645147 40.4175944,70.3961254 42.7246148,69.3979548 C43.4626337,69.0792273 44.2158303,68.7452314 44.9766158,68.4036013 C46.5209535,64.6972011 48.0539079,61.0976796 49.56789,57.6107625 C51.1141249,54.0513205 52.6850237,50.4212623 54.2786891,46.7224963 C55.8742517,43.0237303 57.2098951,39.9147057 58.2875165,37.3992394 C59.3651379,34.8856818 60.1543817,32.8110901 60.6533508,31.177373 C61.1523198,29.543656 61.4824362,28.4042528 61.6418028,27.7591636 C61.8011693,27.1121659 61.9946858,26.621669 62.2204551,26.2876731 C63.844476,25.1940751 64.9562474,25.545248 65.5576664,27.3373745 C65.5690497,27.7419867 65.373636,28.2553861 64.9714252,28.8775727 C64.5692144,29.4978508 63.9032899,30.5494608 62.9774462,32.0285854 C62.0516025,33.5096187 60.9569061,35.471606 59.6933571,37.9126388 C58.4298081,40.3555803 56.9461815,43.4016228 55.2386828,47.0564922 C53.5292869,50.709453 51.9090604,54.3166087 50.3742088,57.8760507 C48.9740599,61.1224908 47.5492471,64.4662668 46.1035649,67.8959275 C47.3690112,67.3176375 48.6648129,66.7107192 49.9947647,66.0694471 C52.533246,64.849885 55.3373383,63.418474 58.4051442,61.7752142 C61.4748473,60.1338629 64.7001226,58.3073825 68.0847644,56.29959 C71.467509,54.289889 74.707962,52.2878222 77.8061234,50.2972067 C80.9042849,48.3065911 83.7728827,46.4037688 86.4119167,44.5906482 C89.0490535,42.7775276 91.3769434,41.1056396 93.3898946,39.5807098 C95.4028458,38.0519628 97.2241777,36.5594783 98.8481986,35.1032562 C100.474117,33.6470341 101.906518,32.2194402 103.147301,30.8166575 C104.386186,29.4138747 105.323413,28.1733185 105.957085,27.0949889 C106.592654,26.0166593 107.004351,24.9974947 107.197867,24.0394036 C107.391384,23.0813125 107.471067,22.2739967 107.438814,21.6136391 C107.406561,20.9551901 106.881031,20.2566615 105.862224,19.5180535 C104.843416,18.7813539 103.403426,18.1610759 101.542252,17.6591277 C99.6810785,17.1552711 97.4423581,16.7220307 94.8241934,16.3594066 C92.207926,15.9967824 89.4892087,15.800202 86.6718359,15.7677567 C83.8525659,15.7372199 80.913771,15.9013551 77.8554512,16.2601621 C74.7971314,16.6170605 71.7198393,17.1781736 68.6216779,17.9415928 C65.5254136,18.705012 62.4917577,19.6020296 59.5188128,20.6288284 C56.5477651,21.6556272 53.6279424,22.7873961 50.7612419,24.0241352 C47.8945413,25.2608743 45.0430186,26.5987665 42.2085708,28.0416287 C39.374123,29.4825824 36.5814141,31.0323234 33.830444,32.688943 C31.0775767,34.3436541 28.4366455,36.049896 25.9038558,37.8057602 C23.3710661,39.5597157 21.0052318,41.3213055 18.8044558,43.088621 C16.6036797,44.8578449 14.6514396,46.53355 12.9496326,48.1157363 C11.2478256,49.6979226 9.76040453,51.1904071 8.48736942,52.5931899 C7.2143343,53.9959726 6.17276012,55.2346203 5.36264686,56.3091328 C4.55253361,57.3836453 3.88281469,58.4715176 3.35538733,59.5765669 C2.82795996,60.6797076 2.49784355,61.6816953 2.3650381,62.58253 C2.23223265,63.4833646 2.16203548,64.1666248 2.15824104,64.6304019 C2.15254938,65.0960877 2.16013826,65.4854314 2.17911047,65.8003419 C1.58338316,67.2871007 0.894692032,67.3157289 0.111139868,65.8881351 C-0.0425350113,65.5808588 -0.0368433491,65.1094475 0.128214855,64.4758096 C0.29517028,63.8421716 0.543706196,63.0348558 0.873822604,62.0538622 C1.20583623,61.0728685 1.70859973,59.9964475 2.38401031,58.8265076 C3.05942089,57.6565676 3.84107583,56.5190731 4.72897514,55.4140238 C5.61497722,54.3089745 6.72485135,53.0779611 8.05480309,51.722892 C9.38475482,50.3678229 10.9177092,48.9116008 12.6574606,47.3542257 C14.3953148,45.7968505 16.3798077,44.1478651 18.6071448,42.4053608 C20.834482,40.664765 23.2249801,38.9203522 25.7748448,37.1721222 C28.3247094,35.4238923 30.9827157,33.7214675 33.7507607,32.0648479 C36.5169086,30.4082282 39.3247953,28.8546702 42.1725236,27.4041737 C45.0221491,25.9517687 47.8869524,24.6024253 50.770728,23.358052 C53.650709,22.1098616 56.5876067,20.972367 59.5795238,19.937934 C62.5695437,18.9073181 65.6278635,18.008392 68.7506889,17.2411557 C71.8735142,16.4739194 74.9792645,15.9051721 78.0717343,15.5368224 C81.1642041,15.1665641 84.1409435,14.9890691 87.0038496,15.0005204 C89.8667557,15.0100631 92.6253146,15.1913752 95.2776292,15.542548 C97.931841,15.8937209 100.248348,16.2887903 102.229046,16.7296649 C104.211642,17.172448 105.860326,17.7831834 107.1751,18.565688 C108.489874,19.3462841 109.33224,20.2604786 109.705993,21.3082715 C110.079745,22.3560643 110.09682,23.438211 109.759115,24.5604372 C109.419513,25.6807549 108.842757,26.8277922 108.023158,27.9996407 C107.203559,29.1714891 106.087993,30.4349479 104.676461,31.7861998 C103.263031,33.1393604 101.709207,34.5345089 100.014989,35.9773712 C98.3226685,37.4183249 96.4387283,38.891724 94.3669632,40.3975683 C92.293301,41.9034127 89.9084945,43.5409468 87.2068522,45.3082622 C84.5033126,47.0755777 81.5872844,48.9440461 78.4568702,50.9117591 C75.3264559,52.8794721 72.0594418,54.864362 68.6577251,56.8664288 C65.2541111,58.8684956 62.0269386,60.7045188 58.9743104,62.3725897 C55.9216823,64.0406606 53.1403567,65.5121511 50.6341281,66.7832441 C48.8754044,67.6764445 47.1735974,68.5066629 45.519221,69.2796248 C43.990061,72.9096831 42.5633511,76.3126241 41.239091,79.4731795 C40.7799636,80.5725032 40.3018639,81.6909123 39.8256615,82.8074129 C39.9300087,82.8894804 40.036253,82.9677309 40.1424974,83.0497985 C41.351027,83.9964382 42.5671455,84.922084 43.7889556,85.8248272 C45.0107658,86.7275704 46.3046703,87.4833554 47.6706693,88.0921822 C49.0366682,88.701009 50.2850394,89.1056212 51.4195774,89.3079273 C52.5522182,89.5102333 53.6905507,89.5140504 54.836472,89.3212871 C55.9823933,89.1285238 57.0695008,88.7162774 58.0977944,88.0864566 C59.1260881,87.4566357 60.2150928,86.6932165 61.3629113,85.7942904 C62.5126271,84.8953643 63.5447152,83.9506331 64.4591756,82.9600967 C65.3717387,81.9695603 66.1249354,81.0534573 66.7187655,80.2098791 C67.3125956,79.3643923 67.8950423,78.5341739 68.4661058,77.719224 C68.8569332,77.1581109 69.2098163,76.6485285 69.5456244,76.1618488 C69.6139243,75.8354871 69.6746354,75.511034 69.7182714,75.1961235 C69.8548713,74.1979529 70.332971,73.8047921 71.1506731,74.0185494 C71.1620564,74.020458 71.1715425,74.0242751 71.1829259,74.0280922 C71.2246647,73.9861041 71.2664036,73.940299 71.3062452,73.9002195 C71.7350171,73.4822475 72.2681361,73.5738578 72.9018078,74.1750504 C73.5335823,74.776243 73.539274,75.4824057 72.9169856,76.2897215 C72.2946972,77.0970373 71.759681,78.0150489 71.3119369,79.0456648 C70.86609,80.0743722 70.5985819,81.0343718 70.5151042,81.9256637 C70.4316264,82.8150471 70.5037208,83.4086055 70.7313873,83.706339 C70.9571566,84.0040724 71.1487759,84.2483666 71.3062452,84.4392214 C71.4637145,84.6319847 71.5813422,84.7102352 71.657231,84.6758813 C71.7331199,84.6415275 71.9987308,84.5289231 72.4502693,84.3399769 Z M83.8961453,84.816714 C84.504259,84.5023099 85.1526579,84.0192011 85.8432602,83.3673877 C86.5319442,82.7174914 87.4009522,81.7838645 88.4464474,80.5665072 C89.4919426,79.3491498 90.6314364,77.8691499 91.8668473,76.1284247 C92.7185902,74.9264041 93.5780064,73.6707047 94.4450961,72.3632437 C94.4872995,72.1964562 94.5371764,72.018166 94.6062366,71.8149536 C94.7712138,71.314591 94.8613758,71.0251091 94.8767225,70.944591 C94.8901509,70.86599 94.8326007,70.7586325 94.7021536,70.6263527 C94.5697881,70.4940729 94.2993022,70.3847983 93.8849408,70.3023631 C93.4705794,70.2199279 92.8087522,70.2371817 91.8975407,70.3560418 C90.9863293,70.4749019 90.0271594,70.7950573 89.0238677,71.3184252 C88.0186576,71.841793 86.9463056,72.5817929 85.8068117,73.5345907 C84.6673179,74.4873886 83.6793729,75.5532952 82.844895,76.7323106 C82.0123355,77.9113261 81.3274882,79.1171809 80.7941897,80.3537092 C80.2608913,81.5883205 79.9693036,82.6158852 79.9155901,83.432569 C79.8637949,84.25117 79.9059984,84.8186311 80.0479555,85.1368694 C80.186076,85.4570248 80.270483,85.5816362 80.2992581,85.5107036 C80.3261148,85.4397709 80.5275405,85.4340196 80.8996984,85.4934497 C81.2737747,85.5528797 81.7130745,85.5337087 82.2214346,85.4359367 C82.7297946,85.3381647 83.2880315,85.1330352 83.8961453,84.816714 Z M89.037296,81.5116366 C88.0282493,82.8612738 87.1438946,83.9367659 86.384232,84.7361959 C85.6264878,85.5356258 84.8553152,86.1740196 84.0707142,86.6532941 C83.2880315,87.1306516 82.5264506,87.469978 81.7859714,87.6712733 C81.0493289,87.8725686 80.3337882,87.9799261 79.6412675,87.9990971 C78.9506652,88.016351 78.3310414,87.7862992 77.7843145,87.3108588 C77.2375877,86.8335014 76.9766935,86.241118 77.0016319,85.5356258 C77.0265703,84.8282166 77.1915475,84.0096156 77.4946452,83.0779059 C77.7977429,82.1461961 78.2523895,81.0266107 78.8566665,79.7172326 C79.4590252,78.4078545 80.2148511,77.1214816 81.1183892,75.8600309 C82.0219272,74.5966632 83.036729,73.4214819 84.1589578,72.3344872 C85.283105,71.2474925 86.3861504,70.3713786 87.468094,69.7042284 C88.5519561,69.0370782 89.5974513,68.5405498 90.6084164,68.2165602 C91.6155448,67.8925706 92.5171645,67.7660421 93.3113572,67.8388918 C94.1055499,67.9117416 94.7923156,68.1667156 95.3754909,68.603814 C95.7610772,68.8932959 96.0315631,69.2441248 96.206132,69.6447984 C96.7912257,68.7245912 97.3648093,67.8101353 97.9192095,66.9033479 C98.0803501,66.5851096 98.2357356,66.2764567 98.4045495,65.95055 C99.6898372,63.4679078 101.08447,60.7973899 102.588449,57.9351622 C104.090509,55.0729345 105.477468,52.5807068 106.745491,50.458479 C108.015432,48.3343341 109.151089,46.4018991 110.152463,44.6650081 C111.153836,42.9262 111.857867,41.4979618 112.262636,40.3783764 C112.669325,39.2607081 113.306213,38.8216926 114.173303,39.0651641 C114.336362,39.1130915 114.470646,39.1667703 114.587664,39.2281174 C114.906109,39.0268221 115.264838,39.1341796 115.66769,39.5693609 C116.247028,40.1943349 116.068623,40.9305007 115.134391,41.7797752 C114.198241,42.6290497 113.118216,43.8655781 111.894315,45.4931945 C110.925554,46.7814846 109.920344,48.2154741 108.880603,49.7836604 C108.151634,50.9703443 107.395808,52.2164581 106.607371,53.5354217 C105.393062,55.5656288 104.219038,57.5479084 103.085299,59.4822605 C102.960607,59.6950584 102.835915,59.9040221 102.711222,60.1187371 C101.514178,62.2908095 100.424561,64.3670269 99.4500447,66.3301355 C98.2184705,68.8166119 97.2247705,71.0538656 96.4689446,73.0457307 C95.715037,75.0356787 95.2680638,76.5674402 95.1318617,77.637181 C94.9975779,78.7088389 94.9649661,79.6635539 95.032108,80.5013258 C95.1011683,81.3390978 95.2546355,81.8030355 95.4905913,81.8931391 C95.7284654,81.9832428 96.3039674,81.9257298 97.2190155,81.7167661 C98.9819698,81.6937609 98.8323393,82.3302376 96.7643689,83.626196 C95.5903449,84.0498747 94.5947266,83.9310146 93.7794321,83.2676986 C92.9622194,82.6062997 92.5459396,81.7263516 92.5286746,80.6240201 C92.5114095,79.5236057 92.7339369,78.4155229 93.1962568,77.3016888 C93.4878445,76.5923625 93.8638391,75.7066631 94.320404,74.6445906 C94.2743638,74.4605492 94.2340787,74.2496684 94.2110586,73.9870259 L94.2110586,73.9851088 C93.5895165,74.9379067 92.9737294,75.8696164 92.3656157,76.778321 C91.1551432,78.5842276 90.0463428,80.1619994 89.037296,81.5116366 Z M112.019129,68.948904 C112.391072,68.6103848 112.677621,68.2776031 112.876876,67.9505592 C113.076132,67.6235152 113.222252,67.3213342 113.317136,67.0440162 C113.381657,66.8508498 113.429099,66.7360975 113.461359,66.6882841 C113.44428,66.6901966 113.429099,66.6921092 113.398736,66.6921092 C113.30575,66.6863716 112.907239,66.7552229 112.199407,66.8948382 C111.491576,67.036366 110.457345,67.6369029 109.096714,68.700274 C107.737981,69.7617326 106.466541,71.0985967 105.286189,72.703216 C104.105838,74.3116605 103.16649,75.8359532 102.471942,77.2780068 C101.775497,78.7200605 101.450995,79.6935423 101.500334,80.1965398 C101.545878,80.7014498 101.621785,80.8735782 101.722362,80.7167501 C101.822939,80.559922 101.969059,80.4929832 102.160724,80.5159336 C102.352389,80.5388841 102.78316,80.3629306 103.453038,79.9880732 C104.121019,79.6151282 104.785204,79.0910928 105.443696,78.4159669 C106.100291,77.7427536 106.89162,76.8381231 107.817683,75.7039881 C108.74185,74.5698531 109.666016,73.332441 110.588284,71.9860143 C110.59967,71.970714 110.612954,71.9496761 110.626238,71.9324632 C110.605363,71.672358 110.662293,71.316626 110.810312,70.8423166 C111.000079,70.5114475 111.157586,70.1977913 111.279037,69.9013479 C111.400488,69.6049045 111.647185,69.2874232 112.019129,68.948904 Z M132.202765,55.197756 C131.415231,57.0529178 130.737762,58.7837646 130.16087,60.4017718 C131.011027,59.2408612 131.944681,57.9537232 132.963731,56.5422701 C134.614705,54.2529622 136.275168,51.8909778 137.945119,49.4582295 C139.61507,47.0254812 141.102845,44.7342607 142.406545,42.5883931 C143.710246,40.4425255 144.746375,38.6466523 145.511136,37.2007736 C146.277796,35.7548949 146.85279,34.5442584 147.239915,33.5650389 C147.403115,33.1538433 147.534054,32.8095864 147.636529,32.5303559 C147.380343,32.7426476 147.046353,32.989365 146.62507,33.2743332 C145.414355,34.0928994 144.141017,35.25381 142.805056,36.7589774 C141.469096,38.2641447 140.144521,40.0447176 138.83323,42.104521 C137.521938,44.1643244 136.333996,46.2815039 135.273198,48.4598847 C134.210501,50.6382654 133.187656,52.8854975 132.202765,55.197756 Z M137.863519,65.927094 C137.106348,67.2792583 136.561717,68.5453585 136.20875,69.7292195 C136.70594,69.1458954 137.195539,68.5625713 137.664264,67.9735096 C138.413844,67.0325409 139.14255,66.0494964 139.850382,65.0243761 C140.558213,64.0011682 141.083868,63.0927127 141.43304,62.300922 C141.594342,61.9298896 141.73477,61.5913704 141.854323,61.2777142 C141.322975,61.6296212 140.774548,62.0867177 140.205246,62.6490039 C139.446178,63.4006313 138.666234,64.4926905 137.863519,65.927094 Z M146.004531,74.110844 C148.744769,73.2903652 148.720099,73.6116716 145.930522,75.0728506 C143.583102,76.0578076 141.421654,76.7386711 139.442382,77.1135286 C137.465008,77.488386 135.971541,77.3430331 134.965775,76.6793825 C134.202911,76.1744724 133.736083,75.4610958 133.5596,74.5373399 C132.904903,75.1895154 132.219844,75.8378658 131.494933,76.478566 C130.728274,77.1556044 129.955921,77.8249927 129.177876,78.4848183 C128.397933,79.1446439 127.580036,79.7470934 126.720391,80.2921667 C125.858848,80.83724 125.040952,80.961555 124.266702,80.6631991 C123.490554,80.3667557 123.088248,79.8006444 123.057885,78.9648653 C123.02942,78.1290862 123.186926,77.0848405 123.532303,75.8321281 C123.877679,74.5775032 124.285678,73.1985634 124.760096,71.693396 C125.207947,70.2647301 125.716523,68.7136618 126.283927,67.0459287 C126.120727,67.2696956 125.957527,67.4934626 125.798123,67.7114919 C124.754403,69.1382452 123.767614,70.4253833 122.837755,71.5748186 C121.907896,72.7242539 121.002706,73.8450012 120.122187,74.9351478 C119.241667,76.0252945 118.446543,76.9184497 117.738711,77.6184386 C117.028982,78.316515 116.334434,78.9266146 115.65317,79.4449124 C114.971906,79.9632102 114.235609,80.4298694 113.44428,80.8448902 C112.652951,81.2599109 111.882496,81.2197476 111.132916,80.7205752 C110.381438,80.2233153 110.049345,79.4774255 110.136638,78.4867308 C110.222033,77.4941236 110.48581,76.3676388 110.92607,75.1072762 C111.252469,74.1701326 111.671855,73.0857236 112.180431,71.8540492 C112.053287,71.9496761 111.926143,72.0586907 111.800896,72.1868308 C111.652878,72.2595072 111.520041,72.3130583 111.400488,72.351309 C111.320785,72.4717989 111.239185,72.599939 111.161381,72.7166038 C110.237215,74.1012813 109.330128,75.4151949 108.44012,76.6583445 C107.550112,77.9014942 106.741704,78.9094017 106.016793,79.6858922 C105.291882,80.4642951 104.513837,81.1814968 103.684554,81.843235 C102.855272,82.5030606 102.081022,82.8817431 101.359907,82.9754575 C100.640689,83.0710844 100.016355,82.8874807 99.4888023,82.4208215 C98.9631473,81.9560747 98.860673,81.2522608 99.1851748,80.307467 C99.507779,79.3645858 100.077081,78.1596869 100.891182,76.6908577 C101.703385,75.2239411 102.69397,73.6460972 103.861038,71.9592387 C105.028106,70.2723803 106.217946,68.7557376 107.430558,67.4073984 C108.643171,66.0590591 109.726741,65.1467785 110.683168,64.6724691 C111.639594,64.1962471 112.489751,64.0700196 113.233638,64.2899615 C113.977526,64.5118159 114.459534,64.970825 114.677767,65.6708139 C115.157878,64.8981485 115.634193,64.1216581 116.106713,63.3394301 C116.87527,61.7826242 117.655213,60.2066929 118.459826,58.5886858 C119.518727,56.4638561 120.549163,54.5168924 121.549236,52.7497073 C122.551206,50.9844348 123.581642,49.1522234 124.640543,47.2549857 C125.697546,45.3577481 126.534419,43.7665165 127.151163,42.4793784 C127.766008,41.1922404 128.526975,40.4329628 129.432164,40.1996332 C129.747178,40.1193066 129.967307,40.117394 130.109633,40.1843329 C130.375307,40.0160295 130.557483,40.1862454 130.65806,40.6949805 C130.819362,41.5116342 130.424646,42.4774659 129.473913,43.5886505 C128.523179,44.699835 127.435813,46.1591015 126.211815,47.9664499 C124.987817,49.7757108 123.894758,51.5620213 122.930741,53.3253813 C121.968621,55.0868287 120.926799,57.0165796 119.809071,59.1127212 C118.69324,61.2088628 117.651418,63.2648411 116.685503,65.2806561 C115.719588,67.2964712 114.888408,69.1956214 114.191963,70.9781068 C113.495517,72.7605922 113.034383,74.2581094 112.806662,75.4744835 C112.578942,76.6908577 112.512523,77.6413891 112.605509,78.3241651 C112.698495,79.0069412 112.757323,79.2861717 112.778197,79.1580317 C112.800969,79.0318042 113.070439,78.8788011 113.590401,78.6990226 C114.108465,78.519244 114.670176,78.2132379 115.279329,77.7790918 C115.888481,77.3449457 116.524201,76.8285604 117.186489,76.2280235 C117.846878,75.6274866 118.632514,74.8337833 119.539601,73.8507388 C120.448586,72.8657817 121.367059,71.8119733 122.293123,70.6912261 C123.221085,69.5685663 124.215465,68.3177664 125.274365,66.9350015 C125.894904,66.1279105 126.543908,65.273006 127.213786,64.3798508 C127.585729,63.3451677 127.974752,62.2894468 128.386547,61.2031252 C129.124741,59.2657242 129.982489,57.1294193 130.95979,54.796123 C131.937091,52.4647392 132.965629,50.1983817 134.039711,48.0008756 C135.117588,45.8014569 136.288452,43.640289 137.552301,41.5116342 C138.816151,39.384892 140.070512,37.5125173 141.31918,35.8964227 C142.567848,34.2803281 143.655213,32.8593124 144.583175,31.6352881 C145.509239,30.4093513 146.509312,29.8738407 147.581496,30.0249312 C148.653681,30.1779342 149.11861,30.6579812 148.974387,31.4631597 C148.832062,32.2702507 148.517048,33.1595809 148.031244,34.1330627 C147.543543,35.1084571 146.881255,36.2980557 146.042484,37.7037711 C145.203713,39.1094865 144.120143,40.8804967 142.789875,43.0168016 C141.459607,45.1531065 139.960447,47.444327 138.288598,49.8923756 C136.618647,52.3385117 134.975263,54.7330092 133.360344,57.0758682 C131.825128,59.3020624 130.485372,61.2146004 129.335383,62.8230448 C128.836295,64.3243872 128.36757,65.7740909 127.92731,67.1683311 C127.369395,68.9450789 126.894977,70.587949 126.504057,72.098854 C126.113136,73.6116716 125.809509,74.9600108 125.593174,76.1419593 C125.374942,77.3219952 125.378737,78.0659725 125.602663,78.366241 C125.826588,78.6703345 125.919574,78.7812617 125.88162,78.7009351 C125.841769,78.6206085 126.130215,78.4618679 126.746959,78.2228006 C127.361804,77.9856459 128.039273,77.5763628 128.777467,77.0006888 C129.513764,76.4231024 130.261447,75.8053526 131.018618,75.1474395 C131.777686,74.4876139 132.472234,73.8297009 133.107954,73.1679627 C133.240791,73.0283475 133.381219,72.881082 133.523544,72.7299915 C133.610837,71.6302822 133.838558,70.5554359 134.218092,69.5073651 C134.698203,68.1896264 135.269402,66.7380101 135.935485,65.1582537 C136.59967,63.5765848 137.305604,62.3162223 138.051389,61.3733411 C138.797174,60.4304598 139.474643,59.5946807 140.085693,58.8679163 C140.696743,58.1392394 141.459607,58.045525 142.374285,58.5886858 C143.287065,59.1337591 143.613465,59.8069725 143.355381,60.612151 C143.0954,61.4173294 142.742433,62.2244205 142.29648,63.0372491 C141.850528,63.8481652 141.262249,64.796784 140.529748,65.877368 C139.797247,66.9579519 139.045769,67.9754221 138.273416,68.9278661 C137.502962,69.8822225 136.715428,70.8614419 135.914611,71.8693495 C135.846294,71.9573262 135.779876,72.0357403 135.709662,72.1218045 C135.652732,72.5961139 135.616676,73.0646857 135.614778,73.5217823 C135.612881,74.6578298 135.901327,75.3176554 136.483912,75.5012591 C137.0646,75.6848627 138.222179,75.7231135 139.960447,75.6121863 C141.696816,75.5012591 143.712144,75.0020867 146.004531,74.110844 Z M170.100912,63.8174234 C170.582021,63.4511774 171.066903,63.0619211 171.553672,62.6573247 C171.504618,60.60558 171.42915,58.6056083 171.317834,56.6765848 C171.195199,54.5308817 171.104637,52.4465392 171.046149,50.4254748 C171.014075,49.3631696 170.995208,48.3545549 170.987662,47.3938782 C170.910307,47.4475687 170.836726,47.5012593 170.759371,47.5549498 C169.672631,48.3181221 168.580231,49.0755419 167.482172,49.823374 C166.384112,50.5712062 165.327559,51.2749355 164.308741,51.9326443 C163.291809,52.5922706 162.352232,53.2461444 161.488123,53.8942656 C160.625901,54.5423868 159.886314,55.2116008 159.27125,55.9019074 C158.654299,56.592214 158.152436,57.3151185 157.760003,58.0744558 C157.369455,58.8318755 157.095884,59.5892953 156.937401,60.34288 C156.780805,61.0964648 156.746844,61.8136166 156.837406,62.4924182 C156.929854,63.1712197 157.114751,63.8078358 157.395869,64.4022665 C157.675101,64.9966972 158.076968,65.5431899 158.601471,66.0417447 C159.127861,66.538382 159.678777,66.9276382 160.256108,67.2037609 C160.833438,67.4818011 161.565478,67.6026047 162.450341,67.5661719 C163.33709,67.529739 164.363455,67.2516988 165.535096,66.7339689 C166.704851,66.2143214 168.227418,65.2421396 170.100912,63.8174234 Z M171.863091,40.0593703 C171.82913,41.4227259 171.785736,42.8148443 171.736682,44.2261378 C171.880071,44.1091692 172.031007,43.9922006 172.17251,43.8752319 C173.102653,43.102472 173.951669,42.3776501 174.717669,41.7046011 C175.48367,41.0315522 176.159108,40.3776784 176.743986,39.7448973 C177.33075,39.1121162 177.843932,38.4774176 178.287307,37.8408015 C178.728795,37.2041854 179.075948,36.533054 179.328766,35.8274072 C179.579697,35.1217604 179.730633,34.4218662 179.775914,33.7296421 C179.823081,33.0335829 179.747613,32.3950492 179.545736,31.8140412 C179.345746,31.2311156 179.087268,30.755571 178.770302,30.3912425 C178.45145,30.0249965 178.066563,29.7507914 177.609981,29.5647921 C177.155286,29.3787928 176.659084,29.298257 176.125148,29.3251023 C175.589325,29.3519475 175.106329,29.3998855 174.672388,29.4650811 C174.240334,29.5321943 173.802619,29.6721731 173.361131,29.8907702 C172.919643,30.1074498 172.581924,30.2359235 172.34986,30.2761914 C172.117795,30.3164593 172.014027,30.3452221 172.032894,30.3643973 C172.053648,30.3816549 172.063081,30.5791593 172.061194,30.9549929 C172.059308,31.332744 172.049874,31.9233397 172.036667,32.7286974 C172.021574,33.5321377 171.998933,34.561845 171.968746,35.8139846 C171.938559,37.0661241 171.902711,38.4812527 171.863091,40.0593703 Z M186.96047,46.3660884 C185.63412,48.1397929 183.979483,50.2164653 182.000334,52.5961057 C180.021185,54.9776635 178.053356,57.1981498 176.098734,59.2633172 C174.823324,60.6094151 173.563008,61.848132 172.315899,62.9967255 C172.321559,63.0810963 172.327219,63.1635496 172.332879,63.2498379 C172.491362,65.547025 172.617771,67.4338631 172.715879,68.9103523 C172.812101,70.3868414 172.936623,71.5814554 173.09322,72.4922767 C173.249816,73.4030979 173.238496,73.9860235 173.057372,74.2448885 C172.876249,74.5018359 172.797008,74.7913812 172.817761,75.1116068 C172.600791,76.2122624 172.268731,76.2908806 171.82347,75.3436265 C171.748002,75.0425761 171.61782,74.7434433 171.43481,74.4423929 C171.2518,74.139425 171.217839,73.5277366 171.331041,72.6034927 C171.444243,71.6811664 171.525371,70.4807998 171.574426,69.0043107 C171.619706,67.5987697 171.621593,65.8173951 171.580086,63.6678569 C171.163125,64.041773 170.748051,64.408019 170.334863,64.7570074 C168.448162,66.3562177 166.83692,67.4952237 165.503022,68.1797778 C164.169125,68.8624143 162.910696,69.2727632 161.731508,69.4108246 C160.550433,69.5469684 159.527841,69.4108246 158.663732,69.0004756 C157.799623,68.5920442 157.027963,68.0743142 156.34875,67.4492032 C155.669538,66.8240922 155.129942,66.0916002 154.731848,65.2536447 C154.335641,64.4156891 154.099803,63.5393832 154.026222,62.628562 C153.95264,61.7177407 154.033768,60.7915793 154.271493,59.8519953 C154.509217,58.9104938 154.87901,57.99392 155.380873,57.1041914 C155.880849,56.2125454 156.511007,55.3841774 157.271347,54.6190876 C158.029801,53.8539977 158.884476,53.1387634 159.835373,52.4733845 C160.786271,51.8080056 161.784335,51.1579669 162.827681,50.5251858 C163.872913,49.8904872 164.933239,49.2059331 166.014318,48.4696061 C167.095398,47.7313615 168.15761,46.9739417 169.204729,46.1992643 C169.823567,45.7409774 170.414105,45.2826905 170.991435,44.8263211 C171.014075,43.202183 171.038603,41.6163953 171.06879,40.076628 C171.09709,38.5061804 171.104637,37.1025569 171.08577,35.8657576 C171.06879,34.6270407 171.017849,33.6471888 170.934834,32.9185318 C170.849932,32.1917923 170.774464,31.532166 170.704656,30.9358177 C170.636735,30.341387 170.783898,29.7872242 171.149918,29.2771643 C171.515938,28.7671044 171.870638,28.3797657 172.215904,28.1132306 C172.56117,27.8486131 173.004545,27.6396036 173.544141,27.4862021 C174.083738,27.3328007 174.645974,27.2062444 175.227078,27.108451 C175.810069,27.0106576 176.459094,26.9780597 177.174153,27.0144926 C177.887326,27.0509254 178.621253,27.2311722 179.37216,27.5590678 C180.123067,27.8869635 180.773978,28.362508 181.321122,28.9895366 C181.868265,29.6165651 182.255039,30.3701498 182.481443,31.2483732 C182.70596,32.1265967 182.771995,33.0259128 182.681433,33.9463216 C182.588985,34.8667305 182.377674,35.7622116 182.045615,36.6327649 C181.711669,37.5014008 181.281501,38.3125111 180.755111,39.0660958 C180.226835,39.817763 179.624978,40.5329974 178.947652,41.2117989 C178.270327,41.8906004 177.508099,42.5598143 176.659084,43.2175231 C175.810069,43.8771495 174.885585,44.5732086 173.887521,45.3076182 C173.172461,45.8330182 172.427214,46.3680059 171.670647,46.9087461 C171.659327,47.995979 171.664987,49.1407375 171.693288,50.3621967 C171.740455,52.3660035 171.81781,54.4407584 171.929125,56.5864615 C172.019687,58.3524959 172.131002,60.1818085 172.255525,62.0494714 C173.432826,61.0274341 174.623334,59.9056858 175.830822,58.6573813 C177.776011,56.643987 179.73818,54.458016 181.715442,52.1033034 C183.692705,49.7485908 185.322814,47.6661658 186.603884,45.857946 C188.337762,43.7870261 188.456624,43.9557677 186.96047,46.3660884 Z M230.807732,54.5494737 C231.131146,53.4429474 231.260512,52.4197895 231.197732,51.4837895 C231.133049,50.5458947 230.95422,49.9016842 230.661244,49.5511579 C230.368268,49.1987368 230.014415,49.0490526 229.599683,49.1021053 C229.184951,49.1551579 228.589488,49.4677895 227.817098,50.0437895 C227.735293,50.076 227.661098,50.1025263 227.583098,50.1290526 C227.276805,50.7732632 226.865878,51.5652632 226.348415,52.5145263 C225.817634,53.4846316 225.309683,54.5324211 224.826463,55.656 C224.345146,56.7814737 223.917098,57.9145263 223.54422,59.0589474 C223.171341,60.2052632 222.965878,61.1924211 222.924024,62.0242105 C222.882171,62.8541053 222.918317,63.4035789 223.030561,63.6707368 C223.144707,63.9397895 223.275976,64.0383158 223.426268,63.9682105 C223.576561,63.9 223.924707,63.7332632 224.47261,63.4717895 C225.020512,63.2122105 225.61978,62.784 226.272317,62.1909474 C226.922951,61.596 227.52222,60.9195789 228.070122,60.1597895 C228.616122,59.4018947 229.127878,58.5530526 229.60539,57.6151579 C230.084805,56.6791579 230.484317,55.656 230.807732,54.5494737 Z M243.127927,54.2444211 C242.998561,54.9378947 242.930073,55.6256842 242.907244,56.3134737 C243.628268,55.5574737 244.318854,54.7541053 244.977098,53.8901053 C245.675293,52.9730526 246.28978,52.0635789 246.822463,51.1635789 C247.353244,50.2635789 247.748951,49.4261053 248.007683,48.6511579 C248.264512,47.8781053 248.447146,47.2225263 248.555585,46.6863158 C248.580317,46.5593684 248.605049,46.4475789 248.62978,46.3471579 C248.612659,46.3528421 248.601244,46.3585263 248.58222,46.3642105 C248.209341,46.4589474 247.748951,46.7128421 247.197244,47.1277895 C246.643634,47.5408421 246.168024,48.0069474 245.764707,48.5261053 C245.36139,49.0471579 244.880073,49.8126316 244.320756,50.8225263 C243.759537,51.8343158 243.361927,52.9749474 243.127927,54.2444211 Z M214.364951,54.8602105 C214.155683,54.4149474 213.86461,53.9810526 213.491732,53.5566316 C213.155,53.1738947 212.785927,52.8442105 212.39022,52.5505263 C212.316024,52.7778947 212.177146,53.0185263 211.958366,53.2781053 C211.300122,54.0568421 210.577195,55.3206316 209.789585,57.0656842 C209.001976,58.8126316 208.402707,60.4837895 207.995585,62.0810526 C207.586561,63.6783158 207.403927,65.0103158 207.44578,66.0770526 C207.487634,67.1456842 207.613195,67.68 207.820561,67.68 C208.029829,67.68 208.280951,67.7084211 208.573927,67.7671579 C208.868805,67.8258947 209.268317,67.7861053 209.776268,67.6496842 C210.282317,67.5113684 210.80739,67.2631579 211.347683,66.9050526 C211.889878,66.5469474 212.363585,66.1130526 212.77261,65.6033684 C213.181634,65.0936842 213.510756,64.4797895 213.761878,63.756 C214.013,63.0341053 214.233683,62.2193684 214.422024,61.3117895 C214.612268,60.4042105 214.741634,59.5231579 214.810122,58.6648421 C214.87861,57.8084211 214.874805,57.0713684 214.794902,56.4536842 C214.716902,55.8378947 214.57422,55.3054737 214.364951,54.8602105 Z M262.841,0.166736842 C263.796024,0.405473684 264.286854,0.712421053 264.313488,1.09326316 C264.340122,1.47221053 264.22978,1.86442105 263.980561,2.27368421 C263.972951,2.27936842 263.967244,2.28315789 263.959634,2.28694737 C263.649537,2.80989474 263.099732,3.44842105 262.295,4.212 C260.617049,5.79978947 258.788805,7.99957895 256.812171,10.8094737 C254.835537,13.6193684 252.729537,16.8290526 250.497976,20.4423158 C248.264512,24.0536842 246.276463,27.4433684 244.531927,30.6113684 C242.789293,33.7812632 241.225488,36.6783158 239.840512,39.3044211 C238.455537,41.9286316 237.287439,44.2345263 236.338122,46.2202105 C235.386902,48.2058947 234.608805,49.9869474 234.001927,51.5652632 C233.395049,53.1416842 232.852854,54.7105263 232.375341,56.2736842 C231.897829,57.8349474 231.644805,59.1991579 231.618171,60.3606316 C231.591537,61.524 231.698073,62.4258947 231.93778,63.0663158 C232.177488,63.7067368 232.360122,64.0402105 232.485683,64.0705263 C232.609341,64.1008421 232.774854,64.0875789 232.984122,64.0345263 C233.189585,63.9833684 233.484463,63.8507368 233.864951,63.6404211 C234.245439,63.4301053 234.683,63.1534737 235.175732,62.8124211 C235.670366,62.4713684 236.189732,62.0791579 236.737634,61.6357895 C237.283634,61.1943158 237.884805,60.7225263 238.539244,60.2223158 C239.195585,59.7221053 239.872854,59.1688421 240.571049,58.5625263 C240.67378,58.4734737 240.780317,58.3768421 240.884951,58.2821053 C240.881146,58.248 240.873537,58.2176842 240.869732,58.1835789 C240.721341,56.7492632 240.747976,55.3301053 240.949634,53.9223158 C241.14939,52.5183158 241.446171,51.2052632 241.836171,49.9888421 C242.226171,48.7724211 242.677049,47.8345263 243.183098,47.1770526 C243.691049,46.5195789 244.218024,45.8924211 244.762122,45.2955789 C245.308122,44.6987368 245.867439,44.2383158 246.440073,43.9124211 C247.012707,43.5865263 247.650024,43.5145263 248.352024,43.6964211 C249.054024,43.8783158 249.51822,44.3216842 249.750317,45.0246316 C249.97861,45.7275789 249.993829,46.4021053 249.797878,47.0444211 C249.600024,47.6867368 249.333683,48.4256842 248.996951,49.2574737 C248.662122,50.0892632 248.197927,50.9854737 247.610073,51.948 C247.018415,52.9105263 246.360171,53.8768421 245.633439,54.8431579 C244.906707,55.8113684 244.149537,56.7341053 243.360024,57.6132632 C243.226854,57.7629474 243.093683,57.9050526 242.962415,58.0490526 C243.087976,59.2882105 243.449439,60.2109474 244.046805,60.8115789 C244.649878,61.416 245.551634,61.8498947 246.748268,62.1094737 C247.946805,62.3690526 249.504902,62.3652632 251.420659,62.0962105 C253.848171,62.0526316 253.72261,62.4675789 251.04778,63.3410526 C249.023585,63.7370526 247.242902,63.8204211 245.709537,63.5911579 C244.176171,63.3637895 243.02139,62.7631579 242.249,61.7930526 C241.792415,61.2208421 241.459488,60.5557895 241.221683,59.8206316 C241.177927,59.8623158 241.132268,59.9058947 241.088512,59.9475789 C240.363683,60.624 239.678805,61.2341053 239.031976,61.776 C238.385146,62.3197895 237.789683,62.8256842 237.24939,63.2936842 C236.707195,63.7616842 236.170707,64.2069474 235.639927,64.6313684 C235.107244,65.0538947 234.580268,65.4233684 234.057098,65.7378947 C233.535829,66.0505263 232.915634,66.2684211 232.200317,66.3858947 C231.483098,66.5052632 230.862902,66.2741053 230.334024,65.6943158 C229.805146,65.1145263 229.500756,64.3774737 229.420854,63.4831579 C229.340951,62.5888421 229.39422,61.4993684 229.580659,60.2204211 C229.593976,60.1294737 229.614902,60.0309474 229.62822,59.9381053 C229.373293,60.372 229.105049,60.7869474 228.827293,61.1791579 C228.22422,62.028 227.558366,62.8256842 226.833537,63.5684211 C226.106805,64.3111579 225.355341,64.9212632 224.577244,65.4006316 C223.797244,65.8781053 222.956366,66.0618947 222.050805,65.952 C221.145244,65.8402105 220.595439,65.3532632 220.405195,64.4892632 C220.213049,63.6252632 220.226366,62.7157895 220.441341,61.7608421 C220.656317,60.804 220.956902,59.7258947 221.345,58.5246316 C221.731195,57.3233684 222.136415,56.1448421 222.560659,54.9852632 C222.983,53.8256842 223.317829,52.7362105 223.567049,51.7149474 C223.783927,50.8282105 223.896171,50.1574737 223.919,49.68 C223.688805,49.7482105 223.426268,49.824 223.118073,49.9111579 C222.416073,50.1063158 221.670317,50.3204211 220.878902,50.5515789 C220.087488,50.7846316 219.197146,51.0157895 218.213585,51.2431579 C217.228122,51.4724211 216.117098,51.6164211 214.880512,51.6751579 C214.581829,51.6903158 214.292659,51.7035789 214.011098,51.7187368 C214.102415,51.8134737 214.201341,51.8968421 214.288854,51.9953684 C214.789195,52.5505263 215.186805,53.1814737 215.481683,53.8844211 C215.778463,54.5892632 215.949683,55.3395789 216.001049,56.1410526 C216.052415,56.9425263 216.031488,57.8122105 215.945878,58.7501053 C215.856463,59.688 215.725195,60.6410526 215.548268,61.6130526 C215.371341,62.5831579 215.137341,63.5115789 214.842463,64.4002105 C214.549488,65.2888421 214.125244,66.0903158 213.569732,66.8027368 C213.01422,67.5170526 212.39022,68.1195789 211.695829,68.6084211 C211.001439,69.0972632 210.259488,69.4932632 209.468073,69.7964211 C208.674756,70.0976842 207.927098,70.2113684 207.223195,70.1317895 C206.519293,70.0541053 205.999927,69.6656842 205.665098,68.9646316 C205.328366,68.2654737 205.233244,67.2972632 205.374024,66.0618947 C205.516707,64.8265263 205.828707,63.3884211 206.308122,61.7475789 C206.523098,61.0105263 206.739976,60.2488421 206.956854,59.4682105 C206.911195,59.5345263 206.871244,59.5989474 206.827488,59.6671579 C206.032268,60.8703158 205.18378,62.0450526 204.285829,63.1913684 C203.387878,64.3376842 202.40622,65.4498947 201.338951,66.5317895 C200.273585,67.6117895 199.193,68.5553684 198.095293,69.3606316 C196.997585,70.1658947 195.896073,70.7703158 194.790756,71.1701053 C193.687341,71.5698947 192.652415,71.7214737 191.68978,71.6229474 C190.729049,71.5244211 189.975683,71.1606316 189.431585,70.5277895 C188.88939,69.8968421 188.661098,68.9987368 188.744805,67.8372632 C188.828512,66.6738947 189.241341,64.9117895 189.983293,62.5490526 C190.725244,60.1863158 191.727829,57.4616842 192.991049,54.3789474 C194.252366,51.2943158 195.825683,47.8818947 197.707195,44.1397895 C199.588707,40.3995789 201.51778,36.8905263 203.49822,33.6126316 C205.476756,30.3347368 207.529488,27.1307368 209.658317,24.0025263 C211.787146,20.8762105 213.731439,18.1743158 215.491195,15.9006316 C217.250951,13.6250526 218.822366,11.7454737 220.203537,10.2581053 C221.584707,8.76884211 222.908805,7.67368421 224.172024,6.97073684 C225.437146,6.26778947 226.671829,6.07831579 227.877976,6.40610526 C229.084122,6.73389474 230.014415,7.45768421 230.668854,8.57368421 C231.323293,9.69157895 231.635293,11.0501053 231.604854,12.6435789 C231.574415,14.2408421 231.294756,15.7812632 230.76778,17.2648421 C230.238902,18.7503158 229.531195,20.3172632 228.642756,21.96 C227.754317,23.6046316 226.860171,25.1166316 225.964122,26.496 C225.066171,27.8753684 224.354659,28.9781053 223.829585,29.8042105 C223.30261,30.6303158 222.847927,31.2442105 222.465537,31.644 C220.924561,32.4189474 220.481293,31.8903158 221.137634,30.0618947 C221.510512,29.6223158 222.014659,29.0614737 222.653878,28.3812632 C223.293098,27.7010526 224.111146,26.7517895 225.106122,25.5315789 C226.101098,24.3113684 227.050415,22.9168421 227.955976,21.3517895 C228.861537,19.7848421 229.554024,18.3069474 230.033439,16.9143158 C230.514756,15.5235789 230.769683,14.1214737 230.800122,12.7061053 C230.828659,11.2926316 230.598463,10.2164211 230.101927,9.47557895 C229.609195,8.73473684 228.977585,8.26673684 228.210902,8.07347368 C227.44422,7.87831579 226.531049,8.03178947 225.47139,8.532 C224.411732,9.036 223.137098,9.94926316 221.64939,11.2793684 C220.161683,12.6075789 218.489439,14.364 216.630756,16.5486316 C214.772073,18.7351579 212.744073,21.3669474 210.548659,24.4458947 C208.351341,27.5248421 206.266268,30.6947368 204.293439,33.9574737 C202.32061,37.2202105 200.385829,40.7122105 198.489098,44.4315789 C196.590463,48.1509474 195.045683,51.552 193.852854,54.6347368 C192.660024,57.7193684 191.750659,60.4326316 191.122854,62.7745263 C190.495049,65.1164211 190.312415,66.6928421 190.578756,67.5056842 C190.841293,68.3185263 191.168512,68.8509474 191.558512,69.1048421 C191.94661,69.3568421 192.408902,69.5235789 192.943488,69.6050526 C193.478073,69.6865263 194.180073,69.6126316 195.047585,69.3795789 C195.915098,69.1484211 196.849195,68.6955789 197.847976,68.0248421 C198.846756,67.3541053 199.862659,66.5204211 200.895683,65.5218947 C201.926805,64.5233684 202.87422,63.468 203.737927,62.3538947 C204.601634,61.2416842 205.419683,60.0991579 206.193976,58.9263158 C206.825585,57.9694737 207.363976,57.0789474 207.820561,56.2471579 C208.269537,54.5058947 208.570122,53.1492632 208.71661,52.1867368 C208.866902,51.1995789 209.315878,50.7770526 210.059732,50.9153684 C210.054024,50.8869474 210.046415,50.8623158 210.04261,50.8357895 C209.958902,50.0892632 210.219537,49.7425263 210.828317,49.7955789 C211.016659,49.8126316 211.206902,49.8524211 211.395244,49.9054737 C211.787146,49.4488421 212.293195,49.3086316 212.917195,49.4924211 C213.617293,49.6970526 214.509537,49.8315789 215.593927,49.8903158 C216.678317,49.9490526 217.656171,49.8467368 218.52939,49.5833684 C219.404512,49.32 220.249195,49.0471579 221.065341,48.7667368 C221.88339,48.4844211 222.640561,48.2267368 223.340659,47.9898947 C224.038854,47.7530526 224.70661,47.5768421 225.342024,47.4612632 C225.794805,47.3778947 226.234268,47.4821053 226.66422,47.7644211 C227.271098,47.3778947 227.935049,47.1562105 228.659878,47.1069474 C229.717634,47.0368421 230.554707,47.4176842 231.16539,48.2494737 C231.777976,49.0831579 232.110902,50.0892632 232.164171,51.2734737 C232.17178,51.4383158 232.166073,51.6050526 232.166073,51.7736842 C232.268805,51.5444211 232.365829,51.3132632 232.472366,51.084 C233.199098,49.5113684 234.093244,47.7454737 235.152902,45.7844211 C236.210659,43.8252632 237.462463,41.5421053 238.904512,38.9368421 C240.348463,36.3296842 241.961732,33.4496842 243.748122,30.2911579 C245.53261,27.1345263 247.518756,23.7334737 249.702756,20.0917895 C251.886756,16.4482105 253.903341,13.1835789 255.752512,10.296 C257.601683,7.40842105 259.007585,4.93768421 259.968317,2.88757895 C260.929049,0.837473684 261.885976,-0.0701052632 262.841,0.166736842 Z"/>
</svg>
