<svg xmlns="http://www.w3.org/2000/svg" width="137" height="86" viewBox="0 0 137 86">
  <g fill="#000000" transform="translate(-.21 .593)">
    <path d="M118.198711,84.837436 C117.756081,84.6898927 117.460995,84.1734909 117.460995,83.7308608 L117.460995,72.3700215 C115.838018,72.6651083 112.44452,74.4356287 110.674,74.5094003 C86.1818008,76.0586057 61.8371453,75.5422039 37.2711747,74.1405419 C29.3776045,73.6979118 24.5824451,70.2306427 20.5987742,66.6896019 C20.0823724,66.2469718 19.6397423,65.6567983 20.0823724,65.2141682 C20.5250025,64.6977664 20.9676326,64.9190815 21.4840344,65.2879399 C25.0988469,68.4601223 30.6317231,69.935556 38.0088915,70.3781861 C62.5010904,71.7798481 87.2883761,71.7060764 111.706803,70.156871 C113.846182,70.0093276 115.911789,70.156871 117.829853,69.7142409 C118.198711,69.6404692 118.493798,69.7142409 118.788885,69.935556 C119.083972,70.156871 119.231515,70.5257294 119.231515,70.8945879 L119.305287,81.5177103 C124.69062,74.5094003 129.928409,65.6567983 131.551386,61.8944425 C134.502254,54.9599042 134.79734,45.9597588 134.79734,37.2547002 C134.207167,25.2299158 133.248135,17.9265191 129.854637,13.9428482 C126.387368,9.81163391 119.89546,7.22962498 111.706803,6.49190815 C87.2146044,4.27875764 62.4273187,4.20498596 38.0088915,6.19682141 C31.2956683,6.78699488 25.9841071,8.18865687 22.3692946,11.0657525 C21.8528928,11.5083826 21.7791211,11.3608393 21.336491,10.8444375 C20.9676326,10.3280357 21.6315777,9.51654717 22.1479795,9.14768876 C26.1316504,5.97550636 30.5579515,2.50823724 37.7875764,1.91806377 C62.353547,-0.147543367 87.2883761,-0.811488519 111.780575,1.47543367 C120.559405,2.28692219 127.272629,7.45094003 131.108756,12.0985561 C134.871112,16.6724005 135.977687,24.3446556 136.567861,36.8858418 L136.567861,36.9596134 C136.567861,45.8859871 136.272774,55.1812193 133.174363,62.5583876 C131.256299,66.9846886 125.797195,75.9110623 119.379058,83.7308608 C119.157743,84.0259475 118.346255,84.9112077 118.198711,84.837436"/>
    <g transform="translate(85.74 13.279)">
      <path d="M0.516401785,0.295086734 L11.9510127,0.295086734 L22.6479068,19.3281811 L23.0167653,19.3281811 C22.5741352,16.4510854 21.9839617,13.5002181 21.9839617,10.5493507 L21.9839617,0.221315051 L33.3448009,0.221315051 L33.3448009,34.6726912 L21.9839617,34.6726912 L11.5083826,16.5986288 L11.1395242,16.5986288 C11.5083826,18.9593227 11.877241,21.1724732 11.877241,23.4593954 L11.877241,34.6726912 L0.516401785,34.6726912 L0.516401785,0.295086734 L0.516401785,0.295086734 Z"/>
      <path d="M21.9839617,8.85260202 L33.3448009,8.85260202 L33.3448009,20.508528 L21.9839617,20.508528 L21.9839617,8.85260202 Z M0.516401785,11.9510127 L11.877241,11.9510127 L11.877241,23.6069387 L0.516401785,23.6069387 L0.516401785,11.9510127 Z"/>
    </g>
    <path d="M46.9352652,28.9184999 L48.1156121,28.9184999 C50.1812193,28.9184999 52.4681415,28.5496415 52.4681415,25.7463175 C52.4681415,23.0905369 50.0336759,22.9429936 48.1156121,22.9429936 L47.0090369,22.9429936 L47.0090369,28.9184999 L46.9352652,28.9184999 Z M35.4268826,13.5739898 L50.476306,13.5739898 C58.1485611,13.5739898 63.755209,17.705204 63.755209,26.1889476 C63.755209,33.1972576 59.5502231,37.5497869 52.9107716,37.5497869 L46.8614935,37.5497869 L46.8614935,47.8778226 L35.4268826,47.8778226 L35.4268826,13.5739898 Z"/>
    <polygon points="62.501 13.574 84.559 13.574 84.559 22.943 74.526 22.943 74.526 26.263 83.674 26.263 83.674 35.189 74.526 35.189 74.526 38.509 84.854 38.509 84.854 47.952 62.501 47.952"/>
    <path d="M12.5576607,30.9841071 C12.5576607,34.8940063 15.0658979,37.6235586 18.6807104,37.6235586 C22.2955229,37.6235586 24.8037601,34.8940063 24.8037601,30.9841071 C24.8037601,27.3692946 22.4430663,24.2708839 18.6807104,24.2708839 C14.9183545,24.3446556 12.5576607,27.3692946 12.5576607,30.9841071 M36.8285445,30.8365637 C36.8285445,41.9023162 28.7136594,48.4679961 18.7544821,48.4679961 C8.79530482,48.4679961 0.68041963,41.8285445 0.68041963,30.8365637 C0.68041963,20.0658979 8.8690765,12.9838163 18.7544821,12.9838163 C28.6398877,12.9838163 36.8285445,19.9921262 36.8285445,30.8365637"/>
    <g transform="translate(45.165 43.525)">
      <path d="M2.65578061,9.00014539 L0.516401785,9.00014539 L0.516401785,6.63945152 L5.16401785,6.63945152 L5.16401785,8.33620024 C6.63945152,7.08208162 8.11488519,6.41813647 9.51654717,6.41813647 C10.9182092,6.41813647 12.0247844,7.1558533 12.6149579,8.55751529 C14.45925,7.08208162 15.7871403,6.41813647 17.1888023,6.41813647 C19.3281811,6.41813647 20.5822997,7.74602677 20.5822997,10.1067206 L20.5822997,17.705204 L22.7954502,17.705204 L22.7954502,20.0658979 L18.0740625,20.0658979 L18.0740625,10.7706658 C18.0740625,9.44277549 17.483889,8.77883034 16.5248571,8.77883034 C15.4920535,8.77883034 14.1641632,9.44277549 12.9100446,10.5493507 L12.9100446,17.7789757 L15.1231951,17.7789757 L15.1231951,20.1396696 L10.4018074,20.1396696 L10.4018074,10.8444375 C10.4018074,9.44277549 9.66409054,8.9263737 8.85260202,8.9263737 C7.96734182,8.9263737 6.78699488,9.44277549 5.23778953,10.5493507 L5.23778953,17.7789757 L7.45094003,17.7789757 L7.45094003,20.1396696 L0.368858418,20.1396696 L0.368858418,17.7789757 L2.72955229,17.7789757 L2.72955229,9.00014539 L2.65578061,9.00014539 Z M33.3448009,12.0985561 C32.9021708,9.95917727 31.1316504,8.40997192 29.139815,8.40997192 C27.1479795,8.40997192 25.5987742,9.88540559 25.2299158,12.0985561 L33.3448009,12.0985561 Z M25.1561441,14.0903916 C25.5250025,16.6724005 27.1479795,18.2216058 29.5086734,18.2216058 C31.1316504,18.2216058 32.6808558,17.483889 33.6398877,16.0084553 L35.8530382,17.0412589 C34.4513762,19.2544094 32.164454,20.508528 29.4349017,20.508528 C25.3036874,20.508528 22.2790484,17.5576607 22.2790484,13.4264464 C22.2790484,9.07391707 25.6725459,6.34436478 28.9922716,6.34436478 C32.5333124,6.34436478 35.7792665,9.14768876 35.7792665,14.0903916 L25.1561441,14.0903916 L25.1561441,14.0903916 Z M43.1564349,18.0002908 C45.5171287,18.0002908 47.2138774,16.0084553 47.2138774,13.278903 C47.2138774,10.5493507 45.5171287,8.70505865 43.0826632,8.70505865 C40.795741,8.70505865 39.0989923,10.6968941 39.0989923,13.3526747 C39.0989923,16.1559987 40.795741,18.0002908 43.1564349,18.0002908 L43.1564349,18.0002908 Z M52.1565802,20.1396696 L47.2876491,20.1396696 L47.2876491,18.1478341 C45.9597588,19.6232678 44.5580968,20.3609846 42.7138048,20.3609846 C39.8367091,20.3609846 36.4432117,18.2953775 36.4432117,13.5002181 C36.4432117,9.44277549 39.1727639,6.34436478 42.7875764,6.34436478 C44.4843252,6.34436478 46.0335305,7.08208162 47.2876491,8.4837436 L47.2876491,3.17218239 L44.8531836,3.17218239 L44.8531836,0.811488519 L49.8696581,0.811488519 L49.8696581,17.7789757 L52.2303519,17.7789757 L52.1565802,20.1396696 Z"/>
      <path d="M55.9927078,2.13937882 C55.9927078,3.02463902 55.3287626,3.76235586 54.4435024,3.76235586 C53.6320139,3.76235586 52.8942971,3.02463902 52.8942971,2.13937882 C52.8942971,1.25411862 53.5582422,0.516401785 54.4435024,0.516401785 C55.3287626,0.516401785 55.9927078,1.25411862 55.9927078,2.13937882 L55.9927078,2.13937882 Z M53.2631555,9.00014539 L51.1975484,9.00014539 L51.1975484,6.63945152 L55.7713927,6.63945152 L55.7713927,17.705204 L57.8369999,17.705204 L57.8369999,20.0658979 L51.1975484,20.0658979 L51.1975484,17.705204 L53.2631555,17.705204 L53.2631555,9.00014539 L53.2631555,9.00014539 Z M66.2469718,15.1231951 C65.1403965,14.2379349 64.0338213,13.7953048 62.927246,13.7953048 C61.525584,13.7953048 60.4927805,14.7543367 60.4927805,16.082227 C60.4927805,17.4101173 61.4518124,18.2953775 62.7797027,18.2953775 C63.8862779,18.2953775 65.2141682,17.705204 66.2469718,16.6724005 L66.2469718,15.1231951 L66.2469718,15.1231951 Z M70.9683595,20.1396696 L66.5420585,20.1396696 L66.5420585,18.4429209 C64.9190815,19.7708112 63.8125062,20.287213 62.4108442,20.287213 C59.9763787,20.287213 58.0583149,18.4429209 58.0583149,16.0084553 C58.0583149,13.5739898 60.1239221,11.655926 62.705931,11.655926 C63.8125062,11.655926 65.1403965,12.0985561 66.1732001,12.7625012 L66.1732001,11.0657525 C66.1732001,9.14768876 64.8453098,8.4837436 63.2961045,8.4837436 C62.0419858,8.4837436 61.1567256,9.00014539 60.5665522,10.1067206 L58.1320866,9.44277549 C59.2386619,7.37716835 61.0829539,6.34436478 63.6649629,6.34436478 C67.4273187,6.34436478 68.6814373,8.33620024 68.6814373,10.4755791 L68.6814373,17.8527474 L70.8945879,17.8527474 L70.9683595,20.1396696 L70.9683595,20.1396696 Z"/>
    </g>
  </g>
</svg>
