<svg xmlns="http://www.w3.org/2000/svg" width="182" height="80" viewBox="0 0 182 80">
  <g fill-rule="evenodd">
    <path d="M4.25154891 77.8667384L5 78.0606894C4.84312689 78.6913093 4.56082526 79.1721594 4.15317283 79.5032797 3.74552041 79.8344399 3.24718787 80 2.6581752 80 2.04863999 80 1.55287277 79.8726798 1.1709124 79.6180792.788990897 79.3634388.498332543 78.9947166.299015073 78.5118727.0996976034 78.0290288 0 77.5105369 0 76.9564767 0 76.3522539.112524196 75.8251889.337572587 75.3753215.562659847 74.9254541.882858231 74.583767 1.29824548 74.3502602 1.71363272 74.1167534 2.17080357 74 2.669758 74 3.23560507 74 3.71143277 74.1477361 4.09724112 74.4432482 4.4830106 74.7388002 4.75178601 75.1543354 4.90356735 75.6899735L4.16666019 75.8680543C4.035518 75.4458999 3.84517914 75.1385051 3.59568249 74.9459098 3.34618584 74.7532747 3.03240075 74.6569771 2.65432723 74.6569771 2.21966122 74.6569771 1.85635771 74.7638415 1.56445557 74.9775704 1.27251456 75.1912993 1.06740569 75.4782383.949090089 75.8383875.830774493 76.1985366.771616695 76.5699304.771616695 76.9524892.771616695 77.4458999.841696531 77.8766274.981895071 78.2447116 1.12205474 78.6127958 1.34002907 78.8878521 1.63581806 79.0699204 1.93160706 79.2519888 2.25180544 79.3430229 2.59645209 79.3430229 3.01568731 79.3430229 3.3706341 79.2190123 3.66125359 78.9709911 3.95191194 78.7229699 4.14866409 78.3548857 4.25154891 77.8667384zM6 77.077107C6 76.1146842 6.27960621 75.3612273 6.83881863 74.8167364 7.39803104 74.2722455 8.11983329 74 9.00426847 74 9.58344352 74 10.1055763 74.1278741 10.5706237 74.3836222 11.0356712 74.6394102 11.3901696 74.9960151 11.634119 75.4535166 11.8780253 75.9109783 12 76.4297669 12 77.0098824 12 77.597888 11.8716442 78.1239291 11.6148462 78.5880056 11.3580914 79.0520821 10.9943231 79.403427 10.5235412 79.6420402 10.0528025 79.8806934 9.54494108 80 9 80 8.40944237 80 7.88161828 79.8681411 7.41657085 79.604463 6.95152343 79.340785 6.59913768 78.9808727 6.35949986 78.524726 6.11981891 78.0685395 6 77.5860132 6 77.077107zM6.85593561 77.0889819C6.85593561 77.7877266 7.05922679 78.338155 7.46576602 78.740267 7.87234838 79.142379 8.38232251 79.3434549 8.99573153 79.3434549 9.62056625 79.3434549 10.1348089 79.1403865 10.5385456 78.7343295 10.9422391 78.3282726 11.1441075 77.7521419 11.1441075 77.0059374 11.1441075 76.5339311 11.0577896 76.1219366 10.8851969 75.7699143 10.7125611 75.4179319 10.4600747 75.145009 10.1276947 74.9512253 9.79531475 74.7574019 9.42227652 74.6604901 9.00858005 74.6604901 8.42082495 74.6604901 7.91511929 74.8470612 7.49146306 75.2201634 7.06776373 75.5932656 6.85593561 76.2162184 6.85593561 77.0889819z"/>
    <path d="M11,80 L13.0517396,74 L13.8134041,74 L16,80 L15.1946072,80 L14.5714338,78.1827928 L12.3374381,78.1827928 L11.7507233,80 L11,80 Z M12.54154,77.5361524 L14.3527559,77.5361524 L13.7951932,75.874482 C13.6251267,75.3697297 13.4987884,74.9549925 13.4161783,74.6303115 C13.3481444,75.01503 13.2521699,75.3969858 13.1282548,75.7762613 L12.54154,77.5361524 Z"/>
    <polygon points="16 80 16 74 16.847 74 16.847 79.292 20 79.292 20 80"/>
    <polygon points="21 80 22 80 22 74 21 74"/>
    <polygon points="24.078 80 24.078 74.708 22 74.708 22 74 27 74 27 74.708 24.913 74.708 24.913 80"/>
    <polygon points="27 80 28 80 28 74 27 74"/>
    <path d="M29,77.077107 C29,76.1146842 29.2796062,75.3612273 29.8388186,74.8167364 C30.398031,74.2722455 31.1198333,74 32.0043116,74 C32.5834866,74 33.1055763,74.1278741 33.5706237,74.3836222 C34.0356712,74.6394102 34.3901696,74.9960151 34.634119,75.4535166 C34.8780684,75.9109783 35,76.4297669 35,77.0098824 C35,77.597888 34.8716442,78.1239291 34.6148462,78.5880056 C34.3580914,79.0520821 33.9943231,79.403427 33.5235412,79.6420402 C33.0528025,79.8806934 32.5449411,80 32,80 C31.4094424,80 30.8816183,79.8681411 30.4165709,79.604463 C29.9515234,79.340785 29.5991377,78.9808727 29.3594999,78.524726 C29.119862,78.0685395 29,77.5860132 29,77.077107 Z M29.8559356,77.0889819 C29.8559356,77.7877266 30.0592268,78.338155 30.465766,78.740267 C30.8723484,79.142379 31.3823225,79.3434549 31.9957315,79.3434549 C32.6205663,79.3434549 33.1348089,79.1403865 33.5385456,78.7343295 C33.9422391,78.3282726 34.1441075,77.7521419 34.1441075,77.0059374 C34.1441075,76.5339311 34.0577896,76.1219366 33.8851969,75.7699143 C33.7125611,75.4179319 33.4600747,75.145009 33.1276947,74.9512253 C32.7953147,74.7574019 32.4222765,74.6604901 32.0085801,74.6604901 C31.4208249,74.6604901 30.9151193,74.8470612 30.4914631,75.2201634 C30.0677637,75.5932656 29.8559356,76.2162184 29.8559356,77.0889819 Z"/>
    <polygon points="35 80 35 74 35.861 74 39.195 78.711 39.195 74 40 74 40 80 39.139 80 35.805 75.285 35.805 80"/>
    <path d="M42,77.077107 C42,76.1146842 42.2798218,75.3612273 42.8390342,74.8167364 C43.3982466,74.2722455 44.1200057,74 45.0043116,74 C45.5833573,74 46.1054901,74.1278741 46.57071,74.3836222 C47.0359299,74.6394102 47.3903421,74.9960151 47.6343777,75.4535166 C47.8779822,75.9109783 48,76.4297669 48,77.0098824 C48,77.597888 47.8715148,78.1239291 47.6149756,78.5880056 C47.3580052,79.0520821 46.9945387,79.403427 46.5237137,79.6420402 C46.0528888,79.8806934 45.5449842,80 45,80 C44.409313,80 43.8815752,79.8681411 43.4167864,79.604463 C42.9515665,79.340785 42.5993101,78.9808727 42.3595861,78.524726 C42.119862,78.0685395 42,77.5860132 42,77.077107 Z M42.8558494,77.0889819 C42.8558494,77.7877266 43.0593561,78.338155 43.4659385,78.740267 C43.8725208,79.142379 44.3825812,79.3434549 44.9956884,79.3434549 C45.6204369,79.3434549 46.1348089,79.1403865 46.5388043,78.7343295 C46.9423685,78.3282726 47.1441506,77.7521419 47.1441506,77.0059374 C47.1441506,76.5339311 47.0579189,76.1219366 46.8854556,75.7699143 C46.7125611,75.4179319 46.4603334,75.145009 46.1279103,74.9512253 C45.7954872,74.7574019 45.4225352,74.6604901 45.0086232,74.6604901 C44.4209543,74.6604901 43.9152055,74.8470612 43.4913768,75.2201634 C43.0679793,75.5932656 42.8558494,76.2162184 42.8558494,77.0889819 Z"/>
    <polygon points="48 80 48 74 52 74 52 74.708 48.784 74.708 48.784 76.566 51.567 76.566 51.567 77.274 48.784 77.274 48.784 80"/>
    <path d="M54 80L56.0516963 74 56.8135556 74 59 80 58.1948157 80 57.5713761 78.1827928 55.3375679 78.1827928 54.7508445 80 54 80zM55.5417095 77.5361524L57.3529153 77.5361524 56.7951975 75.874482C56.6252019 75.3697297 56.4988985 74.9549925 56.4162873 74.6303115 56.3479953 75.01503 56.2521663 75.3969858 56.128433 75.7762613L55.5417095 77.5361524zM63.1585845 74L64 74 64 77.4084735C64 78.0013379 63.9274792 78.472167 63.7833115 78.8209203 63.6387069 79.1696736 63.3778943 79.4533955 63.0004369 79.6720454 62.6229795 79.8906953 62.1280035 80 61.5150721 80 60.9196156 80 60.4325033 79.9047638 60.0537353 79.7142915 59.6754041 79.5238192 59.4049803 79.2481654 59.2429008 78.8873302 59.0812582 78.526495 59 78.0335293 59 77.4084735L59 74 59.8414155 74 59.8414155 77.4044192C59.8414155 77.9168457 59.8929664 78.2944253 59.9951944 78.537239 60.0978593 78.7800122 60.2743556 78.9671194 60.5242464 79.0986013 60.774574 79.2300426 61.0803844 79.2957632 61.4416776 79.2957632 62.0602883 79.2957632 62.5010922 79.1656598 62.7640891 78.9054531 63.0270861 78.6452058 63.1585845 78.1448611 63.1585845 77.4044192L63.1585845 74z"/>
    <polygon points="66.078 80 66.078 74.708 64 74.708 64 74 69 74 69 74.708 66.913 74.708 66.913 80"/>
    <path d="M69 77.077107C69 76.1146842 69.2798218 75.3612273 69.8390342 74.8167364 70.3982466 74.2722455 71.1200057 74 72.0043116 74 72.5833573 74 73.1054901 74.1278741 73.57071 74.3836222 74.0359299 74.6394102 74.3903421 74.9960151 74.6343777 75.4535166 74.8779822 75.9109783 75 76.4297669 75 77.0098824 75 77.597888 74.871946 78.1239291 74.6149756 78.5880056 74.3580052 79.0520821 73.9945387 79.403427 73.5237137 79.6420402 73.0528888 79.8806934 72.5449842 80 72 80 71.4097442 80 70.8815752 79.8681411 70.4167864 79.604463 69.9515665 79.340785 69.5993101 78.9808727 69.3595861 78.524726 69.119862 78.0685395 69 77.5860132 69 77.077107zM69.8558494 77.0889819C69.8558494 77.7877266 70.0593561 78.338155 70.4659385 78.740267 70.8725208 79.142379 71.3825812 79.3434549 71.9956884 79.3434549 72.6208681 79.3434549 73.1348089 79.1403865 73.5388043 78.7343295 73.9423685 78.3282726 74.1441506 77.7521419 74.1441506 77.0059374 74.1441506 76.5339311 74.0579189 76.1219366 73.8854556 75.7699143 73.7125611 75.4179319 73.4603334 75.145009 73.1279103 74.9512253 72.7954872 74.7574019 72.4225352 74.6604901 72.0086232 74.6604901 71.4209543 74.6604901 70.9152055 74.8470612 70.4913768 75.2201634 70.0679793 75.5932656 69.8558494 76.2162184 69.8558494 77.0889819zM75 80L75 74 76.043497 74 77.2839551 78.2482733C77.3980988 78.6439189 77.4816362 78.9399419 77.5342071 79.1364246 77.5936195 78.9181288 77.6865188 78.59753 77.8129051 78.1746284L79.067406 74 80 74 80 80 79.331701 80 79.331701 74.9781663 77.8093043 80 77.1838542 80 75.668299 74.8922335 75.668299 80 75 80zM81 80L83.0516963 74 83.8135556 74 86 80 85.1948157 80 84.5713761 78.1827928 82.3375679 78.1827928 81.7508445 80 81 80zM82.5417095 77.5361524L84.3529153 77.5361524 83.7951975 75.874482C83.6252019 75.3697297 83.4988985 74.9549925 83.4162873 74.6303115 83.3483625 75.01503 83.2521663 75.3969858 83.128433 75.7762613L82.5417095 77.5361524z"/>
    <polygon points="88.078 80 88.078 74.708 86 74.708 86 74 91 74 91 74.708 88.913 74.708 88.913 80"/>
    <polygon points="91 80 91 74 94.875 74 94.875 74.708 91.709 74.708 91.709 76.546 94.675 76.546 94.675 77.25 91.709 77.25 91.709 79.292 95 79.292 95 80"/>
    <path d="M96,80 L96,74 L98.0835411,74 C98.553616,74 98.9127182,74.028658 99.1600166,74.0859741 C99.50665,74.1651032 99.8021613,74.3083108 100.046966,74.5156794 C100.366168,74.7830856 100.604738,75.1248376 100.762677,75.5409356 C100.921031,75.9570336 101,76.4324681 101,76.9672391 C101,77.4229223 100.946384,77.8267324 100.839152,78.1787106 C100.73192,78.5306888 100.594347,78.8219698 100.426434,79.0525122 C100.258936,79.2830547 100.075229,79.464528 99.8757273,79.5968497 C99.6766417,79.7291714 99.4359933,79.8294538 99.1537822,79.8976558 C98.8719867,79.9658578 98.5482128,80 98.1824605,80 L96,80 Z M96.8004988,79.2919201 L98.0914381,79.2919201 C98.4904406,79.2919201 98.8034081,79.2550976 99.0303408,79.1814527 C99.2568579,79.1077665 99.4380715,79.0040616 99.5727348,78.8703792 C99.762261,78.6821021 99.9102244,78.4290456 100.016209,78.1111684 C100.122195,77.7932911 100.174979,77.4079129 100.174979,76.9549925 C100.174979,76.3274024 100.071072,75.8451642 99.8636741,75.5081954 C99.6558603,75.1712265 99.4035744,74.9454261 99.1064007,74.8308352 C98.8919368,74.7489846 98.5469659,74.7080387 98.0710723,74.7080387 L96.8004988,74.7080387 L96.8004988,79.2919201 Z"/>
    <polygon points="103 80 103 74 103.847 74 103.847 79.292 107 79.292 107 80"/>
    <polygon points="107 80 107 74 110.876 74 110.876 74.708 107.709 74.708 107.709 76.546 110.675 76.546 110.675 77.25 107.709 77.25 107.709 79.292 111 79.292 111 80"/>
    <path d="M114.710082 77.6253364L114.710082 76.944594 117 76.9406464 117 79.0936858C116.648562 79.3944614 116.28598 79.620711 115.912252 79.7724346 115.538524 79.9241581 115.155138 80 114.761721 80 114.230849 80 113.748273 79.8779831 113.314362 79.6339095 112.880452 79.3898359 112.553161 79.036944 112.331748 78.5751939 112.110707 78.1134438 112 77.5976235 112 77.027693 112 76.463066 112.109964 75.936001 112.329891 75.4465777 112.549818 74.9571147 112.866335 74.5936559 113.279441 74.3562015 113.692548 74.1187471 114.168066 74 114.706367 74 115.097184 74 115.450851 74.0679466 115.766625 74.2038399 116.082398 74.3396934 116.330188 74.5290189 116.509622 74.7717766 116.689056 75.0144945 116.825396 75.3311402 116.919013 75.7216341L116.27372 75.9115976C116.192362 75.6160855 116.091686 75.3838946 115.97132 75.2150248 115.850955 75.0461551 115.678579 74.9109396 115.454937 74.8093786 115.231295 74.7077776 114.983134 74.6569771 114.710082 74.6569771 114.383164 74.6569771 114.100453 74.7104093 113.861951 74.8172738 113.623449 74.9241382 113.431384 75.064657 113.285014 75.2387902 113.138643 75.4129234 113.024965 75.6042028 112.943978 75.8126682 112.806152 76.1715015 112.737425 76.5606795 112.737425 76.9802022 112.737425 77.4973782 112.820269 77.9300596 112.986329 78.2783659 113.152389 78.6266324 113.393863 78.8852204 113.710751 79.0540902 114.028011 79.2229599 114.36496 79.3073748 114.721227 79.3073748 115.031057 79.3073748 115.333457 79.2434157 115.628427 79.1154176 115.923397 78.9874594 116.147039 78.8509281 116.299354 78.7057838L116.299354 77.6253364 114.710082 77.6253364zM117 80L119.051696 74 119.813556 74 122 80 121.194816 80 120.571376 78.1827928 118.337568 78.1827928 117.750844 80 117 80zM118.54171 77.5361524L120.352915 77.5361524 119.795198 75.874482C119.625202 75.3697297 119.498899 74.9549925 119.416287 74.6303115 119.347995 75.01503 119.252166 75.3969858 119.128433 75.7762613L118.54171 77.5361524z"/>
    <polygon points="122 80 122 74 122.847 74 122.847 79.292 126 79.292 126 80"/>
    <path d="M128 80L130.051696 74 130.813556 74 133 80 132.194816 80 131.571376 78.1827928 129.337568 78.1827928 128.750844 80 128 80zM129.54171 77.5361524L131.352915 77.5361524 130.795198 75.874482C130.625202 75.3697297 130.498899 74.9549925 130.416287 74.6303115 130.347995 75.01503 130.252166 75.3969858 130.128433 75.7762613L129.54171 77.5361524zM134 80L134 74 135.976771 74C136.32466 74 136.590438 74.0190916 136.773746 74.057316 137.031242 74.1064264 137.246961 74.1998639 137.420906 74.3376698 137.59485 74.4754345 137.734582 74.6684947 137.840821 74.916768 137.9467 75.1650826 138 75.4379317 138 75.7353566 138 76.2455518 137.858107 76.6773602 137.574322 77.0306991 137.290898 77.3840381 136.778428 77.560687 136.037274 77.560687L134.693257 77.560687 134.693257 80 134 80zM134.693257 76.8526483L136.048078 76.8526483C136.496084 76.8526483 136.814441 76.757149 137.002431 76.5661505 137.190781 76.3751521 137.284775 76.1064264 137.284775 75.7598911 137.284775 75.5088551 137.229675 75.2939818 137.118754 75.1152712 137.007833 74.9365606 136.861979 74.8185473 136.680832 74.7612725 136.564149 74.7258108 136.348429 74.7080387 136.033672 74.7080387L134.693257 74.7080387 134.693257 76.8526483zM138 80L138 74 139.976771 74C140.32466 74 140.590438 74.0190916 140.774106 74.057316 141.031242 74.1064264 141.246961 74.1998639 141.420906 74.3376698 141.59485 74.4754345 141.734942 74.6684947 141.841181 74.916768 141.94706 75.1650826 142 75.4379317 142 75.7353566 142 76.2455518 141.858468 76.6773602 141.574683 77.0306991 141.291258 77.3840381 140.778788 77.560687 140.037634 77.560687L138.693617 77.560687 138.693617 80 138 80zM138.693617 76.8526483L140.048438 76.8526483C140.496444 76.8526483 140.814441 76.757149 141.002791 76.5661505 141.191141 76.3751521 141.285136 76.1064264 141.285136 75.7598911 141.285136 75.5088551 141.229675 75.2939818 141.119114 75.1152712 141.008193 74.9365606 140.862339 74.8185473 140.681192 74.7612725 140.564149 74.7258108 140.348789 74.7080387 140.034033 74.7080387L138.693617 74.7080387 138.693617 76.8526483z"/>
    <polygon points="143 80 143 74 143.847 74 143.847 79.292 147 79.292 147 80"/>
    <polygon points="148 80 149 80 149 74 148 74"/>
    <path d="M154.251788,77.8667384 L155,78.0606894 C154.843361,78.6913093 154.56079,79.1721594 154.153451,79.5032797 C153.745725,79.8344399 153.247435,80 152.658193,80 C152.048741,80 151.553172,79.8726798 151.171098,79.6180792 C150.789024,79.3634388 150.498678,78.9947166 150.299285,78.5118727 C150.099891,78.0290288 150,77.5105369 150,76.9564767 C150,76.3522539 150.112718,75.8251889 150.337764,75.3753215 C150.562811,74.9254541 150.883085,74.583767 151.298197,74.3502602 C151.713697,74.1167534 152.170787,74 152.669854,74 C153.235774,74 153.711521,74.1477361 154.097481,74.4432482 C154.483053,74.7388002 154.752021,75.1543354 154.903607,75.6899735 L154.166667,75.8680543 C154.035681,75.4458999 153.845227,75.1385051 153.595693,74.9459098 C153.34616,74.7532747 153.032494,74.6569771 152.654307,74.6569771 C152.219761,74.6569771 151.856343,74.7638415 151.564443,74.9775704 C151.272544,75.1912993 151.067708,75.4782383 150.94916,75.8383875 C150.831001,76.1985366 150.771922,76.5699304 150.771922,76.9524892 C150.771922,77.4458999 150.841884,77.8766274 150.982198,78.2447116 C151.122124,78.6127958 151.340174,78.8878521 151.635961,79.0699204 C151.931748,79.2519888 152.252021,79.3430229 152.596393,79.3430229 C153.01578,79.3430229 153.370647,79.2190123 153.661381,78.9709911 C153.952114,78.7229699 154.148787,78.3548857 154.251788,77.8667384 Z"/>
    <path d="M154,80 L156.051913,74 L156.813349,74 L159,80 L158.194508,80 L157.571481,78.1827928 L155.33747,78.1827928 L154.750789,80 L154,80 Z M155.541596,77.5361524 L157.352669,77.5361524 L156.795359,75.874482 C156.625009,75.3697297 156.498715,74.9549925 156.41611,74.6303115 C156.34819,75.01503 156.252368,75.3969858 156.128277,75.7762613 L155.541596,77.5361524 Z"/>
    <polygon points="161.078 80 161.078 74.708 159 74.708 159 74 164 74 164 74.708 161.913 74.708 161.913 80"/>
    <polygon points="165 80 166 80 166 74 165 74"/>
    <path d="M166,77.077107 C166,76.1146842 166.279391,75.3612273 166.838603,74.8167364 C167.397815,74.2722455 168.119575,74 169.004312,74 C169.583357,74 170.10549,74.1278741 170.57071,74.3836222 C171.035499,74.6394102 171.389911,74.9960151 171.633947,75.4535166 C171.877982,75.9109783 172,76.4297669 172,77.0098824 C172,77.597888 171.871515,78.1239291 171.614976,78.5880056 C171.358005,79.0520821 170.994108,79.403427 170.523283,79.6420402 C170.052889,79.8806934 169.544984,80 169,80 C168.409313,80 167.881575,79.8681411 167.416355,79.604463 C166.951567,79.340785 166.598879,78.9808727 166.359586,78.524726 C166.119862,78.0685395 166,77.5860132 166,77.077107 Z M166.855849,77.0889819 C166.855849,77.7877266 167.059356,78.338155 167.465507,78.740267 C167.87209,79.142379 168.38215,79.3434549 168.995688,79.3434549 C169.620437,79.3434549 170.134809,79.1403865 170.538373,78.7343295 C170.942368,78.3282726 171.144151,77.7521419 171.144151,77.0059374 C171.144151,76.5339311 171.057919,76.1219366 170.885024,75.7699143 C170.712561,75.4179319 170.459902,75.145009 170.127479,74.9512253 C169.795056,74.7574019 169.422104,74.6604901 169.008623,74.6604901 C168.420954,74.6604901 167.915206,74.8470612 167.491377,75.2201634 C167.067548,75.5932656 166.855849,76.2162184 166.855849,77.0889819 Z"/>
    <polygon points="172 80 172 74 172.862 74 176.195 78.711 176.195 74 177 74 177 80 176.139 80 172.805 75.285 172.805 80"/>
    <path d="M177 78.0369241L177.784271 77.9736029C177.821392 78.2638515 177.907718 78.5019838 178.043249 78.6879997 178.179213 78.8740156 178.389848 79.0244233 178.675155 79.139183 178.960894 79.2539426 179.282459 79.3113623 179.639416 79.3113623 179.956233 79.3113623 180.23636 79.267819 180.478936 79.1807325 180.721944 79.0936858 180.902365 78.9742608 181.021064 78.8225771 181.13933 78.6708535 181.198895 78.5052934 181.198895 78.3258568 181.198895 78.1437885 181.141488 77.9848077 181.027538 77.8489543 180.913156 77.713061 180.724534 77.5989393 180.462103 77.5065893 180.293336 77.4458999 179.920839 77.351596 179.34375 77.2235979 178.766661 77.0956397 178.362655 76.9749387 178.131302 76.861455 177.831319 76.7163507 177.607735 76.5362761 177.460549 76.3212313 177.313795 76.1061866 177.239986 75.8654226 177.239986 75.5989393 177.239986 75.306059 177.330197 75.0323185 177.510186 74.777718 177.690176 74.5230775 177.952607 74.3298044 178.298343 74.1978986 178.644078 74.0659529 179.028229 74 179.450794 74 179.916523 74 180.327003 74.0692625 180.682666 74.2077875 181.038329 74.3463126 181.31155 74.5501126 181.503194 74.8192675 181.694406 75.0883825 181.797134 75.3931455 181.811378 75.7335168L181.014589 75.7889028C180.971858 75.4221744 180.82683 75.1451243 180.579938 74.9577925 180.332614 74.7704608 179.967887 74.6767949 179.484893 74.6767949 178.982476 74.6767949 178.616022 74.7618877 178.385963 74.9320733 178.156336 75.102219 178.041091 75.3073748 178.041091 75.5475008 178.041091 75.7559264 178.122669 75.9274279 178.285394 76.0620053 178.445528 76.1965827 178.863346 76.3344299 179.538847 76.4755867 180.213916 76.6167434 180.677486 76.740116 180.928695 76.8456247 181.294285 77.0013358 181.564485 77.1985565 181.738432 77.4373268 181.912811 77.6761369 182 77.9511933 182 78.2625356 182 78.5712463 181.904178 78.8621329 181.712966 79.1352354 181.521754 79.4082979 181.246806 79.620711 180.888122 79.7724346 180.529869 79.9241581 180.126295 80 179.677831 80 179.109375 80 178.633287 79.9234803 178.249137 79.7704408 177.864986 79.6174014 177.563709 79.3872042 177.345304 79.0798094 177.126468 78.7724146 177.011654 78.4247862 177 78.0369241zM157.207371 69C151.50144 69 146.091915 67.0410211 142.05729 63.9061808 140.876424 63.0254701 140.680407 61.554853 141.564866 60.4785605 142.3533 59.5958742 143.730183 59.302699 144.813041 60.0858165 148.255249 62.7303194 152.584297 64.2989249 157.207371 64.2989249 168.42282 64.2989249 177.276933 55.6779165 177.276933 44.9023474 177.276933 34.3224787 168.42282 25.6034818 157.207371 25.6034818 152.584297 25.6034818 148.255249 27.1720873 144.813041 29.9141835 143.730183 30.697301 142.3533 30.4045209 141.564866 29.5214395 140.680407 28.4455421 140.876424 26.9745299 141.861273 26.2890059 146.091915 22.9589789 151.50144 21 157.207371 21 170.980569 21 182 31.5803824 182 44.9023474 182 58.4200127 170.980569 69 157.207371 69"/>
    <polygon points="177 67 182 67 182 45 177 45"/>
    <path d="M177 66.5C177 67.8809044 178.119096 69 179.5 69 180.880904 69 182 67.8809044 182 66.5 182 65.1190956 180.880904 64 179.5 64 178.119096 64 177 65.1190956 177 66.5M0 44.9023474C0 31.5803824 11.0194311 21 24.7926289 21 30.4985602 21 35.9080847 22.9589789 40.1387273 26.2890059 41.1235758 26.9745299 41.3195932 28.4455421 40.4351341 29.5214395 39.6466998 30.4045209 38.2698165 30.697301 37.1869593 29.9141835 33.7447511 27.1720873 29.415703 25.6034818 24.7926289 25.6034818 13.5771803 25.6034818 4.72306682 34.3224787 4.72306682 44.9023474 4.72306682 55.6779165 13.5771803 64.2989249 24.7926289 64.2989249 29.415703 64.2989249 33.7447511 62.7303194 37.1869593 60.0858165 38.2698165 59.302699 39.6466998 59.5958742 40.4351341 60.4785605 41.3195932 61.554853 41.1235758 63.0254701 39.9427099 63.9061808 35.9080847 67.0410211 30.4985602 69 24.7926289 69 11.0194311 69 0 58.4200127 0 44.9023474"/>
    <path d="M64,64.2989171 C73.9147238,64.2989171 82.2423721,55.6778945 82.2423721,44.9999012 C82.2423721,34.3221055 73.9147238,25.6034894 64,25.6034894 C54.0852762,25.6034894 45.7576279,34.3221055 45.7576279,44.9999012 C45.7576279,55.6778945 54.0852762,64.2989171 64,64.2989171 M64,21 C76.7885742,21 87,31.9703787 87,44.9999012 C87,58.0292262 76.7885742,69 64,69 C51.3101932,69 41,58.0292262 41,44.9999012 C41,31.9703787 51.3101932,21 64,21"/>
    <path d="M82.2423721 44.9999802C82.2423721 34.3224567 73.9147238 25.6034742 64 25.6034742 54.0852762 25.6034742 45.7580278 34.3224567 45.7580278 44.9999802 45.7580278 55.6775433 54.0852762 64.2989326 64 64.2989326 73.9147238 64.2989326 82.2423721 55.6775433 82.2423721 44.9999802M87 44.9999802C87 58.0292623 76.6902067 69 64 69 51.2114258 69 41 58.0292623 41 44.9999802 41 31.9707377 51.2114258 21 64 21 76.6902067 21 87 31.9707377 87 44.9999802M131 2.36638085C131 1.0849888 132.123045 0 133.449383 0 134.877366 0 136 1.0849888 136 2.36638085L136 66.635607C136 67.9169991 134.877366 69 133.449383 69 132.123045 69 131 67.9169991 131 66.635607L131 2.36638085z"/>
    <path d="M102.207371,69 C96.5014398,69 91.0919153,67.0410211 87.0572901,63.9061808 C85.8764242,63.0254701 85.6804068,61.554853 86.5648659,60.4785605 C87.3533002,59.5958742 88.7301835,59.302699 89.8130407,60.0858165 C93.2552489,62.7303194 97.584297,64.2989249 102.207371,64.2989249 C113.42282,64.2989249 122.276933,55.6779165 122.276933,44.9023474 C122.276933,34.3224787 113.42282,25.6034818 102.207371,25.6034818 C97.584297,25.6034818 93.2552489,27.1720873 89.8130407,29.9141835 C88.7301835,30.697301 87.3533002,30.4045209 86.5648659,29.5214395 C85.6804068,28.4455421 85.8764242,26.9745299 86.8612727,26.2890059 C91.0919153,22.9589789 96.5014398,21 102.207371,21 C115.980569,21 127,31.5803824 127,44.9023474 C127,58.4200127 115.980569,69 102.207371,69"/>
    <polygon points="122 67 127 67 127 45 122 45"/>
    <path d="M122,66.5 C122,67.8809044 123.119516,69 124.5,69 C125.880904,69 127,67.8809044 127,66.5 C127,65.1190956 125.880904,64 124.5,64 C123.119516,64 122,65.1190956 122,66.5"/>
  </g>
</svg>
