<svg xmlns="http://www.w3.org/2000/svg" width="223" height="33" viewBox="0 0 223 33">
  <g fill="#000000" transform="matrix(1 0 0 -1 .235 33.23)">
    <path d="M57.4848447 18.9012668L57.4848447 21.5363938C57.4848447 24.2810105 59.5386069 25.6723044 61.5912632 25.6723044 63.6066855 25.6723044 65.6224766 24.2810105 65.6224766 21.5363938L65.6224766 18.9012668 67.3027939 18.9012668 67.3027939 21.5363938C67.3027939 25.4101926 64.426937 27.366262 61.5912632 27.366262 58.6789097 27.366262 55.8063706 25.4101926 55.8063706 21.5363938L55.8063706 18.9012668 57.4848447 18.9012668zM65.6224766 16.4571018L65.6224766 13.1097385C65.6224766 10.4001438 63.570189 9.00884985 61.5145835 9.00884985 59.4991611 9.00884985 57.4848447 10.3636472 57.4848447 13.1097385L57.4848447 16.4571018 55.8063706 16.4571018 55.8063706 13.1097385C55.8063706 9.23446509 58.6424131 7.3167356 61.5145835 7.3167356 64.3904404 7.3167356 67.3027939 9.27280493 67.3027939 13.1097385L67.3027939 16.4571018 65.6224766 16.4571018zM70.8857261 18.9012668L70.8857261 21.5363938C70.8857261 26.8398264 66.9673203 31.0520481 61.6638877 31.0520481 56.3641416 31.0520481 52.2215952 26.952634 52.2215952 21.5363938L52.2215952 18.9012668 53.9000693 18.9012668 53.9000693 21.5363938C53.9000693 25.9745994 57.2972007 29.3603025 61.6638877 29.3603025 65.9959214 29.3603025 69.2057773 25.8982883 69.2057773 21.5363938L69.2057773 18.9012668 70.8857261 18.9012668 70.8857261 18.9012668zM52.2215952 13.184575C52.2215952 7.76686011 56.028668 3.66744604 61.3652793 3.66744604 66.6285288 3.66744604 70.8857261 7.87966772 70.8857261 13.184575L70.8857261 16.4571018 69.2057773 16.4571018 69.2057773 13.184575C69.2057773 8.82120581 65.697313 5.36103491 61.3652793 5.36103491 56.9982236 5.36103491 53.9000693 8.74636938 53.9000693 13.184575L53.9000693 16.4571018 52.2215952 16.4571018 52.2215952 13.184575zM88.0659207 15.9309243L88.0659207 12.8456729C88.0659207 9.64798242 85.6036917 8.52064355 84.0726785 8.52064355 83.6243972 8.52064355 79.8154812 8.63345117 79.8154812 12.8456729L79.8154812 15.9309243 78.1384817 15.9309243 78.1384817 12.8456729C78.1384817 6.9778335 83.4385964 6.82705469 84.0726785 6.82705469 86.2377737 6.82705469 89.746238 8.40783594 89.746238 12.8456729L89.746238 15.9309243 88.0659207 15.9309243zM79.8154812 18.3750894L79.8154812 27.9685293C79.8154812 29.4346597 78.6962527 30.6386782 77.3532522 30.6386782 75.9733865 30.6386782 74.8906545 29.4346597 74.8906545 27.9685293L74.8906545 18.3750894 76.5694973 18.3750894 76.5694973 27.9685293C76.5694973 28.4949648 76.9064456 28.946564 77.3532522 28.946564 77.7631936 28.946564 78.1384817 28.4949648 78.1384817 27.9685293L78.1384817 18.3750894 79.8154812 18.3750894 79.8154812 18.3750894zM93.0320364 18.3750894L93.0320364 27.9685293C93.0320364 29.4346597 91.9496731 30.6386782 90.5683328 30.6386782 89.223489 30.6386782 88.0659207 29.4346597 88.0659207 27.9685293L88.0659207 18.3750894 89.746238 18.3750894 89.746238 27.9685293C89.746238 28.4949648 90.1196829 28.946564 90.5683328 28.946564 91.0147708 28.946564 91.3520876 28.4949648 91.3520876 27.9685293L91.3520876 18.3750894 93.0320364 18.3750894zM74.8906545 12.8456729C74.8906545 9.53664941 76.0828762 6.86502588 78.3976443 5.09696924 80.6755471 3.36651514 83.1396194 3.17923975 84.0726785 3.17923975 88.8150222 3.17923975 93.0320364 7.01433008 93.0320364 12.8456729L93.0320364 15.9309243 91.3520876 15.9309243 91.3520876 12.8456729C91.3520876 8.03254785 87.9166165 4.87098535 84.0726785 4.87098535 83.2892922 4.87098535 81.2731326 5.02213281 79.4070144 6.4517666 77.5408962 7.87955713 76.5694973 10.0995815 76.5694973 12.8456729L76.5694973 15.9309243 74.8906545 15.9309243 74.8906545 12.8456729zM102.33708 18.9012668L102.33708 28.3822678C102.33708 29.8498728 101.14154 31.0520481 99.6872065 31.0520481 98.2310298 31.0520481 97.0373335 29.8498728 97.0373335 28.3822678L97.0373335 18.9012668 98.7158076 18.9012668 98.7158076 28.3822678C98.7158076 28.9087034 99.1626143 29.3603025 99.6872065 29.3603025 100.208481 29.3603025 100.656762 28.9087034 100.656762 28.3822678L100.656762 18.9012668 102.33708 18.9012668zM97.0373335 16.4571018L97.0373335 6.33722632C97.0373335 4.87109595 98.2310298 3.66744604 99.6872065 3.66744604 101.14154 3.66744604 102.33708 4.87109595 102.33708 6.33722632L102.33708 16.4571018 100.656762 16.4571018 100.656762 6.33722632C100.656762 5.81079077 100.208481 5.36103491 99.6872065 5.36103491 99.1626143 5.36103491 98.7158076 5.81079077 98.7158076 6.33722632L98.7158076 16.4571018 97.0373335 16.4571018zM125.453093 11.1156611C125.453093 14.9529634 122.841191 17.8487275 118.472661 19.5423164L116.606543 14.5378608C118.69717 13.7124482 120.189844 12.6201313 120.189844 11.0411934 120.189844 9.42207227 118.472661 8.52071729 116.383877 8.52071729 111.567065 8.52071729 110.894643 11.0411934 108.992029 11.0411934 107.610688 11.0411934 106.342156 9.87367139 106.342156 8.36956982 106.342156 4.90755566 112.574961 3.21581006 116.383877 3.21581006 121.385014 3.21581006 125.453093 6.33718945 125.453093 10.9663569L125.453093 11.1156611 125.453093 11.1156611zM109.44031 17.8866987C110.635849 16.7958564 112.239487 15.9689692 114.291775 15.3282515L116.158261 20.2943672C112.276352 21.4235493 112.20299 22.9645161 112.20299 23.6052339 112.20299 25.3718159 114.14247 26.1622065 115.935595 26.1622065 117.240625 26.1622065 119.032275 25.5609346 120.750932 24.5464033 121.199214 24.2809736 121.645652 24.1696406 122.093933 24.1696406 123.473799 24.1696406 124.744175 25.2590083 124.744175 26.8397896 124.744175 27.7411445 124.297368 28.6078462 123.473799 29.0977852 121.645652 30.1886274 118.846474 31.5036104 115.935595 31.5036104 110.82165 31.5036104 106.90177 28.1179072 106.90177 23.6052339 106.90177 21.3852095 107.759992 19.3911689 109.44031 17.8866987L109.44031 17.8866987zM146.629811 31.0520481C145.172159 31.0520481 143.979938 29.8498728 143.979938 28.3822678L143.979938 19.9556125 140.582438 19.9556125 140.582438 14.6142087 143.979938 14.6142087 143.979938 6.33722632C143.979938 4.87109595 145.172159 3.66707739 146.629811 3.66707739 148.084144 3.66707739 149.279684 4.87109595 149.279684 6.33722632L149.279684 28.3822678C149.279684 29.8498728 148.084144 31.0520481 146.629811 31.0520481L146.629811 31.0520481zM138.155231 19.9556125L134.758099 19.9556125 134.758099 28.3822678C134.758099 29.8498728 133.565878 31.0520481 132.108226 31.0520481 130.651681 31.0520481 129.457985 29.8498728 129.457985 28.3822678L129.457985 6.33722632C129.457985 4.87109595 130.651681 3.66707739 132.108226 3.66707739 133.565878 3.66707739 134.758099 4.87109595 134.758099 6.33722632L134.758099 14.6142087 138.155231 14.6142087 138.155231 19.9556125zM175.231592 7.31680933L166.833323 29.3220364C166.423382 30.3763821 165.491797 31.0521218 164.371094 31.0521218 163.288362 31.0521218 162.278992 30.3763821 161.905547 29.3600076L160.376009 25.2970901C161.570074 24.6961868 163.773509 22.776614 165.043516 19.4292507L165.229317 18.9776516C165.900264 17.4352102 166.386885 15.5919485 166.611026 15.0658816L167.095804 13.8238918 164.482427 13.8238918 162.429771 8.48396265 169.111226 8.48396265 170.305291 5.39760522C170.715601 4.30639429 171.723128 3.66715112 172.769363 3.66715112 174.336873 3.66715112 175.42108 4.94748071 175.42108 6.33730005 175.42108 6.6757229 175.3444 6.97801782 175.231592 7.31680933L175.231592 7.31680933zM163.100718 17.6608254C161.795689 21.1958328 160.450845 22.4013259 159.48129 23.0022292L153.470413 7.31680933C153.359449 6.97801782 153.284612 6.6757229 153.284612 6.33730005 153.284612 4.94748071 154.367344 3.66715112 155.934485 3.66715112 157.017217 3.66715112 157.986773 4.30639429 158.397083 5.36073999L163.100718 17.6608254zM219.526019 8.55714014L210.380492 8.55714014 210.380492 3.21573633 219.526019 3.21573633C220.982196 3.21573633 222.175892 4.41938623 222.175892 5.88699121 222.175892 7.35312158 220.982196 8.55714014 219.526019 8.55714014L219.526019 8.55714014zM210.380492 25.2589346L219.526019 25.2589346C220.982196 25.2589346 222.175892 26.4625845 222.175892 27.9305581 222.175892 29.3985317 220.982196 30.6021816 219.526019 30.6021816L210.380492 30.6021816 210.380492 25.2589346 210.380492 25.2589346zM207.95476 14.2753066L216.950983 14.2753066C218.443287 14.2753066 219.637352 15.4807998 219.637352 16.9454556 219.637352 18.4514004 218.443287 19.6550503 216.950983 19.6550503L207.95476 19.6550503 207.95476 30.6021816 205.304518 30.6021816C203.846866 30.6021816 202.65317 29.3985317 202.65317 27.9305581L202.65317 5.88699121C202.65317 4.53403711 203.959674 3.21573633 205.304518 3.21573633L207.95476 3.21573633 207.95476 14.2753066zM196.557762 16.8340857C197.939102 18.3020593 198.648021 20.5582117 198.648021 22.6635852 198.648021 26.0507629 196.893235 28.8337195 193.534075 30.1487024 192.376875 30.6021448 191.033506 30.6021448 189.57733 30.6021448L186.85262 30.6021448 186.85262 25.1840613 189.391529 25.1840613C191.40732 25.1840613 193.534075 24.770802 193.534075 22.3631335 193.534075 19.9558337 191.40732 19.503866 189.391529 19.503866L186.85262 19.503866 186.85262 14.0879944 188.83044 14.0879944C192.077898 14.0879944 194.243362 14.4264172 196.557762 16.8340857L196.557762 16.8340857zM193.16063 4.79611206C193.608912 3.81807739 194.467134 3.25367065 195.47503 3.25367065 197.04254 3.25367065 197.975599 4.60846802 197.975599 5.92529419L197.975599 6.18777466C197.975599 6.48822632 197.902605 6.79052124 197.753301 7.08912964L195.139925 12.8839758C193.647251 12.131925 191.966934 11.7168225 190.062476 11.6419861L193.16063 4.79611206 193.16063 4.79611206zM179.42575 27.8921814L179.42575 5.92529419C179.42575 4.41934937 180.544979 3.21569946 181.962815 3.21569946 183.381021 3.21569946 184.538221 4.41934937 184.538221 5.92529419L184.538221 30.6021448 181.962815 30.6021448C180.544979 30.6021448 179.42575 29.3984949 179.42575 27.8921814L179.42575 27.8921814zM32.6093643 14.2255017L18.6396523 6.15828247 4.6655166 14.2255017 4.6655166 24.9816711 9.32196436 27.67099 18.6396523 22.2927209 27.9529165 27.67099 32.6093643 24.9816711 32.6093643 14.2255017zM27.9462808 33.0525769L18.6396523 27.67099 9.32196436 33.0488904.00906884766 27.67099.00906884766 11.5361829 18.6396523.780013428 37.2661807 11.5361829 37.2661807 27.67099 27.9462808 33.0525769z"/>
  </g>
</svg>
