<svg xmlns="http://www.w3.org/2000/svg" width="84" height="81" viewBox="0 0 84 81">
  <g fill="#000000" transform="translate(.5)">
    <g transform="translate(14.538)">
      <path d="M5.7548541 8.31216704L4.84338733 5.78448404 1.74456649 5.78448404.833099728 8.31216704.079751611 8.31216704 2.49805307 1.68918343C2.5466517 1.5676176 2.70463189 1.08149277 2.70463189.972249674 2.70463189.461756289 2.14553987.461756289 1.76893504.401111835L1.76893504.13361164 4.0534864.13361164 7.0186956 8.31202858 5.7548541 8.31202858 5.7548541 8.31216704zM3.25140118 1.66481488L1.95114532 5.2133462 4.63680851 5.2133462 3.25140118 1.66481488zM16.1660392 8.31216704L14.0150995 4.53282681 13.2617514 4.53282681 13.2617514 8.31216704 11.9249427 8.31216704 11.9249427 1.78624225C11.9249427.619598019 11.9249427.571137839 10.7704828.400973378L10.7704828.13361164 13.8936721.13361164C15.3640925.13361164 17.1868875.449572015 17.1868875 2.30878145 17.1868875 3.53620858 16.4821381 4.13171497 15.3275397 4.31392525L17.5636308 8.31202858 16.1660392 8.31202858 16.1660392 8.31216704zM14.0758824.704749479C13.2009685.704749479 13.2617514 1.03289413 13.2617514 1.79842652L13.2617514 3.96155051 13.9543166 3.96155051C15.0115793 3.96155051 15.8500789 3.57262295 15.8500789 2.38174863 15.8500789 1.17869004 15.2303424.704749479 14.0758824.704749479zM25.2993986 8.43359441C22.5043539 8.43359441 21.714453 6.62298361 21.714453 4.10734642 21.714453 1.76201216 22.4921696.0970588182 25.1050041.0970588182 25.9313194.0970588182 26.7576347.206440368 27.5354898.461617832L27.6083185 2.49113018 27.2559438 2.49113018C27.2315753 2.23595272 27.134378 1.96859098 27.0007663 1.74982788 26.6238846 1.09353858 25.9919638.680380931 25.2264315.680380931 23.3914521.680380931 23.1484589 2.69770901 23.1484589 4.10734642 23.1484589 5.61418112 23.6102152 7.75307502 25.5059775 7.75307502 26.3080627 7.75307502 26.9765363 7.59509483 27.6326871 7.13320008L27.6326871 7.97169966C26.8670162 8.31216704 26.1377598 8.43359441 25.2993986 8.43359441zM37.6297454 8.31216704L37.6297454 4.3382938 34.3244842 4.3382938 34.3244842 8.31216704 32.9876755 8.31216704 32.9876755 1.73778207C32.9876755.680519389 32.7932809.656150841 31.7725711.546907749L31.7725711.279546011 34.3244842 0 34.3244842 3.76715596 37.6297454 3.76715596 37.6297454.13361164 38.9665541.13361164 38.9665541 8.31202858 37.6297454 8.31202858 37.6297454 8.31216704zM43.6631763 8.31216704L43.6631763 8.00839094C44.574643 8.00839094 44.6962089 7.76539775 44.6962089 6.87816108L44.6962089 1.65276906C44.6962089.765670849 44.574643.522539201 43.6631763.522539201L43.6631763.2187631 47.0657732.2187631 47.0657732.522539201C46.1544449.522539201 46.0328791.777716665 46.0328791 1.65276906L46.0328791 6.87816108C46.0328791 7.75321347 46.1544449 8.00839094 47.0657732 8.00839094L47.0657732 8.31216704 43.6631763 8.31216704zM55.9417398 8.31216704L54.8844772 8.31216704 52.5025901 1.68918343C52.1380311.668335115 52.0773866.595506387 51.0323082.400973378L51.0323082.13361164 53.3896883.13361164 55.7715754 6.79300962 55.7958055 6.79300962 58.1170481.13361164 58.906949.13361164 55.9417398 8.31216704zM68.499711 8.31216704L63.6509238 8.31216704 63.6509238 1.78624225C63.6509238.619598019 63.6387395.583322113 62.4963254.400973378L62.4963254.13361164 68.3173622.13361164 68.353915 1.93217662 68.0135861 1.93217662C68.0135861 1.02070985 67.5640141.704749479 66.701146.704749479L65.7531264.704749479C65.1941728.704749479 64.987594.716933753 64.987594 1.33667023L64.987594 3.75497168 66.4580143 3.75497168C67.150718 3.75497168 67.3451126 3.43901131 67.4544941 2.81927483L67.7946846 2.81927483 67.7946846 5.37132638 67.4544941 5.37132638C67.4544941 4.69066854 67.1629023 4.32624798 66.4580143 4.32624798L64.987594 4.32624798 64.987594 7.03614126C64.987594 7.70461484 65.1335284 7.7410292 65.7531264 7.7410292L67.1021194 7.7410292C67.9284347 7.7410292 68.1350135 7.32787155 68.1956579 6.55001643L68.5359869 6.55001643 68.499711 8.31216704z"/>
    </g>
    <rect width="58.604" height="3.005" x="19.273" y="77.337"/>
    <rect width="54.096" height="4.161" x="21.585" y="71.557"/>
    <rect width="53.807" height="5.779" x="21.238" y="24.166"/>
    <polygon points="48.142 14.052 19.967 20.64 21.585 22.432 48.142 22.432 74.699 22.432 76.317 20.64"/>
    <g transform="translate(0 1.246)">
      <path d="M8.17841694 79.4900645L7.87464084 79.4900645C7.87464084 78.5787362 7.63164765 78.4571704 6.74441098 78.4571704L1.51901897 78.4571704C.631920751 78.4571704.388927561 78.5787362.388927561 79.4900645L.085013002 79.4900645.085013002 76.0874675.388789104 76.0874675C.388789104 76.9989343.643966567 77.1205001 1.51888051 77.1205001L6.74441098 77.1205001C7.61932492 77.1205001 7.87464084 76.9989343 7.87464084 76.0874675L8.17841694 76.0874675 8.17841694 79.4900645zM8.17841694 66.1349926L1.26370304 70.1452802 1.26370304 70.1696488 8.17841694 70.1696488 8.17841694 70.9351812 1.55543333 70.9351812C.413157651 70.9351812.461756289 71.1173914.26722328 72.1502856L0 72.1502856 0 69.5861882 6.61079934 65.7581109 6.61079934 65.7338808 0 65.7338808 0 64.9683484 8.17841694 64.9683484 8.17841694 66.1349926zM1.79842652 54.116591C.850545393 54.116591.571137839 54.5297486.571137839 55.4412154L.571137839 56.2675307 8.17841694 56.2675307 8.17841694 57.6043394.571137839 57.6043394.571137839 58.442839C.571137839 59.3663516.838499577 59.6823119 1.76201216 59.7552791L1.76201216 60.095608 0 60.0470094 0 53.8249992 1.79842652 53.7764005 1.79842652 54.116591zM8.17841694 44.0424118L8.17841694 48.8913374 1.65263061 48.8913374C.48598638 48.8913374.449710473 48.9033833.267361738 50.0457974L0 50.0457974 0 44.2247605 1.79842652 44.1883462 1.79842652 44.5285366C.886959757 44.5285366.571137839 44.9782471.571137839 45.8409768L.571137839 46.7888579C.571137839 47.3478115.583322113 47.5543903 1.20305859 47.5543903L3.62136004 47.5543903 3.62136004 46.08397C3.62136004 45.3914048 3.30539967 45.1970102 2.68566319 45.0874902L2.68566319 44.7472997 5.23771474 44.7472997 5.23771474 45.0874902C4.55719535 45.0874902 4.19263634 45.379082 4.19263634 46.08397L4.19263634 47.5543903 6.90252962 47.5543903C7.5710032 47.5543903 7.60741756 47.4085944 7.60741756 46.7888579L7.60741756 45.4400034C7.60741756 44.6135496 7.19425991 44.4071093 6.41640479 44.3463264L6.41640479 44.0061359 8.17841694 44.0424118zM8.17841694 34.2599629L4.39907671 36.4109026 4.39907671 37.1643892 8.17841694 37.1643892 8.17841694 38.5010594 1.65263061 38.5010594C.48598638 38.5010594.437526199 38.5010594.267361738 39.6555194L0 39.6555194 0 36.5324684C0 35.0620481.315960376 33.2391146 2.17516981 33.2391146 3.40245849 33.2391146 3.99810333 33.9440025 4.18017515 35.0984625L8.17827848 32.8625097 8.17827848 34.2599629 8.17841694 34.2599629zM.571137839 36.3501197C.571137839 37.2251721.899282489 37.1643892 1.66481488 37.1643892L3.82793887 37.1643892 3.82793887 36.4716855C3.82793887 35.4144228 3.43901131 34.5759233 2.24813699 34.5759233 1.0450784 34.5759233.571137839 35.1956597.571137839 36.3501197zM8.17841694 22.8369292L1.26370304 26.8472168 1.26370304 26.8715853 8.17841694 26.8715853 8.17841694 27.6371177 1.55543333 27.6371177C.413157651 27.6371177.461756289 27.819328.26722328 28.8523606L0 28.8523606 0 26.2882632 6.61079934 22.4603244 6.61079934 22.4360943 0 22.4360943 0 21.6704234 8.17841694 21.6704234 8.17841694 22.8369292zM8.17841694 10.8913563L8.17841694 15.7402819 1.65263061 15.7402819C.48598638 15.7402819.449710473 15.7523277.267361738 16.8946034L0 16.8946034 0 11.073705 1.79842652 11.0372907 1.79842652 11.3776196C.886959757 11.3776196.571137839 11.8271916.571137839 12.6900597L.571137839 13.6379409C.571137839 14.1968944.583322113 14.4034732 1.20305859 14.4034732L3.62136004 14.4034732 3.62136004 12.9330529C3.62136004 12.2403493 3.30539967 12.0459547 2.68566319 11.9365732L2.68566319 11.5962442 5.23771474 11.5962442 5.23771474 11.9365732C4.55719535 11.9365732 4.19263634 12.228165 4.19263634 12.9330529L4.19263634 14.4034732 6.90252962 14.4034732C7.5710032 14.4034732 7.60741756 14.2576773 7.60741756 13.6379409L7.60741756 12.2889479C7.60741756 11.4626326 7.19425991 11.2560538 6.41640479 11.1952709L6.41640479 10.8549419 8.17841694 10.8913563zM1.79842652.440572268C.850545393.440572268.571137839.853729919.571137839 1.76519668L.571137839 2.59165044 8.17841694 2.59165044 8.17841694 3.92832067.571137839 3.92832067.571137839 4.76682025C.571137839 5.69047129.838499577 6.00643166 1.76201216 6.07926039L1.76201216 6.41958931 0 6.37085222 0 .148841982 1.79842652.100243344 1.79842652.440572268z"/>
    </g>
    <path d="M28.9994026 48.2414172C28.9530193 45.4030352 28.8794983 42.5645148 28.7683168 39.7280712 28.6636428 37.0555615 28.4914015 34.3856824 28.3613897 31.7140035 28.3501747 31.483333 28.2524236 31.4334883 28.0610751 31.391674 27.2728356 31.2198481 26.4804425 31.1391273 25.6847263 31.1378812 24.8890101 31.1391273 24.096617 31.2198481 23.3083775 31.391674 23.117029 31.4333498 23.0192779 31.483333 23.0080629 31.7140035 22.8780511 34.3856824 22.7058098 37.0555615 22.6011358 39.7280712 22.4899543 42.5645148 22.4162948 45.4030352 22.37005 48.2414172 22.3372355 50.25293 22.3575888 52.2659659 22.389434 54.2780326 22.4246023 56.5101085 22.4741701 58.7427383 22.564583 60.9731527 22.6615033 63.3668087 22.8113145 65.7585263 22.9427108 68.1506592 22.9679101 68.6090925 23.0148473 69.0662797 23.0507078 69.5118364 23.9339292 69.7416762 24.8096739 69.874457 25.6848648 69.8853952 26.5600556 69.874457 27.4356618 69.7416762 28.3190217 69.5118364 28.3548822 69.0662797 28.4016809 68.6089541 28.4268802 68.1506592 28.5582765 65.7585263 28.7080877 63.3668087 28.8050081 60.9731527 28.8954209 58.7427383 28.9449888 56.5101085 28.980157 54.2780326 29.0118638 52.2659659 29.0323556 50.25293 28.9994026 48.2414172zM43.6497459 48.2414172C43.6033626 45.4030352 43.5297031 42.5645148 43.4185216 39.7280712 43.3137091 37.0555615 43.1414678 34.3856824 43.0115945 31.7140035 43.0003795 31.483333 42.9027668 31.4334883 42.7112799 31.391674 41.9231789 31.2198481 41.1306473 31.1391273 40.3350695 31.1378812 39.5393534 31.1391273 38.7469602 31.2198481 37.9587208 31.391674 37.7673723 31.4333498 37.6696212 31.483333 37.6584061 31.7140035 37.5285328 34.3856824 37.356153 37.0555615 37.251479 39.7280712 37.1402975 42.5645148 37.0666381 45.4030352 37.0203932 48.2414172 36.9875788 50.25293 37.007932 52.2659659 37.0396388 54.2780326 37.0749455 56.5101085 37.1243749 58.7427383 37.2147878 60.9731527 37.3118466 63.3668087 37.4615193 65.7585263 37.5929156 68.1506592 37.6181149 68.6090925 37.6650521 69.0662797 37.7007741 69.5118364 38.584134 69.7416762 39.4598787 69.874457 40.3349311 69.8853952 41.2101219 69.874457 42.0857282 69.7416762 42.969088 69.5118364 43.0048101 69.0662797 43.0517473 68.6089541 43.0769466 68.1506592 43.2082044 65.7585263 43.3580156 63.3668087 43.454936 60.9731527 43.5453488 58.7427383 43.5949166 56.5101085 43.6302234 54.2780326 43.6622071 52.2659659 43.6825603 50.25293 43.6497459 48.2414172zM60.6405774 48.2414172C60.5941941 45.4030352 60.520673 42.5645148 60.4093531 39.7280712 60.3046791 37.0555615 60.1324378 34.3856824 60.0025645 31.7140035 59.991211 31.483333 59.8935983 31.4334883 59.7021114 31.391674 58.9140104 31.2198481 58.1216172 31.1391273 57.325901 31.1378812 56.5301849 31.1391273 55.7377917 31.2198481 54.9495523 31.391674 54.7582038 31.4333498 54.6604527 31.483333 54.6492376 31.7140035 54.5193643 34.3856824 54.3469845 37.0555615 54.242449 39.7280712 54.131129 42.5645148 54.057608 45.4030352 54.0112247 48.2414172 53.9784103 50.25293 53.9987635 52.2659659 54.0306088 54.2780326 54.0659155 56.5101085 54.1153449 58.7427383 54.2057577 60.9731527 54.3028165 63.3668087 54.4524893 65.7585263 54.5838856 68.1506592 54.6092233 68.6090925 54.656022 69.0662797 54.6917441 69.5118364 55.575104 69.7416762 56.4507102 69.874457 57.325901 69.8853952 58.2010919 69.874457 59.0766981 69.7416762 59.960058 69.5118364 59.9957801 69.0662797 60.0427172 68.6089541 60.0679165 68.1506592 60.1993128 65.7585263 60.3489856 63.3668087 60.4460444 60.9731527 60.5363188 58.7427383 60.5858866 56.5101085 60.6211933 54.2780326 60.6530386 52.2659659 60.6733918 50.25293 60.6405774 48.2414172zM74.9439457 48.2414172C74.8975624 45.4030352 74.8240414 42.5645148 74.7128599 39.7280712 74.6080475 37.0555615 74.4358061 34.3856824 74.3059329 31.7140035 74.2945793 31.483333 74.1969667 31.4334883 74.0054797 31.391674 73.2175172 31.2198481 72.4249856 31.1391273 71.6292694 31.1378812 70.8336917 31.1391273 70.0411601 31.2198481 69.2530591 31.391674 69.0615721 31.4333498 68.9639595 31.483333 68.9527444 31.7140035 68.8227327 34.3856824 68.6503529 37.0555615 68.5458174 39.7280712 68.4346359 42.5645148 68.3609764 45.4030352 68.3145931 48.2414172 68.2817786 50.25293 68.3021319 52.2659659 68.3339771 54.2780326 68.3692838 56.5101085 68.4187132 58.7427383 68.5092645 60.9731527 68.6061849 63.3668087 68.7559961 65.7585263 68.8872539 68.1506592 68.9125917 68.6090925 68.9593904 69.0662797 68.9951125 69.5118364 69.8786108 69.7416762 70.754217 69.874457 71.6292694 69.8853952 72.5044603 69.874457 73.3802049 69.7416762 74.2634263 69.5118364 74.2992869 69.0662797 74.3460856 68.6089541 74.3712849 68.1506592 74.5026812 65.7585263 74.6524924 63.3668087 74.7494127 60.9731527 74.8398256 58.7427383 74.889255 56.5101085 74.9245617 54.2780326 74.9564069 52.2659659 74.9768987 50.25293 74.9439457 48.2414172z"/>
  </g>
</svg>
