<svg xmlns="http://www.w3.org/2000/svg" width="239" height="62" viewBox="0 0 239 62">
  <path fill-rule="evenodd" d="M42.4732596,35.7523481 L42.4775172,35.7651775 C43.9557027,35.6553126 45.4399501,35.6553126 46.9181356,35.7651775 C47.4801315,35.8122185 48.0378697,35.8763654 48.5913505,35.9533416 C47.191067,33.9310126 46.1629394,31.6729881 45.5557215,29.2863436 C43.9243974,29.8528258 42.2574571,30.309985 40.5658799,30.6548102 C41.0201265,32.4170512 41.659509,34.1258229 42.4732596,35.7523481 Z M29.9858829,26.5964515 L29.9603376,26.5964515 C31.9447483,26.7535729 33.9389257,26.7392655 35.9208993,26.5536869 C35.8000845,25.0037043 35.8000845,23.4466068 35.9208993,21.8966241 C35.942187,21.6571425 35.9634748,21.4219373 35.98902,21.1824557 C34.1771648,21.3746993 32.3516237,21.4004649 30.5351061,21.2594319 L30.1476696,21.2209438 C29.8837018,22.4097991 29.5658052,23.5744212 29.1939797,24.71481 C29.0109053,25.3006847 28.7980281,25.8780066 28.5851509,26.4510519 C29.0492232,26.5066459 29.517553,26.5579634 29.9858829,26.5964515 Z M30.9736331,15.5717428 L31.0204661,15.5631898 C30.9821482,16.0763648 30.9268001,16.5895398 30.8671945,17.1027147 C32.8292192,17.2659837 34.8034092,17.2028504 36.7511204,16.9145506 C36.9086495,16.2730819 37.0917239,15.6401661 37.2918285,15.0158032 C37.7252127,13.6796388 38.2530725,12.3762783 38.8713774,11.1156735 C36.4033426,11.8668293 33.8158835,12.1410907 31.2461159,11.9239241 L31.0885868,11.9239241 C31.105617,13.1298852 31.0672991,14.3443993 30.9736331,15.5717428 Z M44.9979833,22.6022397 L44.9809531,22.5936868 C45.0951524,21.1680638 45.3548054,19.7579891 45.7558261,18.3856521 C43.9227024,19.2819412 42.0022881,19.9855907 40.0251718,20.485393 C39.9400209,21.0413325 39.8761578,21.6186544 39.8293248,22.1959762 C39.7388983,23.4473324 39.7388983,24.7036266 39.8293248,25.9549828 C41.568572,25.5886857 43.2767596,25.0868212 44.9383777,24.453946 C44.9341201,23.8381361 44.9511503,23.2223261 44.9979833,22.6022397 Z M56.7232596,39.3702316 L56.7019719,39.374508 L56.6764267,39.4685901 C56.6295937,39.6439249 56.5827607,39.8064303 56.5231551,39.990318 C56.4635494,40.1742057 56.4039438,40.400858 56.3400807,40.6018515 C56.2506722,40.8755448 56.1740365,41.0765383 56.0548252,41.4058256 C55.935614,41.7351129 55.8078877,42.0601237 55.6801613,42.380858 C52.8226037,40.9942012 49.7328232,40.1545142 46.569017,39.9047888 C46.0410816,39.8620242 45.5174036,39.832089 44.9937257,39.832089 C47.2471129,42.8044055 50.1123223,45.2534971 53.3938602,47.012262 L53.3938602,47.0421972 C53.0915745,47.5468193 52.7722587,48.0343355 52.4444278,48.5175753 L52.3337317,48.6800807 L52.1123394,48.9879856 C51.8100538,49.4156314 51.4992531,49.8176185 51.1756797,50.2452643 L51.1245892,50.3136876 C46.8635066,48.4537551 42.0185946,48.4877479 37.7837954,50.4072891 C33.5489963,52.3268303 30.3181483,55.9534016 28.8874365,60.3932992 C28.7278041,60.9064586 28.5942289,61.4274324 28.4872274,61.9542063 C27.1821531,62.0250977 25.8739363,62.0136713 24.5702868,61.9199947 L24.5064237,61.9199947 C26.1482716,52.1947363 34.5176711,45.0659274 44.3380639,45.0279855 C42.8880021,43.5443038 41.5952878,41.9133499 40.480729,40.1613763 C31.0110897,41.6820968 23.1938215,48.4152123 20.2531371,57.5836662 C19.8907563,58.720291 19.6062552,59.8804971 19.4016283,61.0561501 C18.0457596,60.7200797 16.7143111,60.2914376 15.4165671,59.7732127 C15.6458839,58.5961481 15.9444352,57.4337656 16.3106513,56.2921759 C19.5761717,46.1332229 28.0102112,38.510335 38.4115626,36.3168406 C37.6819021,34.6825428 37.1019011,32.9849087 36.6787422,31.2449614 C34.3327146,31.4816795 31.9703252,31.5074406 29.6197341,31.3219376 C28.5922468,31.2392594 27.5761129,31.1195186 26.5713325,30.9627151 C21.6214066,40.3824385 13.0747922,47.3788267 2.89087242,50.3478993 C1.8102579,49.0058435 0.843264607,47.5753736 0,46.0714413 C9.10990417,43.8601283 16.921067,37.9985249 21.6155512,29.850836 C14.3187631,27.704498 7.80676908,23.4603307 2.88235733,17.6415484 C2.09896923,16.72211 1.37092919,15.7727363 0.681207051,14.7977039 C1.56044395,13.3558968 2.55729204,11.9898696 3.6614879,10.7136865 C4.50907597,12.0566963 5.4434854,13.3423956 6.45869435,14.5624987 C10.9695328,19.8890208 16.9885476,23.7091975 23.7145205,25.5145076 C24.0267404,24.759 24.3105766,23.9892376 24.5660293,23.2052203 C24.8640574,22.2786544 25.1237676,21.3378336 25.3451598,20.382758 C17.8902218,18.4027993 11.4906596,13.5952192 7.49327756,6.97178569 C8.56669686,6.09873942 9.6959488,5.29732295 10.8737676,4.57269275 C14.2418698,10.2891985 19.678153,14.4779823 26.0476546,16.264529 C26.0873917,15.9081574 26.121452,15.5503605 26.1498357,15.191138 C26.2602437,13.7555471 26.2815727,12.3144449 26.2136988,10.8761919 C21.7599,9.31812598 17.9768114,6.26582573 15.501718,2.23347022 C16.7492133,1.72086516 18.0293086,1.29227116 19.3335076,0.950532816 C20.9619536,3.28981159 23.1608741,5.17014219 25.7198237,6.4115697 C25.3374102,4.27598241 24.7558218,2.18126736 23.9827457,0.155111626 C25.6917375,-0.0174960332 27.4121152,-0.0461056427 29.125859,0.0695824663 C29.9738356,2.62665494 30.5559649,5.26503984 30.862937,7.94254166 C31.0971019,7.97247687 31.3355244,8.01951791 31.5739468,8.01951791 C35.7048625,8.35558908 39.8099553,7.11400876 43.0693158,4.54275754 L43.1714969,4.60690441 C43.6440843,4.90198002 44.1081566,5.20560854 44.5637138,5.52206643 L44.7893636,5.67601892 L45.1895728,5.96681806 L45.6153272,6.27044658 C45.8764565,6.46716365 46.1333284,6.66815718 46.3859426,6.87342716 L46.3561398,6.89908591 C44.0384295,9.48886853 42.2671387,12.5234778 41.1491634,15.8197773 C44.4544915,14.6872298 47.4932157,12.8852971 50.0772333,10.5255223 L50.1198088,10.4742048 C50.3071407,10.6880277 50.4859576,10.8975741 50.6647744,11.1156735 C51.0351808,11.5647016 51.3928145,12.0436649 51.7121303,12.4755872 C52.0314461,12.9075094 52.3465043,13.3479846 52.64879,13.7970127 L52.6956229,13.865436 C50.7004137,16.3394135 49.4677971,19.3447231 49.1490887,22.5124341 C51.3003584,21.338228 53.3212723,19.9376601 55.1777711,18.3343346 C55.8595718,19.8836216 56.4121126,21.4871008 56.8296982,23.1282441 C54.5397098,24.923196 52.0578859,26.4564848 49.4300866,27.6997777 C50.4047127,32.1231841 53.1403001,35.9527116 57,38.2968406 L56.9744547,38.3909227 C56.8935614,38.72021 56.8126681,39.0452208 56.7232596,39.3702316 Z M86,20 L86,35.0715397 C86,39.2286159 83.2675805,42 79,42 C74.7324195,42 72,39.2286159 72,35.0715397 L76.0965435,35.0715397 C76.2646379,36.584038 77.5130724,37.7264022 78.9979142,37.7264022 C80.482756,37.7264022 81.7311904,36.584038 81.8992849,35.0715397 L81.8992849,20 L86,20 Z M134,37.9796078 L134,42 L119,42 L119,20 L123.332353,20 L123.332353,37.9796078 L134,37.9796078 Z M239,20 L239,41.9827586 L234.874737,41.9827586 L234.874737,29.7801724 L229.375788,42 L226.624212,42 L221.125263,29.7801724 L221.125263,42 L217,42 L217,20.0172414 L220.608555,20.0172414 L227.9979,36.2543103 L235.374642,20 L239,20 Z M103.00016,20 C109.073547,19.9999995 113.997656,24.9222095 113.999999,30.9955957 C114.001716,35.4450013 111.32278,39.4572441 107.212558,41.1611475 C103.102336,42.8650509 98.370413,41.9249991 95.2236011,38.7794011 C92.0767892,35.6338031 91.1349116,30.9022432 92.8372287,26.7913639 C94.5395458,22.6804846 98.5507545,20.0000003 103.00016,20 Z M103.00016,38.0360022 L103.00016,38.040246 C104.867738,38.0402473 106.658701,37.2977745 107.978482,35.9764017 C109.298262,34.655029 110.038575,32.8631722 110.036323,30.9955957 C110.033979,27.1101836 106.882745,23.9621152 102.997333,23.9636773 C99.1119204,23.9652393 95.9632185,27.1158405 95.9639992,31.0012532 C95.9647798,34.8866659 99.1147475,38.0360015 103.00016,38.0360022 Z M148.00016,20 C154.073547,19.9999995 158.997656,24.9222095 158.999999,30.9955957 C159.001716,35.4450013 156.32278,39.4572441 152.212558,41.1611475 C148.102336,42.8650509 143.370413,41.9249991 140.223601,38.7794011 C137.076789,35.6338031 136.134912,30.9022432 137.837229,26.7913639 C139.539546,22.6804846 143.550754,20.0000003 148.00016,20 Z M148.00016,38.0360022 L148.00016,38.040246 C149.867738,38.0402473 151.658701,37.2977745 152.978482,35.9764017 C154.298262,34.655029 155.038575,32.8631722 155.036323,30.9955957 C155.033979,27.1101836 151.882745,23.9621152 147.997333,23.9636773 C144.11192,23.9652393 140.963218,27.1158405 140.963999,31.0012532 C140.96478,34.8866659 144.114748,38.0360015 148.00016,38.0360022 Z M200.00016,20 C206.073547,19.9999995 210.997656,24.9222095 210.999999,30.9955957 C211.001716,35.4450013 208.32278,39.4572441 204.212558,41.1611475 C200.102336,42.8650509 195.370413,41.9249991 192.223601,38.7794011 C189.076789,35.6338031 188.134912,30.9022432 189.837229,26.7913639 C191.539546,22.6804846 195.550754,20.0000003 200.00016,20 Z M200.00016,38.0360022 L200.00016,38.040246 C201.869208,38.0425019 203.662354,37.3010243 204.983971,35.9794068 C206.305588,34.6577892 207.047066,32.8646438 207.04481,30.9955957 C207.042465,27.1112891 203.892953,23.9636802 200.008646,23.9636818 C196.124339,23.9636835 192.97483,27.111295 192.972488,30.9956017 C192.970146,34.8799083 196.115856,38.031316 200.00016,38.0360022 Z M180.623838,34.2610987 L185,34.2610987 C183.350545,39.4543405 178.066115,42.6900381 172.565719,41.8747048 C167.065324,41.0593715 163,36.4377434 163,31 C163,25.5622566 167.065324,20.9406285 172.565719,20.1252952 C178.066115,19.3099619 183.350545,22.5456595 185,27.7389013 L180.623838,27.7389013 C179.087897,24.8689069 175.745806,23.3946612 172.527838,24.1676361 C169.309871,24.9406111 167.047577,27.7610634 167.047577,31 C167.047577,34.2389366 169.309871,37.0593889 172.527838,37.8323639 C175.745806,38.6053388 179.087897,37.1310931 180.623838,34.2610987 Z"/>
</svg>
