<svg xmlns="http://www.w3.org/2000/svg" width="598" height="344" viewBox="0 0 598 344">
  <g fill="none" fill-rule="evenodd" transform="translate(-1)">
    <g transform="translate(418.211 70.685)">
      <path stroke="#FFFFFF" stroke-width=".12" d="M0.0104549632,14.3158617 C0.0104549632,6.46983164 6.27378511,0.109436637 14.0000783,0.109436637 C21.7262149,0.109436637 27.989545,6.46983164 27.989545,14.3158617 C27.989545,22.1617327 21.7262149,28.5221277 14.0000783,28.5221277 C6.27378511,28.5221277 0.0104549632,22.1617327 0.0104549632,14.3158617 Z"/>
      <g transform="translate(6.176 9.826)">
        <path fill="#7DACBC" d="M5.922664 6.92524795C5.67696172 7.55171073 5.43775668 8.19171582 5.22267466 8.81144562 4.85784031 8.76957066 4.49839652 8.72028002 4.14986667 8.65867297 4.32273826 8.03580013 4.52127405 7.41558143 4.74933014 6.80690689 5.13080946 6.85896208 5.52423657 6.89637942 5.922664 6.92524795zM8.04052684 7.08018297C9.20412986 7.05264568 10.3230965 6.9201625 11.3742574 6.70452186 11.568603 7.29004886 11.7331636 7.89018875 11.8744114 8.49353648 10.6738322 8.78105227 9.37594064 8.95949871 8.01182193 8.9876835 7.45810279 8.99961664 6.91871174 8.97992052 6.38914921 8.94475745 6.47292217 8.30396113 6.56596929 7.67337462 6.67150218 7.05804184 7.12014442 7.08039619 7.57563177 7.09089416 8.04052684 7.08018297zM4.90736002 6.42534285C5.63623926 4.55259059 6.68566189 1.48126065 8.16879893.188810461 9.6171331 1.3882723 10.5823682 4.41667157 11.2544148 6.27129507 10.220574 6.47818142 9.1535625 6.59825149 8.0801484 6.62503856 7.68443925 6.63454011 7.25990954 6.62795811 6.78830959 6.60592068 7.06817845 5.0762959 7.41644904 3.64270679 7.86114461 2.36601198 8.26073325.961513273 6.94311434 4.29869703 6.06775379 6.55972833 6.03256883 6.55671162 5.99775744 6.55324282 5.96213895 6.5498567 5.55364014 6.51225064 5.21894707 6.47204943 4.90736002 6.42534285z"/>
        <path fill="#B3DAE7" d="M10.1361914 32.7538611C10.6959445 29.8593527 11.4032237 26.3344736 11.9723786 23.4441359 13.0804232 24.4199333 14.2305171 25.1408776 15.3296414 26.1256414 15.346636 30.5072269 15.3878246 34.9070936 15.455766 39.2032416 15.0951269 37.7015772 14.739495 36.1883652 14.3872796 34.6682745 13.8180164 33.7501906 13.2494836 32.8312228 12.6821246 31.9117491 11.8987678 31.8994153 10.9218175 32.7643632 10.1361914 32.7538611zM5.41001434 32.6461011C4.6304722 32.6493898 3.65202323 31.8171741 2.87408839 31.8203084 2.30700336 32.7331342 1.73954883 33.6464073 1.17202964 34.5588632.818024551 36.0769445.462458402 37.5906475.103095784 39.0973054.176357838 34.7780534.231035345 30.3774308.262230915 26.0177617 1.35996689 25.0518787 2.46278339 24.0888008 3.56850965 23.1266782 4.1219944 26.0078468 4.86631217 29.7504073 5.41001434 32.6461011z"/>
        <path fill="#7DACBC" d="M7.96364639,9.66880377 C9.31650185,9.65261657 10.6612844,9.49207089 11.960268,9.19111826 C12.9437395,13.6973064 12.6574547,18.2705218 12.6605376,18.2631642 C11.4566676,23.8761442 10.2900349,29.6208533 9.12105272,35.2713954 C8.94349712,35.2714039 8.76638115,35.2717871 8.58845314,35.2722463 C8.59861169,35.0151599 8.60330451,34.8517255 8.60351171,34.8442216 C8.63207124,30.788718 8.66623936,26.6865347 8.70156399,22.6337235 C8.70383461,22.3852766 8.60957112,22.152114 8.43620711,21.9775084 C8.2628431,21.8029029 8.0316819,21.7073112 7.78669662,21.7082339 C7.52371217,21.7091802 7.27155871,21.8230414 7.09456896,22.0209189 C6.94273265,22.1910751 6.85823088,22.4093907 6.85603864,22.6387033 C6.82612944,26.6876806 6.79351818,30.7888864 6.76059327,34.8460466 C6.76045327,34.8543757 6.76232393,35.0180266 6.76779565,35.276143 C6.64674087,35.2766774 6.52649813,35.2771358 6.40618818,35.2767689 C5.32300879,29.6264893 4.25101576,23.8774477 3.12885039,18.3060821 C3.13206213,18.310355 2.91525616,13.7748093 3.96658977,9.29205592 C4.27781756,9.35602717 4.61963384,9.41380522 5.00262589,9.46980326 C4.73953878,10.3185805 4.53088593,11.1123599 4.43326604,11.7373124 C3.87032556,15.3497569 4.00170354,18.1328011 4.00130032,18.1278493 C4.68667561,21.7164403 5.353671,25.3807669 6.01741825,29.0453978 C6.02148688,29.0903389 5.27165062,18.4499575 6.27605612,9.60866974 C6.89398941,9.65595458 7.44376495,9.67511561 7.96364639,9.66880377 Z"/>
        <path fill="#B3DAE7" d="M8.23808753,34.9458737 C8.23916644,35.1939849 8.0577576,39.8704615 7.81918294,39.8595174 C7.57861784,39.867734 7.37391702,35.1866913 7.37494103,34.9388271 C7.36648515,30.8243747 7.35839105,26.6638822 7.34927169,22.5558167 C7.34903651,22.3169217 7.54359282,22.1242756 7.78177502,22.1263881 C8.02025508,22.1272095 8.21428593,22.3242153 8.21489568,22.562657 C8.22078842,26.6718354 8.22805668,30.8323967 8.23808753,34.9458737 Z"/>
        <path fill="#E6F9FF" d="M8.68791159 35.7855801C9.00355941 35.7858123 9.31927729 35.7868699 9.63536641 35.7874782 10.7950631 37.4555295 10.3536999 39.1718797 9.27977877 41.823042 7.98195217 45.0291267 7.10419976 96.0032842 7.10744876 95.8100541 7.10346437 96.0187356 7.3580646 44.5564627 6.01580834 41.8661708 4.6189729 39.275605 5.48366748 36.715658 6.12825237 35.7826723 6.38541889 35.7836033 6.6424453 35.7828836 6.89961181 35.7838146 6.94484869 37.189757 7.07350246 39.6030485 7.40594252 40.0418255 7.51686724 40.1882315 7.59488364 40.2945162 7.7936819 40.2923022 7.99248016 40.2900882 8.04273179 40.1955434 8.17056319 40.0202961 8.4769166 39.6003085 8.62790444 37.181468 8.68791159 35.7855801zM4.96740359 34.6361618C4.95694642 35.3037599 3.42855475 44.0936282 3.42855475 44.0936282 3.42855475 44.0936282 2.57332192 35.2490864 2.5834059 34.58194 2.59341515 33.9139603 3.13589357 33.3849189 3.79420452 33.4001971 4.45206754 33.4150936 4.97786075 33.9685637 4.96740359 34.6361618zM13.6367462 34.4538914C13.6263113 35.1214626 12.0978781 43.9113811 12.0978781 43.9113811 12.0978781 43.9113811 11.2423786 35.0671621 11.2528135 34.399591 11.2628005 33.7316381 11.8048732 33.2030878 12.4635394 33.2179361 13.1213845 33.2328543 13.6471811 33.7863202 13.6367462 34.4538914z"/>
      </g>
      <path fill="#E6F9FF" d="M14.1068115,11.8515437 C14.0561954,11.7859226 13.4265857,13.2559432 13.0735294,14.112426 C12.8381586,14.6834146 12.5617974,15.4386924 12.2444458,16.3782595 L12.0992073,16.7596289 C11.734825,17.6751058 11.5014858,18.3009264 11.3991897,18.6370906 C11.2968935,18.9732547 11.2221464,19.19721 11.1749483,19.3089563 C10.8580607,20.3446763 10.646222,21.2631903 10.5394323,22.0644984 C10.4522992,22.7183108 10.2608758,23.6838442 10.1803445,25.1441903 C10.1500164,25.694157 10.1500164,26.6423696 10.1803445,27.9888283 L12.1903363,38.8627925 C12.0098766,33.4482939 11.939691,29.5095533 11.9797794,27.0465707 C12.0198679,24.5835881 12.1811323,22.0485187 12.4635728,19.4413624 L12.5696303,18.7714203 L12.8529196,16.8913969 L12.9629983,16.4363467 C13.7592845,13.4235588 14.1405556,11.8952911 14.1068115,11.8515437 Z"/>
      <path fill="#002E3A" d="M10.386252 18.4977458C11.7154667 18.7075992 12.9200494 18.8075609 14 18.797631 15.0799506 18.7877011 16.3900731 18.6382073 17.9303673 18.3491495L18.0677975 19.0331189C17.0884608 19.3076171 15.779339 19.4610785 14.140432 19.4935031 12.4916019 19.526124 11.1830623 19.40546 10.2148132 19.131511L10.386252 18.4977458zM11.1365087 16.2603178C12.1517376 16.3948209 13.1062347 16.4579635 14 16.4497456 14.8937653 16.4415276 16.0194457 16.3285626 17.3770411 16.1108506L17.496915 16.5426633C16.6473708 16.7601769 15.5444203 16.8823509 14.1880637 16.9091855 12.8234947 16.9361825 11.7550213 16.8468313 10.9826436 16.6411321L11.1365087 16.2603178z"/>
    </g>
    <g transform="translate(217.72 16.316)">
      <path stroke="#FFFFFF" stroke-width=".12" d="M0.0179227941,23.9047879 C0.0179227941,10.8033981 10.7550602,0.182738536 24.0001343,0.182738536 C37.2449398,0.182738536 47.9820772,10.8033981 47.9820772,23.9047879 C47.9820772,37.0059122 37.2449398,47.6265717 24.0001343,47.6265717 C10.7550602,47.6265717 0.0179227941,37.0059122 0.0179227941,23.9047879 Z"/>
      <g transform="translate(10.588 16.408)">
        <path fill="#7DACBC" d="M10.1531383 11.5638574C9.73193438 12.6099321 9.32186859 13.6786198 8.95315656 14.7134516 8.32772624 14.6435284 7.71153689 14.5612223 7.11405715 14.4583502 7.41040845 13.41827 7.75075551 12.3826218 8.14170882 11.3662502 8.79567337 11.4531725 9.47011983 11.5156524 10.1531383 11.5638574zM13.7837603 11.8225697C15.7785083 11.7765876 17.6967368 11.5553657 19.498727 11.1952865 19.8318909 12.1730061 20.1139948 13.1751265 20.3561338 14.1826034 18.2979981 14.6627005 16.0730411 14.9606724 13.7345519 15.0077357 12.7853191 15.0276617 11.8606487 14.9947729 10.9528272 14.9360572 11.096438 13.8660483 11.2559474 12.8130878 11.4368609 11.7855982 12.2059619 11.8229257 12.9867973 11.8404553 13.7837603 11.8225697zM8.41261718 10.7291102C9.66212445 7.60196731 11.4611347 2.47342581 14.0036553.315277846 16.4865139 2.3181528 18.1412026 7.37500819 19.2932826 10.4718795 17.5209839 10.8173407 15.6918214 11.017835 13.851683 11.0625644 13.1733244 11.0784302 12.4455592 11.0674395 11.6371022 11.0306411 12.1168773 8.47645635 12.7139126 6.08263303 13.4762479 3.95079359 14.161257 1.60554575 11.9024817 7.17801297 10.4018636 10.9535086 10.3415466 10.9484713 10.2818699 10.942679 10.2208096 10.9370249 9.52052596 10.8742298 8.94676641 10.8071014 8.41261718 10.7291102z"/>
        <path fill="#B3DAE7" d="M17.3763281 54.6927681C18.3359048 49.8594851 19.5483835 43.9736022 20.5240775 39.1472834 22.4235827 40.7766811 24.3951722 41.980522 26.2793853 43.6248917 26.3085189 50.9413128 26.3791278 58.2882601 26.4955989 65.4620166 25.8773604 62.9545204 25.2677057 60.4277418 24.6639078 57.8894772 23.6880282 56.3564503 22.7134005 54.8219475 21.7407851 53.2865999 20.3978876 53.2660048 18.7231158 54.7103046 17.3763281 54.6927681zM9.2743103 54.5128292C7.93795235 54.5183207 6.26061125 53.1286776 4.92700868 53.1339111 3.9548629 54.6581581 2.9820837 56.1831518 2.00919367 57.706781 1.4023278 60.2416904.792785833 62.7692888.17673563 65.2851231.302327722 58.0727873.396060592 50.7245779.449538711 43.444753 2.33137182 41.8319106 4.22191439 40.2237522 6.11744512 38.6171891 7.06627611 43.428197 8.34224944 49.677567 9.2743103 54.5128292z"/>
        <path fill="#7DACBC" d="M13.6519652,16.145078 C15.971146,16.1180484 18.2764875,15.8499674 20.5033166,15.3474333 C22.1892677,22.8719173 21.6984938,30.5083242 21.7037788,30.4960384 C19.6400016,39.8686559 17.6400598,49.4612362 15.6360904,58.8965753 C15.3317094,58.8965896 15.028082,58.8972293 14.7230625,58.8979962 C14.7404772,58.4687104 14.748522,58.1958058 14.7488772,58.1832758 C14.7978364,51.4113499 14.8564103,44.5614777 14.9169668,37.7940477 C14.9208593,37.3791882 14.7592648,36.9898507 14.4620693,36.6982924 C14.1648739,36.4067341 13.7685975,36.247114 13.3486228,36.2486547 C12.8977923,36.2502349 12.4655292,36.4403616 12.1621182,36.7707797 C11.9018274,37.0549083 11.7569672,37.4194543 11.7532091,37.8023631 C11.7019362,44.5633912 11.6460312,51.4116311 11.5895885,58.1863231 C11.5893485,58.2002312 11.5925553,58.4734973 11.6019354,58.9045029 C11.3944129,58.9053953 11.1882825,58.9061607 10.9820369,58.905548 C9.12515792,49.4706472 7.28745559,39.8708325 5.36374352,30.5677032 C5.36924937,30.574838 4.99758198,23.0013325 6.79986818,15.5159802 C7.33340153,15.6228001 7.9193723,15.7192785 8.5759301,15.8127847 C8.12492362,17.2300826 7.76723302,18.5555444 7.59988465,19.5990972 C6.63484381,25.6311978 6.86006321,30.2783566 6.85937197,30.2700879 C8.03430105,36.2623579 9.17772171,42.3810918 10.3155741,48.500334 C10.3225489,48.5753773 9.03711535,30.8079479 10.7589534,16.0446655 C11.8182676,16.1236223 12.7607399,16.1556176 13.6519652,16.145078 Z"/>
        <path fill="#B3DAE7" d="M14.1224358,58.3530155 C14.1242853,58.7673144 13.8132987,66.576148 13.4043136,66.5578733 C12.9919163,66.5715935 12.6410006,58.7551355 12.6427561,58.341249 C12.6282603,51.4708899 12.6143847,44.5236523 12.5987515,37.6639581 C12.5983483,37.2650485 12.9318734,36.9433659 13.3401858,36.9468934 C13.7490087,36.9482649 14.081633,37.2772274 14.0826783,37.6753801 C14.0927801,44.5369327 14.10524,51.4842851 14.1224358,58.3530155 Z"/>
        <path fill="#E6F9FF" d="M14.8935627 59.7551667C15.4346733 59.7555545 15.9759039 59.7573205 16.517771 59.7583362 18.5058224 62.5436672 17.7491999 65.4096482 15.9081922 69.836589 13.6833466 75.1901456 12.1786282 160.307371 12.1841979 159.984713 12.1773675 160.333172 12.613825 74.4008858 10.3128143 69.9086059 7.91823925 65.5828499 9.40057283 61.3082214 10.5055755 59.7503112 10.9464324 59.7518658 11.3870491 59.7506642 11.827906 59.7522188 11.9054549 62.0998773 12.1260042 66.1296187 12.6959015 66.8622935 12.8860581 67.1067639 13.0198005 67.2842393 13.3605975 67.2805423 13.7013946 67.2768454 13.7875402 67.1189734 14.0066798 66.8263435 14.531857 66.1250435 14.7906933 62.0860362 14.8935627 59.7551667zM8.51554901 57.8358551C8.49762244 58.9506179 5.87752244 73.6280395 5.87752244 73.6280395 5.87752244 73.6280395 4.41140901 58.8593236 4.42869583 57.7453149 4.44585454 56.6299148 5.37581755 55.7465155 6.5043506 55.7720272 7.63211578 55.7969016 8.53347557 56.7210923 8.51554901 57.8358551zM23.3772792 57.5314979C23.3593907 58.6462158 20.7392196 73.3237212 20.7392196 73.3237212 20.7392196 73.3237212 19.272649 58.5555443 19.2905374 57.4408264 19.307658 56.3254712 20.2369255 55.4428919 21.3660675 55.4676857 22.4938019 55.4925964 23.3951677 56.41678 23.3772792 57.5314979z"/>
      </g>
      <path fill="#E6F9FF" d="M24.1831055,19.7898419 C24.096335,19.680267 23.017004,22.1349241 22.4117647,23.5650888 C22.0082718,24.5185319 21.5345098,25.7797033 20.9904785,27.3486032 L20.7414982,27.985418 C20.1168428,29.5140918 19.7168328,30.559094 19.541468,31.1204248 C19.3661032,31.6817556 19.2379653,32.0557186 19.1570542,32.2423139 C18.6138183,33.9717708 18.2506663,35.5055159 18.0675982,36.8435492 C17.9182273,37.9352926 17.5900728,39.5475512 17.4520192,41.9860536 C17.4000282,42.9043942 17.4000282,44.4877305 17.4520192,46.7360623 L20.8977194,64.8935309 C20.5883599,55.8523398 20.4680417,49.2753861 20.5367647,45.1626699 C20.6054878,41.0499537 20.8819411,36.8168661 21.3661248,32.4634071 L21.5479377,31.3447302 L22.0335765,28.2054458 L22.2222829,27.4455978 C23.5873449,22.4148104 24.2409524,19.8628918 24.1831055,19.7898419 Z"/>
      <path fill="#002E3A" d="M17.8050034 30.8877453C20.0836572 31.2381609 22.148656 31.4050781 24 31.3884971 25.851344 31.371916 28.0972681 31.1222895 30.7377724 30.6396176L30.9733671 31.7817173C29.2945043 32.2400776 27.0502954 32.4963291 24.2407406 32.5504721 21.4141747 32.6049429 19.170964 32.4034567 17.5111084 31.9460137L17.8050034 30.8877453zM19.0911578 27.1516628C20.8315501 27.3762576 22.4678309 27.4816938 24 27.4679714 25.5321691 27.4542489 27.4619069 27.2656187 29.7892133 26.9020806L29.9947115 27.6231265C28.5383499 27.9863331 26.6475777 28.1903407 24.3223949 28.2351493 21.9831337 28.2802292 20.1514651 28.1310297 18.827389 27.7875507L19.0911578 27.1516628z"/>
    </g>
    <g transform="translate(214.398 56.007)">
      <path fill="#093749" d="M180.275204,287 L76.9999879,287 L160.865222,200 C160.865222,200 265.479143,200.641 264.998348,200.641 L180.275204,287 Z" opacity=".2" transform="matrix(-1 0 0 1 342 0)"/>
      <path fill="#E6F9FF" fill-opacity=".05" stroke="#E6F9FF" stroke-width=".1" d="M0.00156250596,142.871956 C0.00156250596,72.8020548 56.8036173,16 126.873519,16 C196.942028,16 253.745475,72.8020548 253.745475,142.871956 C253.745475,212.941858 196.942028,269.743912 126.873519,269.743912 C56.8036173,269.743912 0.00156250596,212.941858 0.00156250596,142.871956 Z"/>
      <path fill="#A1D1E1" fill-rule="nonzero" d="M128.902093,63 C114.044885,63 102,75.0453981 102,89.9023941 C102,98.4571074 105.99783,106.073708 112.222083,111 L150,73.222622 C145.073637,66.9977729 137.456928,63 128.902093,63"/>
      <path fill="#D2EAF1" fill-rule="nonzero" d="M155.290039,182.436707 C155.290039,182.436707 155.655558,183.030518 156.386597,184.21814 L172.215271,170.164001 C171.836626,169.685752 171.362566,169.115134 170.793091,168.452148 C160.457723,177.775187 155.290039,182.436707 155.290039,182.436707 Z"/>
      <path stroke="#A9CAD3" stroke-width=".2" d="M106,116.410451 C111.997433,121.158709 119.572258,124 127.815245,124 C147.247681,124 163,108.247488 163,88.8162083 C163,80.5724239 160.15735,72.9982032 155.40915,67"/>
      <rect width="2" height="159" x="127" y="8" fill="#E5E5E5" fill-rule="nonzero"/>
      <path fill="#FFFFFF" fill-rule="nonzero" d="M86,92.5805385 C86,103.025154 89.6015673,112.623952 95.61775,120.222269 L158.222269,57.6170481 C150.623952,51.6015673 141.025154,48 130.580538,48 C105.959885,48 86,67.9591827 86,92.5805385" opacity=".2"/>
      <path fill="#FFFFFF" fill-rule="nonzero" d="M155.811768,89.8684232 C155.811768,83.5619235 153.636687,77.7662797 150.004467,73.1774902 L112.200439,110.981517 C116.789229,114.613738 122.584873,116.788818 128.892058,116.788818 C143.758995,116.788818 155.811768,104.736046 155.811768,89.8684232"/>
      <path stroke="#A9CAD3" stroke-width=".1" d="M159.156775,53.5670849 C150.958151,47.0758077 140.601996,43.1903813 129.332391,43.1903813 C102.766722,43.1903813 81.2315598,64.7255438 81.2315598,91.2912127 C81.2315598,102.560817 85.1179201,112.916039 91.6091974,121.115596"/>
      <path fill="#EBFAFF" fill-rule="nonzero" d="M96.5001221,200.013062 L138.397551,200 L156.469788,184.134827 C151.136047,174.659729 139.682186,167.622192 128.347624,167.622192 C110.835212,167.622192 96.5001221,182.171556 96.5001221,200.013062 Z"/>
      <path stroke="#A9CAD3" stroke-width=".1" d="M181.991457,158.647238 C187.327246,165.522344 191.343191,173.428961 193.633937,181.830089 C195.983188,190.217288 196.540378,199.073924 195.499826,207.708379 C194.445345,216.348405 191.655217,224.772518 187.343961,232.336459 C183.041064,239.905275 177.235146,246.612526 170.367783,251.964398 C163.505991,257.323234 155.580663,261.319028 147.181724,263.623035 C138.784875,265.927042 129.933219,266.568515 121.291206,265.493126 C112.645711,264.436542 104.216823,261.647078 96.6446143,257.338557 C89.0626548,253.045359 82.3575726,247.22196 77.0064616,240.348943 C71.6532611,233.475925 67.6637825,225.544931 65.3639818,217.14241 C63.0537338,208.741978 62.4436111,199.888824 63.50854,191.246708 C64.5699864,182.603199 67.367079,174.176997 71.684603,166.615146 C75.9937692,159.047722 81.8059548,152.34256 88.6761044,146.995565 C95.5413786,141.641604 103.469492,137.652078 111.867038,135.354339 C120.263888,133.03292 129.109275,132.463883 137.750591,133.489821 C146.390515,134.572871 154.800598,137.37139 162.375592,141.661106 C169.925513,145.99679 176.619452,151.797205 181.991457,158.647238" opacity=".503"/>
      <path fill="#FFFFFF" fill-rule="nonzero" d="M95.4996399,139 C97.4327606,139 99,140.567239 99,142.50036 C99,144.433481 97.4327606,146 95.4996399,146 C93.5665192,146 92,144.433481 92,142.50036 C92,140.567239 93.5665192,139 95.4996399,139 Z"/>
      <path fill="#D9F1F8" fill-rule="nonzero" d="M128.028076,167.776855 C144.823289,167.776855 155.385498,182.318848 155.335693,182.413086 L170.840576,168.519043 C168.552821,165.525544 165.11432,161.721279 162.258269,159.290962 C161.850262,158.94428 161.436703,158.603257 161.018287,158.268602 C152.189924,151.211133 141.067561,147 128.979303,147 C126.73665,147 124.527304,147.144333 122.358204,147.425924 C121.491535,147.537712 120.631112,147.67214 119.776933,147.827793 C118.4974,148.060566 117.233826,148.34145 115.988293,148.668322 C93.9829587,154.44165 77.6154805,174.538633 77.0166534,198.631665 C77.0055511,199.086597 77,199.542237 77,200 L96.6218225,200 C96.6218225,182.249846 111.232864,167.776855 128.028076,167.776855 Z"/>
      <path fill="#E6F5FA" fill-rule="nonzero" d="M138.355835,200 L160,200 C161.806833,199.98508 168.806833,199.991698 181,200 C181,198.19418 180.938753,196.409245 180.759644,194.649371 C180.742917,194.485775 180.692657,194.322179 180.674537,194.157887 C180.489853,192.505917 180.489064,190.87692 180.154541,189.275073 C180.118301,189.10382 180.095155,188.932975 180.054932,188.762705 C178.58703,182.54895 176.825195,176.693848 172.205444,170.14679 L138.355835,200 Z"/>
      <path fill="#A1D1E1" fill-rule="nonzero" d="M128.158766,9.83401542e-15 C123.653107,9.83401542e-15 120,3.65310662 120,8.15807424 C120,10.4493105 120.945974,12.5177203 122.465622,14 L134,2.46562207 C132.518412,0.945974 130.448618,0 128.158766,0"/>
      <path fill="#FFFFFF" fill-rule="nonzero" d="M128.14114,16.307373 C132.649198,16.307373 136.30481,12.6517611 136.30481,8.14301141 C136.30481,5.92637684 135.42051,3.91817932 133.98638,2.44665527 L122.444092,13.9889436 C123.914923,15.4223812 125.923813,16.307373 128.14114,16.307373"/>
      <rect width="128" height="3" x="68" y="192" fill="#7DACBC" fill-rule="nonzero"/>
      <path stroke="#124354" stroke-width=".35" d="M35,217 L208,217"/>
      <path stroke="#124354" stroke-width=".2" d="M79,189 L182,189"/>
    </g>
    <g transform="translate(.969 176)">
      <path fill="#093749" d="M109.884304,168 L152.449647,119 C151.687515,119 271.95542,119 271.474624,119 L228.344335,168 L109.884304,168 Z" opacity=".2" transform="matrix(-1 0 0 1 381.36 0)"/>
      <path fill="#E6F9FF" fill-rule="nonzero" d="M165.447225,0 C160.762353,0.252244681 156.192408,0.935117021 151.776396,2.0137766 C119.187763,9.97342021 95,39.3703777 95,74.422633 C95,91.1383723 100.500512,106.569894 109.78946,119.002351 L221.104295,119.002351 C230.393243,106.569894 235.894451,91.1383723 235.894451,74.422633 C235.894451,39.3703777 211.705991,9.97342021 179.117358,2.0137766 C174.701347,0.935117021 170.131402,0.252244681 165.447225,0 Z"/>
      <g fill="#BADDE5" fill-rule="nonzero" transform="matrix(-1 0 0 1 135 119)" opacity=".7">
        <path d="M133.291743 10.3626383L33.0977341 10.3626383C32.4917514 10.3626383 32 9.8713883 32 9.26377128L32 6.09956383C32 5.49194681 32.4917514 5 33.0977341 5L133.291743 5C133.898422 5 134.390173 5.49194681 134.390173 6.09956383L134.390173 9.26377128C134.390173 9.8713883 133.898422 10.3626383 133.291743 10.3626383M68.4286763 3.62201064L.74250289 3.62201064C.332942197 3.62201064 0 3.29032979 0 2.87990957L0 .742101064C0 .331680851.332942197 0 .74250289 0L68.4286763 0C68.838237 0 69.1704827.331680851 69.1704827.742101064L69.1704827 2.87990957C69.1704827 3.29032979 68.838237 3.62201064 68.4286763 3.62201064"/>
      </g>
      <path fill="#B8D6DD" fill-rule="nonzero" d="M186.795176,2.12944681 C181.110084,0.740707447 175.172847,0 169.062173,0 C167.699061,0 166.345699,0.0418085106 165,0.115670213 C169.685569,0.367914894 174.255514,1.05078723 178.670829,2.12944681 C211.258766,10.0890904 235.447225,39.4860479 235.447225,74.5383032 C235.447225,91.2540426 229.946714,106.685564 220.657766,119.118021 L228.78072,119.118021 C238.069668,106.685564 243.570876,91.2540426 243.570876,74.5383032 C243.570876,39.4860479 219.382416,10.0890904 186.795176,2.12944681"/>
      <g transform="translate(97 37)">
        <circle cx="19" cy="20" r="5" fill="#7DACBC"/>
        <circle cx="24.228" cy="6.386" r="5" fill="#7DACBC"/>
        <path fill="#124354" fill-rule="nonzero" d="M24.1547688,1.83244149 C21.6500405,1.83244149 19.6112919,3.87130319 19.6112919,6.3770266 C19.6112919,8.88205319 21.6500405,10.9216117 24.1547688,10.9216117 C26.6594971,10.9216117 28.6968526,8.88205319 28.6968526,6.3770266 C28.6968526,3.87130319 26.6594971,1.83244149 24.1547688,1.83244149 M24.1547688,11.8086489 C21.1603786,11.8086489 18.7246069,9.37260638 18.7246069,6.3770266 C18.7246069,3.38214362 21.1603786,0.944707447 24.1547688,0.944707447 C27.149159,0.944707447 29.5842341,3.38214362 29.5842341,6.3770266 C29.5842341,9.37260638 27.149159,11.8086489 24.1547688,11.8086489"/>
        <polygon fill="#124354" fill-rule="nonzero" points="5.298 5.933 19.237 5.933 19.237 6.82 4.908 6.82"/>
        <path fill="#124354" fill-rule="nonzero" d="M18.9904249,15.5679309 C16.4856965,15.5679309 14.448341,17.6067926 14.448341,20.112516 C14.448341,22.6175426 16.4856965,24.6571011 18.9904249,24.6571011 C21.4951532,24.6571011 23.5339017,22.6175426 23.5339017,20.112516 C23.5339017,17.6067926 21.4951532,15.5679309 18.9904249,15.5679309 M18.9904249,25.5441383 C15.9960347,25.5441383 13.5609595,23.1073989 13.5609595,20.112516 C13.5609595,17.1162394 15.9960347,14.6801968 18.9904249,14.6801968 C21.984815,14.6801968 24.4205867,17.1162394 24.4205867,20.112516 C24.4205867,23.1073989 21.984815,25.5441383 18.9904249,25.5441383"/>
        <polygon fill="#124354" fill-rule="nonzero" points=".465 19.669 14.074 19.669 14.074 20.556 .226 20.556"/>
      </g>
    </g>
    <g transform="translate(416.203)">
      <path fill="#093749" d="M62.0280762,344 C83.9561361,323.276367 94.920166,312.914551 94.920166,312.914551 C94.920166,312.914551 123.946777,312.953288 182,313.030762 L147.974983,344 L62.0280762,344 Z" opacity=".2" transform="matrix(-1 0 0 1 244.028 0)"/>
      <path fill="#E5E5E5" fill-rule="nonzero" d="M92.9267578,104.5 C92.9267578,98.1489623 98.0757201,93 104.426758,93 C110.777796,93 115.926758,98.1489623 115.926758,104.5 C115.926758,110.851038 110.777796,116 104.426758,116 C98.0757201,116 92.9267578,110.851038 92.9267578,104.5"/>
      <path fill="#7DACBC" fill-rule="nonzero" d="M104.905838,106 C81.2090627,106 62,125.209762 62,148.906538 C62,162.805642 68.6115564,175.159623 78.8577894,183 L139,122.858489 C131.158924,112.610857 118.805642,106 104.905838,106"/>
      <path fill="#E5E5E5" fill-rule="nonzero" d="M146,148.687018 C146,139.025574 142.759966,130.122554 137.309532,123 L78,182.308841 C85.1218641,187.759276 94.0262645,191 103.687708,191 C127.05598,191 146,172.05598 146,148.687018"/>
      <path fill="#7DACBC" fill-opacity=".6" fill-rule="nonzero" d="M149.795833,149.34375 C149.795833,138.788194 146.255556,129.059028 140.300694,121.277083 L75.5,186.078472 C83.2819444,192.033333 93.0097222,195.574306 103.565278,195.574306 C129.097917,195.574306 149.795833,174.875694 149.795833,149.34375"/>
      <path fill="#FFFFFF" fill-rule="nonzero" d="M159.995828,146.865116 C159.995828,134.188372 155.757898,122.505116 148.630945,113.158372 L71.0688359,190.984651 C80.3832422,198.135814 92.0269453,202.38814 104.660773,202.38814 C135.222539,202.38814 159.995828,177.529302 159.995828,146.865116" opacity=".1"/>
      <path fill="#B7E8F8" fill-rule="nonzero" d="M104.736729,28 C93.2840287,28 84,37.2842057 84,48.7364187 C84,55.3314208 87.0819816,61.2021082 91.8791529,65 L121,35.8793031 C117.202181,31.0813351 111.331605,28 104.736729,28"/>
      <polygon fill="#FFFFFF" fill-rule="nonzero" points="106 225 103 225 104.427 0 104.403 0 106 225"/>
      <path fill="#6594A4" fill-rule="nonzero" d="M125.474609,48.7183884 C125.474609,43.8533056 123.796968,39.3836431 120.99525,35.8453369 L91.8405762,65.0012344 C95.3794399,67.8030702 99.8496208,69.4793701 104.713087,69.4793701 C116.178384,69.4793701 125.474609,60.1841669 125.474609,48.7183884"/>
      <path stroke="#FFFFFF" stroke-width=".1" d="M42,149.000347 C42,114.758334 69.7583344,87 104.000347,87 C138.241666,87 166,114.758334 166,149.000347 C166,183.241666 138.241666,211 104.000347,211 C69.7583344,211 42,183.241666 42,149.000347 Z"/>
      <path stroke="#124354" stroke-width=".29" d="M47 313L161 313M36 317L103 317"/>
      <path fill="#B8D6DD" fill-rule="nonzero" d="M104.997981,224.210693 C103.991877,224.210693 102.992783,224.24228 102,224.295627 C105.457915,224.483044 108.831695,224.98633 112.091194,225.783726 C136.14796,231.664525 154.003336,253.380944 154.003336,279.276675 C154.003336,284.919519 153.153581,290.361609 151.578169,295.487829 C149.706884,301.57991 146.809864,308.017035 143.085524,313.005676 L149.082188,313.005676 C152.806528,308.017035 155.702847,301.57991 157.574832,295.487829 C159.149544,290.361609 160,284.919519 160,279.276675 C160,253.380944 142.143923,231.664525 118.087857,225.783726 C113.892366,224.758201 109.508976,224.210693 104.997981,224.210693 Z"/>
      <path fill="#E6F9FF" fill-rule="nonzero" d="M143.139154,313.002411 C146.816,307.885371 149.677308,301.91056 151.524385,295.66096 L53.6147692,295.66096 C55.4625385,301.91056 58.3231538,307.884547 62,313.001587 L143.139154,313.002411 Z" opacity=".6"/>
      <path fill="#E6F9FF" d="M112.519342,225.820245 C109.305604,225.030196 105.979188,224.530412 102.569819,224.344559 C99.1604497,224.530412 95.8340336,225.030196 92.619604,225.820245 C76.5847852,229.762833 63.3468658,240.882686 56.4507047,255.606833 C53.1111544,262.813333 51.296557,270.626118 51.296557,278.86699 C51.296557,284.462765 51.9668052,289.860157 53.5194092,294.942922 L151.748566,294.942922 C153.301861,289.860157 154.07251,284.462765 154.07251,278.86699 C154.07251,253.187265 136.238376,231.651294 112.519342,225.820245 Z"/>
      <path fill="#E5E5E5" fill-rule="nonzero" d="M41.3701172,127.419922 C41.3701172,124.935136 43.3847948,122.919922 45.870463,122.919922 C48.3554396,122.919922 50.3701172,124.935136 50.3701172,127.419922 C50.3701172,129.904707 48.3554396,131.919922 45.870463,131.919922 C43.3847948,131.919922 41.3701172,129.904707 41.3701172,127.419922"/>
      <path fill="#6594A4" fill-rule="nonzero" d="M127.061523,93.7963867 C127.061523,90.7582459 129.523383,88.2963867 132.561523,88.2963867 C135.598295,88.2963867 138.061523,90.7582459 138.061523,93.7963867 C138.061523,96.8345276 135.598295,99.2963867 132.561523,99.2963867 C129.523383,99.2963867 127.061523,96.8345276 127.061523,93.7963867"/>
      <g transform="translate(52.935 250.258)">
        <circle cx="15.567" cy="16.386" r="4.097" fill="#7DACBC"/>
        <circle cx="19.85" cy="5.232" r="4.097" fill="#7DACBC"/>
        <path fill="#124354" fill-rule="nonzero" d="M19.7900838,1.50132552 C17.7379514,1.50132552 16.0675979,3.17177181 16.0675979,5.22471948 C16.0675979,7.27709625 17.7379514,8.94811344 19.7900838,8.94811344 C21.8422162,8.94811344 23.5114285,7.27709625 23.5114285,5.22471948 C23.5114285,3.17177181 21.8422162,1.50132552 19.7900838,1.50132552 M19.7900838,9.67486605 C17.3367698,9.67486605 15.3411339,7.67900814 15.3411339,5.22471948 C15.3411339,2.77100172 17.3367698,0.774002009 19.7900838,0.774002009 C22.2433978,0.774002009 24.2384632,2.77100172 24.2384632,5.22471948 C24.2384632,7.67900814 22.2433978,9.67486605 19.7900838,9.67486605"/>
        <polygon fill="#124354" fill-rule="nonzero" points="4.341 4.861 15.761 4.861 15.761 5.588 4.022 5.588"/>
        <path fill="#124354" fill-rule="nonzero" d="M15.5589194,12.7548585 C13.506787,12.7548585 11.8375747,14.4253047 11.8375747,16.4782524 C11.8375747,18.5306292 13.506787,20.2016464 15.5589194,20.2016464 C17.6110518,20.2016464 19.2814054,18.5306292 19.2814054,16.4782524 C19.2814054,14.4253047 17.6110518,12.7548585 15.5589194,12.7548585 M15.5589194,20.928399 C13.1056054,20.928399 11.1105401,18.9319702 11.1105401,16.4782524 C11.1105401,14.0233929 13.1056054,12.0275349 15.5589194,12.0275349 C18.0122334,12.0275349 20.0078694,14.0233929 20.0078694,16.4782524 C20.0078694,18.9319702 18.0122334,20.928399 15.5589194,20.928399"/>
        <polygon fill="#124354" fill-rule="nonzero" points=".381 16.115 11.531 16.115 11.531 16.841 .185 16.841"/>
      </g>
      <rect width="105.311" height="2.53" x=".209" y="274.042" fill="#BADDE5" fill-rule="nonzero" opacity=".703"/>
    </g>
  </g>
</svg>
