<svg xmlns="http://www.w3.org/2000/svg" width="673" height="389" viewBox="0 0 673 389">
  <g fill="none" fill-rule="evenodd" transform="translate(-1.603 .008)">
    <g transform="translate(241.817 75.104)">
      <path fill="#093749" d="M203.317899,313.192984 L86.8420916,313.192984 L173.956145,225.605536 C173.956145,225.605536 291.94177,226.328602 291.39952,226.328602 L203.317899,313.192984 Z" opacity=".2" transform="matrix(-1 0 0 1 378.243 0)"/>
      <path fill="#E6F9FF" fill-opacity=".05" stroke="#E6F9FF" stroke-width=".1" d="M0.00176222477,161.163521 C0.00176222477,82.1227331 64.06423,18.0484429 143.090435,18.0484429 C222.115069,18.0484429 286.179107,82.1227331 286.179107,161.163521 C286.179107,240.20431 222.115069,304.2786 143.090435,304.2786 C64.06423,304.2786 0.00176222477,240.20431 0.00176222477,161.163521 Z"/>
      <path fill="#A1D1E1" fill-rule="nonzero" d="M145.3783,71.0657439 C128.622051,71.0657439 115.037594,84.6532864 115.037594,101.412389 C115.037594,111.062343 119.546425,119.654079 126.566259,125.211073 L169.172932,82.5971445 C163.616884,75.5753425 155.026611,71.0657439 145.3783,71.0657439"/>
      <path fill="#D2EAF1" fill-rule="nonzero" d="M175.139142,205.793655 C175.139142,205.793655 175.551382,206.46349 176.375861,207.803161 L194.227749,191.949704 C193.800706,191.410225 193.266052,190.766552 192.623787,190.018686 C180.967357,200.535332 175.139142,205.793655 175.139142,205.793655 Z"/>
      <path stroke="#A9CAD3" stroke-width=".2" d="M119.548872,131.314211 C126.312894,136.670378 134.85593,139.875433 144.152532,139.875433 C166.068813,139.875433 183.834586,122.106163 183.834586,100.187142 C183.834586,90.8879245 180.628591,82.3439939 175.273478,75.5778547"/>
      <rect width="2.256" height="179.356" x="143.233" y="9.024" fill="#E5E5E5" fill-rule="nonzero"/>
      <path fill="#FFFFFF" fill-rule="nonzero" d="M96.9924812,104.43341 C96.9924812,116.215225 101.054399,127.042935 107.839568,135.614048 L178.446168,64.9936252 C169.876638,58.2079963 159.050925,54.1453287 147.271284,54.1453287 C119.503629,54.1453287 96.9924812,76.6598393 96.9924812,104.43341" opacity=".2"/>
      <path fill="#FFFFFF" fill-rule="nonzero" d="M175.727557,101.374069 C175.727557,94.2601628 173.274459,87.7225162 169.17797,82.5462347 L126.541849,125.190224 C131.717175,129.287469 138.253616,131.74102 145.366983,131.74102 C162.134205,131.74102 175.727557,118.145159 175.727557,101.374069"/>
      <path stroke="#A9CAD3" stroke-width=".1" d="M179.500122,60.4251546 C170.253554,53.1028142 158.573679,48.7199457 145.863599,48.7199457 C115.902318,48.7199457 91.6145411,73.0122051 91.6145411,102.979015 C91.6145411,115.691441 95.9976543,127.372418 103.318644,136.621745"/>
      <path fill="#EBFAFF" fill-rule="nonzero" d="M108.834724,225.62027 L156.087464,225.605536 L176.469685,207.709182 C170.454189,197.021009 157.5363,189.082473 144.75296,189.082473 C125.002119,189.082473 108.834724,205.494558 108.834724,225.62027 Z"/>
      <path stroke="#A9CAD3" stroke-width=".1" d="M205.253523,178.958476 C211.27133,186.713786 215.800591,195.632669 218.38414,205.109374 C221.033671,214.570366 221.662081,224.560897 220.488526,234.300801 C219.299261,244.04699 216.1525,253.549622 211.290182,262.081957 C206.43729,270.619791 199.889263,278.185756 192.144116,284.222815 C184.405253,290.267731 175.466914,294.775098 165.994426,297.374081 C156.524295,299.973065 146.541225,300.696664 136.794594,299.483595 C127.044035,298.29174 117.53777,295.145147 108.997685,290.285016 C100.446603,285.442169 92.8844804,278.873214 86.8493928,271.120261 C80.8119486,263.367307 76.3125367,254.420926 73.7187765,244.942649 C71.1132337,235.46673 70.4251253,225.480127 71.6261729,215.731581 C72.823293,205.981464 75.9779086,196.476474 80.8472967,187.946497 C85.7072585,179.410234 92.262355,171.846625 100.010644,165.815066 C107.753434,159.77565 116.694916,155.275354 126.165833,152.683442 C135.635964,150.064816 145.611964,149.422927 155.35781,150.580213 C165.102085,151.801924 174.58714,154.958731 183.130367,159.797649 C191.645316,164.688421 199.19487,171.231449 205.253523,178.958476" opacity=".503"/>
      <path fill="#FFFFFF" fill-rule="nonzero" d="M107.706361,156.795848 C109.886572,156.795848 111.654135,158.563737 111.654135,160.744351 C111.654135,162.924965 109.886572,164.692042 107.706361,164.692042 C105.526149,164.692042 103.759398,162.924965 103.759398,160.744351 C103.759398,158.563737 105.526149,156.795848 107.706361,156.795848 Z"/>
      <path fill="#D9F1F8" fill-rule="nonzero" d="M144.392567,189.256937 C163.334536,189.256937 175.246802,205.660707 175.190632,205.76701 L192.677342,190.094145 C190.097166,186.717396 186.219158,182.426079 182.998048,179.684615 C182.537889,179.293547 182.07147,178.908865 181.599572,178.531365 C171.642772,170.570344 159.098753,165.820069 145.465379,165.820069 C142.936072,165.820069 140.444328,165.982881 137.997974,166.300524 C137.020529,166.426623 136.050126,166.578262 135.086767,166.753843 C133.643684,167.016417 132.218601,167.333262 130.813865,167.701983 C105.995818,174.214456 87.5362562,196.88441 86.8608872,224.062016 C86.8483659,224.575193 86.8421053,225.089167 86.8421053,225.605536 L108.97198,225.605536 C108.97198,205.582872 125.450598,189.256937 144.392567,189.256937 Z"/>
      <path fill="#E6F5FA" fill-rule="nonzero" d="M156.040415,225.605536 L180.451128,225.605536 C182.48891,225.588706 190.383647,225.596172 204.135338,225.605536 C204.135338,223.568522 204.066262,221.555065 203.86426,219.569879 C203.845396,219.385338 203.788711,219.200798 203.768275,219.015472 C203.559984,217.152004 203.559094,215.31445 203.181813,213.507522 C203.140941,213.314343 203.114837,213.121625 203.069472,212.929556 C201.413944,205.920269 199.426912,199.315551 194.216667,191.930289 L156.040415,225.605536 Z"/>
      <path fill="#A1D1E1" fill-rule="nonzero" d="M144.539962,1.10930416e-14 C139.458391,1.10930416e-14 135.338346,4.12080539 135.338346,9.20253357 C135.338346,11.7871115 136.405234,14.120335 138.119123,15.7923875 L151.12782,2.78128994 C149.456856,1.06708486 147.122502,0 144.539962,0"/>
      <path fill="#FFFFFF" fill-rule="nonzero" d="M144.520083,18.3951682 C149.604358,18.3951682 153.727229,14.2715367 153.727229,9.18554228 C153.727229,6.68511712 152.729899,4.41981473 151.112459,2.75989488 L138.09484,15.7799157 C139.753673,17.3968729 142.019338,18.3951682 144.520083,18.3951682"/>
      <rect width="144.361" height="3.384" x="76.692" y="216.581" fill="#7DACBC" fill-rule="nonzero"/>
      <path stroke="#124354" stroke-width=".35" d="M39.4736842,244.782007 L234.586466,244.782007"/>
      <path stroke="#124354" stroke-width=".2" d="M89.0977444,213.197232 L205.263158,213.197232"/>
    </g>
    <g transform="translate(1.093 198.508)">
      <path fill="#093749" d="M123.972036,189 L171.994473,133.875 C171.134632,133.875 306.8215,133.875 306.279064,133.875 L257.619249,189 L123.972036,189 Z" opacity=".2" transform="matrix(-1 0 0 1 430.253 0)"/>
      <path fill="#E6F9FF" fill-rule="nonzero" d="M186.658408,0 C181.372911,0.283775266 176.217075,1.05200665 171.234908,2.26549867 C134.468245,11.2200977 107.179487,44.2916749 107.179487,83.7254621 C107.179487,102.530669 113.385193,119.89113 123.865031,133.877645 L249.450999,133.877645 C259.930838,119.89113 266.137329,102.530669 266.137329,83.7254621 C266.137329,44.2916749 238.847785,11.2200977 202.081122,2.26549867 C197.098955,1.05200665 191.94312,0.283775266 186.658408,0 Z"/>
      <g fill="#BADDE5" fill-rule="nonzero" transform="matrix(-1 0 0 1 152.308 133.875)" opacity=".7">
        <path d="M150.380428 11.6579681L37.3410333 11.6579681C36.6573606 11.6579681 36.1025641 11.1053118 36.1025641 10.4217427L36.1025641 6.86200931C36.1025641 6.17844016 36.6573606 5.625 37.3410333 5.625L150.380428 5.625C151.064886 5.625 151.619683 6.17844016 151.619683 6.86200931L151.619683 10.4217427C151.619683 11.1053118 151.064886 11.6579681 150.380428 11.6579681M77.2015835 4.07476197L.837695568 4.07476197C.375627094 4.07476197 0 3.70162101 0 3.23989827L0 .834863697C0 .373140957.375627094 0 .837695568 0L77.2015835 0C77.663652 0 78.0384933.373140957 78.0384933.834863697L78.0384933 3.23989827C78.0384933 3.70162101 77.663652 4.07476197 77.2015835 4.07476197"/>
      </g>
      <path fill="#B8D6DD" fill-rule="nonzero" d="M210.743276,2.39562766 C204.329325,0.833295878 197.630904,0 190.736811,0 C189.19894,0 187.672071,0.0470345745 186.153846,0.130128989 C191.44013,0.413904255 196.595965,1.18213564 201.577346,2.39562766 C238.343223,11.3502267 265.632767,44.4218039 265.632767,83.8555911 C265.632767,102.660798 259.427062,120.021259 248.947223,134.007774 L258.111581,134.007774 C268.59142,120.021259 274.797911,102.660798 274.797911,83.8555911 C274.797911,44.4218039 247.508367,11.3502267 210.743276,2.39562766"/>
      <g transform="translate(109.436 41.625)">
        <ellipse cx="21.436" cy="22.5" fill="#7DACBC" rx="5.641" ry="5.625"/>
        <ellipse cx="27.334" cy="7.185" fill="#7DACBC" rx="5.641" ry="5.625"/>
        <path fill="#124354" fill-rule="nonzero" d="M27.251534,2.06149668 C24.4256867,2.06149668 22.1255601,4.35521609 22.1255601,7.17415492 C22.1255601,9.99230984 24.4256867,12.2868132 27.251534,12.2868132 C30.0773814,12.2868132 32.3759363,9.99230984 32.3759363,7.17415492 C32.3759363,4.35521609 30.0773814,2.06149668 27.251534,2.06149668 M27.251534,13.2847301 C23.8732477,13.2847301 21.1251976,10.5441822 21.1251976,7.17415492 C21.1251976,3.80491157 23.8732477,1.06279588 27.251534,1.06279588 C30.6298204,1.06279588 33.3770846,3.80491157 33.3770846,7.17415492 C33.3770846,10.5441822 30.6298204,13.2847301 27.251534,13.2847301"/>
        <polygon fill="#124354" fill-rule="nonzero" points="5.978 6.675 21.704 6.675 21.704 7.673 5.538 7.673"/>
        <path fill="#124354" fill-rule="nonzero" d="M21.4250947,17.5139222 C18.5992474,17.5139222 16.3006925,19.8076416 16.3006925,22.6265805 C16.3006925,25.4447354 18.5992474,27.7392387 21.4250947,27.7392387 C24.250942,27.7392387 26.5510686,25.4447354 26.5510686,22.6265805 C26.5510686,19.8076416 24.250942,17.5139222 21.4250947,17.5139222 M21.4250947,28.7371556 C18.0468084,28.7371556 15.2995441,25.9958238 15.2995441,22.6265805 C15.2995441,19.2557693 18.0468084,16.5152214 21.4250947,16.5152214 C24.8033811,16.5152214 27.5514312,19.2557693 27.5514312,22.6265805 C27.5514312,25.9958238 24.8033811,28.7371556 21.4250947,28.7371556"/>
        <polygon fill="#124354" fill-rule="nonzero" points=".524 22.127 15.878 22.127 15.878 23.125 .255 23.125"/>
      </g>
    </g>
    <g transform="translate(469.429)">
      <path fill="#093749" d="M69.8239546,388 C94.5080002,364.62567 106.850023,352.938505 106.850023,352.938505 C106.850023,352.938505 139.524788,352.982197 204.874317,353.06958 L166.572931,388 L69.8239546,388 Z" opacity=".2" transform="matrix(-1 0 0 1 274.698 0)"/>
      <path fill="#E5E5E5" fill-rule="nonzero" d="M104.606077,117.866279 C104.606077,110.702899 110.402177,104.895349 117.551432,104.895349 C124.700688,104.895349 130.496787,110.702899 130.496787,117.866279 C130.496787,125.029659 124.700688,130.837209 117.551432,130.837209 C110.402177,130.837209 104.606077,125.029659 104.606077,117.866279"/>
      <path fill="#7DACBC" fill-rule="nonzero" d="M118.090725,119.55814 C91.4156662,119.55814 69.7923497,141.224965 69.7923497,167.952723 C69.7923497,183.629619 77.2348668,197.563761 88.7688777,206.406977 L156.469945,138.572947 C147.643378,127.014571 133.737499,119.55814 118.090725,119.55814"/>
      <path fill="#E5E5E5" fill-rule="nonzero" d="M164.349727,167.705125 C164.349727,156.807915 160.702475,146.766137 154.567014,138.732558 L87.8032787,205.627414 C95.8202405,211.774997 105.843773,215.430233 116.719496,215.430233 C143.024764,215.430233 164.349727,194.06314 164.349727,167.705125"/>
      <path fill="#7DACBC" fill-opacity=".6" fill-rule="nonzero" d="M168.622632,168.445858 C168.622632,156.540173 164.637401,145.566578 157.934115,136.789268 L84.989071,209.879207 C93.7490741,216.595736 104.699469,220.589624 116.581679,220.589624 C145.323338,220.589624 168.622632,197.243516 168.622632,168.445858"/>
      <path fill="#FFFFFF" fill-rule="nonzero" d="M180.104593,165.650189 C180.104593,151.352001 175.334028,138.174375 167.311337,127.632117 L80.0009847,215.41292 C90.486054,223.478767 103.593173,228.274995 117.81486,228.274995 C152.217722,228.274995 180.104593,200.236539 180.104593,165.650189" opacity=".1"/>
      <path fill="#B7E8F8" fill-rule="nonzero" d="M117.900361,31.5813953 C105.008251,31.5813953 94.557377,42.0531157 94.557377,54.9701467 C94.557377,62.4086956 98.0267115,69.0302848 103.426806,73.3139535 L136.20765,40.4685163 C131.932509,35.0568547 125.324102,31.5813953 117.900361,31.5813953"/>
      <polygon fill="#FFFFFF" fill-rule="nonzero" points="119.322 253.779 115.945 253.779 117.551 0 117.524 0 119.322 253.779"/>
      <path fill="#6594A4" fill-rule="nonzero" d="M141.244642,54.9498101 C141.244642,49.4624493 139.356149,44.4210859 136.202303,40.4302056 L103.383381,73.3153458 C107.36702,76.4755559 112.399027,78.3662663 117.873748,78.3662663 C130.780039,78.3662663 141.244642,67.8821418 141.244642,54.9498101"/>
      <path stroke="#FFFFFF" stroke-width=".1" d="M47.2786885,168.058531 C47.2786885,129.436726 78.5257753,98.127907 117.071429,98.127907 C155.616301,98.127907 186.863388,129.436726 186.863388,168.058531 C186.863388,206.679553 155.616301,237.988372 117.071429,237.988372 C78.5257753,237.988372 47.2786885,206.679553 47.2786885,168.058531 Z"/>
      <path stroke="#124354" stroke-width=".29" d="M52.9071038 353.034884L181.234973 353.034884M40.5245902 357.546512L115.945355 357.546512"/>
      <path fill="#B8D6DD" fill-rule="nonzero" d="M118.194449,252.888805 C117.061894,252.888805 115.937231,252.924433 114.819672,252.984603 C118.712188,253.195991 122.509996,253.763651 126.179158,254.66304 C153.259452,261.296034 173.358947,285.790135 173.358947,314.99811 C173.358947,321.362713 172.402392,327.500885 170.628977,333.282784 C168.522504,340.154085 165.261377,347.414563 161.068951,353.041286 L167.819294,353.041286 C172.01172,347.414563 175.272057,340.154085 177.379319,333.282784 C179.151945,327.500885 180.10929,321.362713 180.10929,314.99811 C180.10929,285.790135 160.009006,261.296034 132.929501,254.66304 C128.206707,253.506344 123.272399,252.888805 118.194449,252.888805 Z"/>
      <path fill="#E6F9FF" fill-rule="nonzero" d="M161.129321,353.037603 C165.268284,347.266058 168.48921,340.527027 170.568433,333.47806 L60.3532375,333.47806 C62.43324,340.527027 65.6533863,347.265128 69.7923497,353.036674 L161.129321,353.037603 Z" opacity=".6"/>
      <path fill="#E6F9FF" d="M126.661118,254.70423 C123.043467,253.813128 119.298977,253.249418 115.461107,253.039793 C111.623238,253.249418 107.878748,253.813128 104.260319,254.70423 C86.2101954,259.151103 71.3084937,271.693262 63.545602,288.300731 C59.7863268,296.428992 57.7436653,305.241086 57.7436653,314.536024 C57.7436653,320.847537 58.4981522,326.935293 60.2458923,332.668179 L170.82079,332.668179 C172.569308,326.935293 173.436814,320.847537 173.436814,314.536024 C173.436814,285.571682 153.361232,261.281111 126.661118,254.70423 Z"/>
      <path fill="#E5E5E5" fill-rule="nonzero" d="M46.5696401,143.717819 C46.5696401,140.915212 48.8375286,138.642237 51.6356032,138.642237 C54.4328992,138.642237 56.7007877,140.915212 56.7007877,143.717819 C56.7007877,146.520426 54.4328992,148.7934 51.6356032,148.7934 C48.8375286,148.7934 46.5696401,146.520426 46.5696401,143.717819"/>
      <path fill="#6594A4" fill-rule="nonzero" d="M143.031005,105.793599 C143.031005,102.366859 145.802278,99.5901106 149.222261,99.5901106 C152.640704,99.5901106 155.413518,102.366859 155.413518,105.793599 C155.413518,109.220339 152.640704,111.997087 149.222261,111.997087 C145.802278,111.997087 143.031005,109.220339 143.031005,105.793599"/>
      <g transform="translate(59.588 282.268)">
        <ellipse cx="17.523" cy="18.482" fill="#7DACBC" rx="4.611" ry="4.62"/>
        <ellipse cx="22.345" cy="5.902" fill="#7DACBC" rx="4.611" ry="4.62"/>
        <path fill="#124354" fill-rule="nonzero" d="M22.2773621,1.69335552 C19.9673115,1.69335552 18.0870227,3.57746355 18.0870227,5.89299755 C18.0870227,8.20788763 19.9673115,10.0926396 22.2773621,10.0926396 C24.5874128,10.0926396 26.4664168,8.20788763 26.4664168,5.89299755 C26.4664168,3.57746355 24.5874128,1.69335552 22.2773621,1.69335552 M22.2773621,10.9123489 C19.5157081,10.9123489 17.2692545,8.66120686 17.2692545,5.89299755 C17.2692545,3.12543217 19.5157081,0.873002266 22.2773621,0.873002266 C25.0390162,0.873002266 27.2848274,3.12543217 27.2848274,5.89299755 C27.2848274,8.66120686 25.0390162,10.9123489 22.2773621,10.9123489"/>
        <polygon fill="#124354" fill-rule="nonzero" points="4.886 5.483 17.742 5.483 17.742 6.303 4.527 6.303"/>
        <path fill="#124354" fill-rule="nonzero" d="M17.514412,14.3862938 C15.2043613,14.3862938 13.3253573,16.2704019 13.3253573,18.5859359 C13.3253573,20.9008259 15.2043613,22.7855779 17.514412,22.7855779 C19.8244626,22.7855779 21.7047514,20.9008259 21.7047514,18.5859359 C21.7047514,16.2704019 19.8244626,14.3862938 17.514412,14.3862938 M17.514412,23.6052872 C14.752758,23.6052872 12.5069467,21.3535012 12.5069467,18.5859359 C12.5069467,15.8170826 14.752758,13.5659406 17.514412,13.5659406 C20.276066,13.5659406 22.5225196,15.8170826 22.5225196,18.5859359 C22.5225196,21.3535012 20.276066,23.6052872 17.514412,23.6052872"/>
        <polygon fill="#124354" fill-rule="nonzero" points=".429 18.176 12.98 18.176 12.98 18.995 .208 18.995"/>
      </g>
      <rect width="118.547" height="2.853" x=".236" y="309.094" fill="#BADDE5" fill-rule="nonzero" opacity=".703"/>
    </g>
  </g>
</svg>
