<svg xmlns="http://www.w3.org/2000/svg" width="59" height="31" viewBox="0 0 59 31">
  <g fill="none" fill-rule="evenodd" transform="matrix(-1 0 0 1 58.381 .025)">
    <path fill="#FFFFFF" fill-rule="nonzero" d="M32.8516999 11.18333L29.9761357 9.5013273 29.9857396 9.63439456 27.6840078 8.49764311 22.7972294 3.90682245C22.7972294 3.90682245 21.6863797 4.44882815 20.1993776 5.23100402 18.710775 6.0131799 19.2998135 7.35358918 19.2998135 7.35358918L20.0377122 8.7491727 20.0329103 8.75160685 20.5523205 9.74555441 20.5627247 9.7406861 22.2810204 12.9813608 22.0473258 13.7018714C22.0473258 13.7018714 21.2438005 16.2301494 23.5735437 17.0058342L23.574344 17.007457 24.1977964 17.2151718C24.1977964 17.2151718 24.8620653 19.2338995 27.262237 20.0339259 29.3750924 20.7382087 31.7928712 19.7953785 33.726454 18.6440221L34.5411839 18.158002 36.5652033 21.7175514 41.1182466 19.4002336 40.4323689 17.9941021C40.4323689 17.9941021 39.7248825 17.2581752 38.5500068 18.0249348L37.9745739 17.0666882 38.446765 16.7867601C38.446765 16.7867601 38.4379615 16.5514582 38.3043074 16.3753875L38.4611709 16.4573375 39.3159169 16.7429452 39.3767415 16.5498354 40.8333312 12.0580038 39.2799023 11.5403397C38.5556091 11.2985468 38.2426824 12.0174346 38.2426824 12.0174346L35.5920093 11.1346468 35.331904 11.0470172C34.4075298 10.7386906 33.8080871 10.7646549 33.0349741 11.1606112L32.8516999 11.18333zM8.70272327 20.1629362C8.57147013 20.8079879 8.50264227 21.4676445 8.50264227 22.1386606L25.093359 22.1386606 26.8740799 20.1629362 8.70272327 20.1629362z"/>
    <path fill="#C5E4EA" fill-rule="nonzero" d="M17.9296588,4.82044283 L18.3530302,0.736738274 L15.3150002,0.736738274 L7.04765322,19.0975867 L9.04606227,19.0975867 C10.0056508,12.5204937 12.1457172,7.4606921 17.9296588,4.82044283"/>
    <path fill="#9ECDD8" fill-rule="nonzero" d="M27.0677583,19.2833941 L10.6643174,19.3239634 C11.5934936,12.9553965 12.0624835,9.69119157 17.6623505,7.13532641 L27.0677583,19.2833941 Z"/>
    <path stroke="#FFFFFF" stroke-width=".1" d="M0.0852816767,19.4748811 C0.0852816767,13.5712383 4.80559268,8.78649644 10.6287502,8.78649644 C16.4519076,8.78649644 21.1714183,13.5712383 21.1714183,19.4748811 C21.1714183,25.3785239 16.4519076,30.1632658 10.6287502,30.1632658 C4.80559268,30.1632658 0.0852816767,25.3785239 0.0852816767,19.4748811 Z" opacity=".5"/>
    <path fill="#FFFFFF" fill-rule="nonzero" d="M50.5988848 11.6011937C49.3871942 11.6011937 48.2411303 11.8827445 47.2183162 12.3841809 47.4792218 12.5902729 47.7273222 12.8093471 47.9610169 13.0430262 48.7677435 12.7071125 49.6497005 12.5196823 50.5756754 12.5196823 54.3652096 12.5196823 57.4360528 15.6345923 57.4360528 19.4748811 57.4360528 23.3167927 54.3652096 26.4300799 50.5756754 26.4300799 46.7877419 26.4300799 43.715298 23.3167927 43.715298 19.4748811 43.715298 19.3994222 43.7184993 19.3247747 43.7217006 19.2501273L42.8381429 19.2501273C42.8357419 19.3247747 42.8325406 19.3994222 42.8325406 19.4748811 42.8325406 23.8230974 46.3091481 27.3485686 50.5988848 27.3485686 54.8886215 27.3485686 58.365229 23.8230974 58.365229 19.4748811 58.365229 15.1258534 54.8886215 11.6011937 50.5988848 11.6011937M2.65787603 19.4748811C2.65787603 15.011448 6.22732111 11.3926675 10.6315041 11.3926675 15.0340865 11.3926675 18.6035316 15.011448 18.6035316 19.4748811 18.6035316 23.9383142 15.0340865 27.5587175 10.6315041 27.5587175 6.22732111 27.5587175 2.65787603 23.9383142 2.65787603 19.4748811" opacity=".5"/>
    <path fill="#FFFFFF" fill-rule="nonzero" d="M3.74711701,19.4748811 C3.74711701,15.6345923 6.81876055,12.5196823 10.6074944,12.5196823 C14.3962283,12.5196823 17.4670715,15.6345923 17.4670715,19.4748811 C17.4670715,23.3167927 14.3962283,26.4300799 10.6074944,26.4300799 C6.81876055,26.4300799 3.74711701,23.3167927 3.74711701,19.4748811"/>
    <path fill="#FFFFFF" fill-rule="nonzero" stroke="#002E3A" stroke-width=".58" d="M3.74711701,19.4748811 C3.74711701,15.6345923 6.81876055,12.5196823 10.6074944,12.5196823 C14.3962283,12.5196823 17.4670715,15.6345923 17.4670715,19.4748811 C17.4670715,23.3167927 14.3962283,26.4300799 10.6074944,26.4300799 C6.81876055,26.4300799 3.74711701,23.3167927 3.74711701,19.4748811"/>
    <path fill="#FFFFFF" fill-rule="nonzero" d="M44.6532777,19.4748811 C44.6532777,16.197694 47.2735385,13.5420284 50.5060472,13.5420284 C53.7385559,13.5420284 56.3588167,16.197694 56.3588167,19.4748811 C56.3588167,22.7520682 53.7385559,25.4085452 50.5060472,25.4085452 C47.2735385,25.4085452 44.6532777,22.7520682 44.6532777,19.4748811" opacity=".5"/>
    <path fill="#FFFFFF" fill-rule="nonzero" stroke="#002E3A" stroke-width=".58" d="M45.7393243,19.4748811 C45.7393243,16.8465236 47.8420986,14.7146856 50.4346233,14.7146856 C53.027148,14.7146856 55.1291535,16.8465236 55.1291535,19.4748811 C55.1291535,22.1032386 53.027148,24.2350766 50.4346233,24.2350766 C47.8420986,24.2350766 45.7393243,22.1032386 45.7393243,19.4748811"/>
    <path stroke="#FFFFFF" stroke-width=".58" d="M11.4742453,19.2257857 L50.6437029,19.2257857"/>
    <path fill="#FFFFFF" fill-rule="nonzero" d="M29.8352787,5.67158649 C30.0497655,3.39727219 28.4067004,1.37773303 26.1633922,1.16028164 C23.9216846,0.942830258 21.9280775,2.60860523 21.7135907,4.88291953 C21.4991038,7.15642244 23.1437697,9.17677299 25.3870779,9.39422438 C27.6287854,9.61167576 29.6207919,7.9450894 29.8352787,5.67158649"/>
    <polyline stroke="#124354" stroke-width=".1" points="27.839 8.817 24.961 5.237 28.838 1.921"/>
    <path stroke="#124354" stroke-width=".1" d="M26.8148559,5.39977226 C26.8868851,4.63463549 26.3346615,3.95793976 25.5807563,3.88410365 C24.8268511,3.81026755 24.1577802,4.37093511 24.085751,5.13444912 C24.0137219,5.89877451 24.5667458,6.577093 25.3198507,6.65011772 C26.0737559,6.72395383 26.7428267,6.16328626 26.8148559,5.39977226 Z"/>
    <path fill="#002E3A" fill-rule="nonzero" d="M28.5883739,2.38871969 C29.3662888,3.2544683 29.7920612,4.40663609 29.6784152,5.62452612 C29.5615679,6.85053001 28.9205084,7.9053315 27.9857299,8.60474603 L25.3374578,5.21315354 L28.5883739,2.38871969 Z"/>
  </g>
</svg>
