<svg xmlns="http://www.w3.org/2000/svg" width="49" height="176" viewBox="0 0 49 176">
  <g fill="none" fill-rule="evenodd" transform="translate(.72 .316)">
    <path stroke="#FFFFFF" stroke-width=".12" d="M0.0179227941,23.9047879 C0.0179227941,10.8033981 10.7550602,0.182738536 24.0001343,0.182738536 C37.2449398,0.182738536 47.9820772,10.8033981 47.9820772,23.9047879 C47.9820772,37.0059122 37.2449398,47.6265717 24.0001343,47.6265717 C10.7550602,47.6265717 0.0179227941,37.0059122 0.0179227941,23.9047879 Z"/>
    <g transform="translate(10.588 16.408)">
      <path fill="#7DACBC" d="M10.1531383 11.5638574C9.73193438 12.6099321 9.32186859 13.6786198 8.95315656 14.7134516 8.32772624 14.6435284 7.71153689 14.5612223 7.11405715 14.4583502 7.41040845 13.41827 7.75075551 12.3826218 8.14170882 11.3662502 8.79567337 11.4531725 9.47011983 11.5156524 10.1531383 11.5638574zM13.7837603 11.8225697C15.7785083 11.7765876 17.6967368 11.5553657 19.498727 11.1952865 19.8318909 12.1730061 20.1139948 13.1751265 20.3561338 14.1826034 18.2979981 14.6627005 16.0730411 14.9606724 13.7345519 15.0077357 12.7853191 15.0276617 11.8606487 14.9947729 10.9528272 14.9360572 11.096438 13.8660483 11.2559474 12.8130878 11.4368609 11.7855982 12.2059619 11.8229257 12.9867973 11.8404553 13.7837603 11.8225697zM8.41261718 10.7291102C9.66212445 7.60196731 11.4611347 2.47342581 14.0036553.315277846 16.4865139 2.3181528 18.1412026 7.37500819 19.2932826 10.4718795 17.5209839 10.8173407 15.6918214 11.017835 13.851683 11.0625644 13.1733244 11.0784302 12.4455592 11.0674395 11.6371022 11.0306411 12.1168773 8.47645635 12.7139126 6.08263303 13.4762479 3.95079359 14.161257 1.60554575 11.9024817 7.17801297 10.4018636 10.9535086 10.3415466 10.9484713 10.2818699 10.942679 10.2208096 10.9370249 9.52052596 10.8742298 8.94676641 10.8071014 8.41261718 10.7291102z"/>
      <path fill="#B3DAE7" d="M17.3763281 54.6927681C18.3359048 49.8594851 19.5483835 43.9736022 20.5240775 39.1472834 22.4235827 40.7766811 24.3951722 41.980522 26.2793853 43.6248917 26.3085189 50.9413128 26.3791278 58.2882601 26.4955989 65.4620166 25.8773604 62.9545204 25.2677057 60.4277418 24.6639078 57.8894772 23.6880282 56.3564503 22.7134005 54.8219475 21.7407851 53.2865999 20.3978876 53.2660048 18.7231158 54.7103046 17.3763281 54.6927681zM9.2743103 54.5128292C7.93795235 54.5183207 6.26061125 53.1286776 4.92700868 53.1339111 3.9548629 54.6581581 2.9820837 56.1831518 2.00919367 57.706781 1.4023278 60.2416904.792785833 62.7692888.17673563 65.2851231.302327722 58.0727873.396060592 50.7245779.449538711 43.444753 2.33137182 41.8319106 4.22191439 40.2237522 6.11744512 38.6171891 7.06627611 43.428197 8.34224944 49.677567 9.2743103 54.5128292z"/>
      <path fill="#7DACBC" d="M13.6519652,16.145078 C15.971146,16.1180484 18.2764875,15.8499674 20.5033166,15.3474333 C22.1892677,22.8719173 21.6984938,30.5083242 21.7037788,30.4960384 C19.6400016,39.8686559 17.6400598,49.4612362 15.6360904,58.8965753 C15.3317094,58.8965896 15.028082,58.8972293 14.7230625,58.8979962 C14.7404772,58.4687104 14.748522,58.1958058 14.7488772,58.1832758 C14.7978364,51.4113499 14.8564103,44.5614777 14.9169668,37.7940477 C14.9208593,37.3791882 14.7592648,36.9898507 14.4620693,36.6982924 C14.1648739,36.4067341 13.7685975,36.247114 13.3486228,36.2486547 C12.8977923,36.2502349 12.4655292,36.4403616 12.1621182,36.7707797 C11.9018274,37.0549083 11.7569672,37.4194543 11.7532091,37.8023631 C11.7019362,44.5633912 11.6460312,51.4116311 11.5895885,58.1863231 C11.5893485,58.2002312 11.5925553,58.4734973 11.6019354,58.9045029 C11.3944129,58.9053953 11.1882825,58.9061607 10.9820369,58.905548 C9.12515792,49.4706472 7.28745559,39.8708325 5.36374352,30.5677032 C5.36924937,30.574838 4.99758198,23.0013325 6.79986818,15.5159802 C7.33340153,15.6228001 7.9193723,15.7192785 8.5759301,15.8127847 C8.12492362,17.2300826 7.76723302,18.5555444 7.59988465,19.5990972 C6.63484381,25.6311978 6.86006321,30.2783566 6.85937197,30.2700879 C8.03430105,36.2623579 9.17772171,42.3810918 10.3155741,48.500334 C10.3225489,48.5753773 9.03711535,30.8079479 10.7589534,16.0446655 C11.8182676,16.1236223 12.7607399,16.1556176 13.6519652,16.145078 Z"/>
      <path fill="#B3DAE7" d="M14.1224358,58.3530155 C14.1242853,58.7673144 13.8132987,66.576148 13.4043136,66.5578733 C12.9919163,66.5715935 12.6410006,58.7551355 12.6427561,58.341249 C12.6282603,51.4708899 12.6143847,44.5236523 12.5987515,37.6639581 C12.5983483,37.2650485 12.9318734,36.9433659 13.3401858,36.9468934 C13.7490087,36.9482649 14.081633,37.2772274 14.0826783,37.6753801 C14.0927801,44.5369327 14.10524,51.4842851 14.1224358,58.3530155 Z"/>
      <path fill="#E6F9FF" d="M14.8935627 59.7551667C15.4346733 59.7555545 15.9759039 59.7573205 16.517771 59.7583362 18.5058224 62.5436672 17.7491999 65.4096482 15.9081922 69.836589 13.6833466 75.1901456 12.1786282 160.307371 12.1841979 159.984713 12.1773675 160.333172 12.613825 74.4008858 10.3128143 69.9086059 7.91823925 65.5828499 9.40057283 61.3082214 10.5055755 59.7503112 10.9464324 59.7518658 11.3870491 59.7506642 11.827906 59.7522188 11.9054549 62.0998773 12.1260042 66.1296187 12.6959015 66.8622935 12.8860581 67.1067639 13.0198005 67.2842393 13.3605975 67.2805423 13.7013946 67.2768454 13.7875402 67.1189734 14.0066798 66.8263435 14.531857 66.1250435 14.7906933 62.0860362 14.8935627 59.7551667zM8.51554901 57.8358551C8.49762244 58.9506179 5.87752244 73.6280395 5.87752244 73.6280395 5.87752244 73.6280395 4.41140901 58.8593236 4.42869583 57.7453149 4.44585454 56.6299148 5.37581755 55.7465155 6.5043506 55.7720272 7.63211578 55.7969016 8.53347557 56.7210923 8.51554901 57.8358551zM23.3772792 57.5314979C23.3593907 58.6462158 20.7392196 73.3237212 20.7392196 73.3237212 20.7392196 73.3237212 19.272649 58.5555443 19.2905374 57.4408264 19.307658 56.3254712 20.2369255 55.4428919 21.3660675 55.4676857 22.4938019 55.4925964 23.3951677 56.41678 23.3772792 57.5314979z"/>
    </g>
    <path fill="#E6F9FF" d="M24.1831055,19.7898419 C24.096335,19.680267 23.017004,22.1349241 22.4117647,23.5650888 C22.0082718,24.5185319 21.5345098,25.7797033 20.9904785,27.3486032 L20.7414982,27.985418 C20.1168428,29.5140918 19.7168328,30.559094 19.541468,31.1204248 C19.3661032,31.6817556 19.2379653,32.0557186 19.1570542,32.2423139 C18.6138183,33.9717708 18.2506663,35.5055159 18.0675982,36.8435492 C17.9182273,37.9352926 17.5900728,39.5475512 17.4520192,41.9860536 C17.4000282,42.9043942 17.4000282,44.4877305 17.4520192,46.7360623 L20.8977194,64.8935309 C20.5883599,55.8523398 20.4680417,49.2753861 20.5367647,45.1626699 C20.6054878,41.0499537 20.8819411,36.8168661 21.3661248,32.4634071 L21.5479377,31.3447302 L22.0335765,28.2054458 L22.2222829,27.4455978 C23.5873449,22.4148104 24.2409524,19.8628918 24.1831055,19.7898419 Z"/>
    <path fill="#002E3A" d="M17.8050034 30.8877453C20.0836572 31.2381609 22.148656 31.4050781 24 31.3884971 25.851344 31.371916 28.0972681 31.1222895 30.7377724 30.6396176L30.9733671 31.7817173C29.2945043 32.2400776 27.0502954 32.4963291 24.2407406 32.5504721 21.4141747 32.6049429 19.170964 32.4034567 17.5111084 31.9460137L17.8050034 30.8877453zM19.0911578 27.1516628C20.8315501 27.3762576 22.4678309 27.4816938 24 27.4679714 25.5321691 27.4542489 27.4619069 27.2656187 29.7892133 26.9020806L29.9947115 27.6231265C28.5383499 27.9863331 26.6475777 28.1903407 24.3223949 28.2351493 21.9831337 28.2802292 20.1514651 28.1310297 18.827389 27.7875507L19.0911578 27.1516628z"/>
  </g>
</svg>
