<svg xmlns="http://www.w3.org/2000/svg" width="234" height="80" viewBox="0 0 234 80">
  <g fill="none" fill-rule="evenodd">
    <path fill="#E6F9FF" d="M93.1614,69.719 C93.0994,49.211 84.1514,32.62 73.1204,32.62 C62.0904,32.62 53.1424,49.211 53.0804,69.719 L93.1614,69.719 Z"/>
    <path fill="#D6F4FE" d="M144.531 69.719C144.54 69.152 144.545 68.584 144.545 68.013 144.545 34.925 129.654 8.102 111.285 8.102 92.9161 8.102 78.0251 34.925 78.0251 68.013 78.0251 68.584 78.0301 69.152 78.0391 69.719L144.531 69.719zM224.695 69.719C223.178 41.734 214.314 20.255 203.605 20.255 192.895 20.255 184.03 41.734 182.514 69.719L224.695 69.719z"/>
    <path fill="#AEDCEC" d="M193.252,69.719 C193.329,67.443 193.37,65.132 193.37,62.789 C193.37,28.112 184.683,-1.42e-14 173.968,-1.42e-14 C163.252,-1.42e-14 154.566,28.112 154.566,62.789 C154.566,65.132 154.607,67.443 154.684,69.719 L193.252,69.719 Z"/>
    <path fill="#A0D0E0" d="M164.374,69.719 C164.374,57.708 157.597,47.971 149.236,47.971 C140.876,47.971 134.099,57.708 134.099,69.719 L164.374,69.719 Z"/>
    <path fill="#A1D1E1" d="M76.6849,65.4153 C75.1659,63.9743 73.1149,63.0893 70.8559,63.0893 C66.6469,63.0893 63.1569,66.1593 62.4969,70.1823 L79.2149,70.1823 C78.9099,68.3183 77.9959,66.6593 76.6849,65.4153"/>
    <path fill="#95C4D4" d="M61.9593,60.3645 C59.4563,56.8855 55.3743,54.6165 50.7593,54.6165 C43.1433,54.6165 36.9683,60.7915 36.9683,68.4085 C36.9683,69.0105 37.0103,69.6005 37.0853,70.1815 L64.4343,70.1815 C64.5083,69.6005 64.5513,69.0105 64.5513,68.4085 C64.5513,65.4065 63.5883,62.6295 61.9593,60.3645"/>
    <path fill="#A1D1E1" d="M38.4388,46.5139 C34.5148,43.9159 29.8108,42.4019 24.7528,42.4019 C18.3548,42.4019 12.5238,44.8259 8.1218,48.8009 C8.1218,48.8009 6.3598,50.3759 4.8448,52.5359 C0.6728,58.4839 -4.9192,69.6099 8.1218,70.1819 C8.7538,70.2099 27.1878,70.1819 27.1878,70.1819 L49.4018,70.1819 C49.5168,69.2129 49.5778,68.2269 49.5778,67.2269 C49.5778,58.5749 45.1498,50.9579 38.4388,46.5139"/>
    <path fill="#D6F4FE" d="M226.688,66.7551 C224.352,65.2851 221.587,64.4311 218.623,64.4311 C210.245,64.4311 203.452,71.2241 203.452,79.6021 C203.452,79.6691 203.457,79.7341 203.457,79.7991 L233.789,79.7991 C233.79,79.7341 233.794,79.6691 233.794,79.6021 C233.794,74.1881 230.956,69.4401 226.688,66.7551"/>
    <path fill="#7DACBC" d="M204.564,71.362 C204.138,74.452 202.074,77.329 199.492,79.8 L171.571,79.8 C171.548,79.408 171.534,79.014 171.534,78.617 C171.534,67.301 180.708,58.127 192.025,58.127 C196.012,58.127 199.73,59.269 202.877,61.239 C204.036,62.7 205.347,65.671 204.564,71.362 Z M202.877,61.239 C208.664,64.861 212.515,71.288 212.515,78.617 C212.515,79.014 212.501,79.408 212.479,79.8 L199.492,79.8 C202.074,77.329 204.138,74.452 204.564,71.362 C205.347,65.671 204.036,62.7 202.877,61.239 Z"/>
    <path fill="#A0D0E0" d="M172.062,73.0583 C170.099,71.9573 167.837,71.3283 165.426,71.3283 C159.731,71.3283 154.857,74.8313 152.833,79.7993 L178.019,79.7993 C176.852,76.9343 174.736,74.5583 172.062,73.0583"/>
    <path fill="#525252" fill-opacity=".15" d="M49.5774 67.2268C49.5774 58.5748 45.1504 50.9578 38.4384 46.5138 39.8714 48.7068 43.7814 55.6068 41.6944 62.8768 41.6944 62.8768 40.7894 67.8388 27.1874 70.1818L49.4014 70.1818C49.5164 69.2128 49.5774 68.2268 49.5774 67.2268M64.5516 68.4089C64.5516 65.4059 63.5886 62.6289 61.9596 60.3649 62.4196 61.3879 63.1986 63.7929 62.3876 67.1589 62.3876 67.1589 61.5436 69.2539 58.7046 70.1819L64.4336 70.1819C64.5086 69.6009 64.5516 69.0099 64.5516 68.4089M76.6849 65.4153C77.1619 66.1043 77.7269 67.2343 77.3499 68.3643 76.9939 69.4323 72.7649 69.3473 71.2749 70.1823L79.2149 70.1823C78.9099 68.3183 77.9959 66.6593 76.6849 65.4153M172.062 73.0583C172.357 73.9123 173.096 76.7283 171.354 79.7993L178.019 79.7993C176.852 76.9343 174.736 74.5583 172.062 73.0583M233.794 79.6023C233.794 74.1883 230.956 69.4393 226.688 66.7553 227.695 69.3143 229.573 76.2243 222.409 79.7993L233.789 79.7993C233.79 79.7333 233.794 79.6683 233.794 79.6023"/>
  </g>
</svg>
